<mxfile host="app.diagrams.net" agent="Mozilla/5.0 (Windows NT 10.0; Win64; x64) AppleWebKit/537.36 (KHTML, like Gecko) Chrome/128.0.0.0 Safari/537.36 OPR/114.0.0.0" version="24.8.4">
  <diagram name="Page-1" id="GVRWtZ3FBtsTGy7-beHY">
    <mxGraphModel dx="2398" dy="1939" grid="1" gridSize="10" guides="1" tooltips="1" connect="1" arrows="1" fold="1" page="1" pageScale="1" pageWidth="850" pageHeight="1100" math="0" shadow="0">
      <root>
        <mxCell id="0" />
        <mxCell id="1" parent="0" />
        <mxCell id="4rz4LA_L3pTO9ttwV80M-6" style="edgeStyle=orthogonalEdgeStyle;rounded=0;orthogonalLoop=1;jettySize=auto;html=1;entryX=0;entryY=0.5;entryDx=0;entryDy=0;" parent="1" source="4rz4LA_L3pTO9ttwV80M-7" target="4rz4LA_L3pTO9ttwV80M-15" edge="1">
          <mxGeometry relative="1" as="geometry">
            <Array as="points">
              <mxPoint x="140" y="45" />
              <mxPoint x="140" y="45" />
            </Array>
          </mxGeometry>
        </mxCell>
        <mxCell id="4rz4LA_L3pTO9ttwV80M-7" value="" style="rounded=1;whiteSpace=wrap;html=1;" parent="1" vertex="1">
          <mxGeometry x="-130" y="-60" width="210" height="130" as="geometry" />
        </mxCell>
        <mxCell id="4rz4LA_L3pTO9ttwV80M-10" value="" style="rounded=1;whiteSpace=wrap;html=1;" parent="1" vertex="1">
          <mxGeometry x="-190" y="110" width="1130" height="700" as="geometry" />
        </mxCell>
        <mxCell id="4rz4LA_L3pTO9ttwV80M-11" value="1" style="rounded=1;whiteSpace=wrap;html=1;" parent="1" vertex="1">
          <mxGeometry x="-120" y="170" width="990" height="580" as="geometry" />
        </mxCell>
        <mxCell id="4rz4LA_L3pTO9ttwV80M-12" value="" style="rounded=1;whiteSpace=wrap;html=1;" parent="1" vertex="1">
          <mxGeometry x="-50" y="203.5" width="840" height="513" as="geometry" />
        </mxCell>
        <mxCell id="4rz4LA_L3pTO9ttwV80M-13" value="" style="image;points=[];aspect=fixed;html=1;align=center;shadow=0;dashed=0;image=img/lib/allied_telesis/computer_and_terminals/Server_Desktop.svg;" parent="1" vertex="1">
          <mxGeometry x="-100.25999999999999" y="-5" width="47.33" height="60" as="geometry" />
        </mxCell>
        <mxCell id="4rz4LA_L3pTO9ttwV80M-14" style="edgeStyle=orthogonalEdgeStyle;rounded=0;orthogonalLoop=1;jettySize=auto;html=1;exitX=0.5;exitY=1;exitDx=0;exitDy=0;entryX=0.49;entryY=0.055;entryDx=0;entryDy=0;entryPerimeter=0;" parent="1" source="4rz4LA_L3pTO9ttwV80M-15" target="4rz4LA_L3pTO9ttwV80M-26" edge="1">
          <mxGeometry relative="1" as="geometry" />
        </mxCell>
        <mxCell id="4rz4LA_L3pTO9ttwV80M-15" value="" style="shape=image;html=1;verticalAlign=top;verticalLabelPosition=bottom;labelBackgroundColor=#ffffff;imageAspect=0;aspect=fixed;image=https://cdn4.iconfinder.com/data/icons/for-your-interface-free-samples/128/Globe-128.png" parent="1" vertex="1">
          <mxGeometry x="339.99" y="10" width="70" height="70" as="geometry" />
        </mxCell>
        <mxCell id="4rz4LA_L3pTO9ttwV80M-16" value="Subscription&lt;div&gt;&lt;br&gt;&lt;/div&gt;" style="sketch=0;pointerEvents=1;shadow=0;dashed=0;html=1;strokeColor=#B09500;labelPosition=center;verticalLabelPosition=bottom;verticalAlign=top;outlineConnect=0;align=center;shape=mxgraph.office.security.key_permissions;fillColor=#e3c800;fontColor=#000000;" parent="1" vertex="1">
          <mxGeometry x="-100" y="203.5" width="25" height="53" as="geometry" />
        </mxCell>
        <mxCell id="4rz4LA_L3pTO9ttwV80M-17" value="&lt;div&gt;RG-EnergyWise-Devops&lt;/div&gt;&lt;div&gt;&lt;br&gt;&lt;/div&gt;" style="image;aspect=fixed;html=1;points=[];align=center;fontSize=12;image=img/lib/azure2/general/Resource_Groups.svg;" parent="1" vertex="1">
          <mxGeometry x="-3.552713678800501e-15" y="238" width="42.5" height="40" as="geometry" />
        </mxCell>
        <mxCell id="4rz4LA_L3pTO9ttwV80M-18" value="" style="html=1;verticalLabelPosition=bottom;align=center;labelBackgroundColor=#ffffff;verticalAlign=top;strokeWidth=2;strokeColor=#0080F0;shadow=0;dashed=0;shape=mxgraph.ios7.icons.user;" parent="1" vertex="1">
          <mxGeometry x="-45.129999999999995" y="-50" width="40.26" height="40" as="geometry" />
        </mxCell>
        <mxCell id="4rz4LA_L3pTO9ttwV80M-19" value="Virtual Network&lt;div&gt;&lt;br&gt;&lt;/div&gt;" style="image;aspect=fixed;html=1;points=[];align=center;fontSize=12;image=img/lib/azure2/networking/Virtual_Networks.svg;" parent="1" vertex="1">
          <mxGeometry x="-22.239999999999995" y="650" width="61.98" height="37" as="geometry" />
        </mxCell>
        <mxCell id="4rz4LA_L3pTO9ttwV80M-20" style="edgeStyle=orthogonalEdgeStyle;rounded=0;orthogonalLoop=1;jettySize=auto;html=1;" parent="1" source="4rz4LA_L3pTO9ttwV80M-23" target="4rz4LA_L3pTO9ttwV80M-37" edge="1">
          <mxGeometry relative="1" as="geometry" />
        </mxCell>
        <mxCell id="4rz4LA_L3pTO9ttwV80M-50" style="edgeStyle=orthogonalEdgeStyle;rounded=0;orthogonalLoop=1;jettySize=auto;html=1;" parent="1" source="4rz4LA_L3pTO9ttwV80M-23" target="4rz4LA_L3pTO9ttwV80M-25" edge="1">
          <mxGeometry relative="1" as="geometry" />
        </mxCell>
        <mxCell id="4rz4LA_L3pTO9ttwV80M-23" value="&lt;div&gt;&lt;div style=&quot;text-align: justify;&quot;&gt;VM-EnergyWise-LX-Devops&lt;/div&gt;&lt;div style=&quot;text-align: justify;&quot;&gt;Imagem: Ubuntu&lt;/div&gt;&lt;/div&gt;&lt;div style=&quot;text-align: justify;&quot;&gt;Size: B2s 4Gb ram&lt;/div&gt;&lt;div style=&quot;text-align: justify;&quot;&gt;IP PÃºblico:&amp;nbsp;191.235.233.101&lt;/div&gt;" style="image;sketch=0;aspect=fixed;html=1;points=[];align=left;fontSize=12;image=img/lib/mscae/VM_Linux.svg;" parent="1" vertex="1">
          <mxGeometry x="120.68999999999998" y="540.84" width="76.09" height="70" as="geometry" />
        </mxCell>
        <mxCell id="4rz4LA_L3pTO9ttwV80M-24" value="" style="image;sketch=0;aspect=fixed;html=1;points=[];align=center;fontSize=12;image=img/lib/mscae/Docker.svg;" parent="1" vertex="1">
          <mxGeometry x="201.64999999999998" y="517.5" width="51.83" height="42.5" as="geometry" />
        </mxCell>
        <mxCell id="4rz4LA_L3pTO9ttwV80M-25" value="&lt;span style=&quot;color: rgb(41, 40, 39); font-family: az_ea_font, &amp;quot;Segoe UI&amp;quot;, az_font, system-ui, -apple-system, BlinkMacSystemFont, Roboto, Oxygen, Ubuntu, Cantarell, &amp;quot;Open Sans&amp;quot;, &amp;quot;Helvetica Neue&amp;quot;, sans-serif; font-size: 13px; text-align: start; text-wrap: wrap;&quot;&gt;VM-EnergyWise-Devops_OsDisk_1&lt;/span&gt;" style="image;aspect=fixed;html=1;points=[];align=center;fontSize=12;image=img/lib/azure2/compute/Disks.svg;" parent="1" vertex="1">
          <mxGeometry x="-6.060000000000029" y="553.34" width="45.8" height="45" as="geometry" />
        </mxCell>
        <mxCell id="4rz4LA_L3pTO9ttwV80M-26" value="VM-EnergyWise-Devops-nsg" style="image;aspect=fixed;html=1;points=[];align=center;fontSize=12;image=img/lib/azure2/networking/Network_Security_Groups.svg;" parent="1" vertex="1">
          <mxGeometry x="351.12" y="220" width="47.76" height="58" as="geometry" />
        </mxCell>
        <mxCell id="4rz4LA_L3pTO9ttwV80M-27" style="edgeStyle=orthogonalEdgeStyle;rounded=0;orthogonalLoop=1;jettySize=auto;html=1;entryX=0.5;entryY=0;entryDx=0;entryDy=0;" parent="1" source="4rz4LA_L3pTO9ttwV80M-28" target="4rz4LA_L3pTO9ttwV80M-15" edge="1">
          <mxGeometry relative="1" as="geometry">
            <Array as="points">
              <mxPoint x="1140" y="-20" />
              <mxPoint x="374" y="-20" />
            </Array>
          </mxGeometry>
        </mxCell>
        <mxCell id="4rz4LA_L3pTO9ttwV80M-28" value="" style="rounded=1;whiteSpace=wrap;html=1;" parent="1" vertex="1">
          <mxGeometry x="1000" y="210" width="290" height="453.5" as="geometry" />
        </mxCell>
        <mxCell id="4rz4LA_L3pTO9ttwV80M-29" value="" style="shape=image;verticalLabelPosition=bottom;labelBackgroundColor=default;verticalAlign=top;aspect=fixed;imageAspect=0;image=data:image/png,UklGRjhJAABXRUJQVlA4WAoAAAAQAAAA8wEA8wEAQUxQSAMSAAABwMf/nyKp0b5VXS0za0SREDgsnoucu7u7u7u7u9/FEySChniCRV8Hp8ux5DZ3SBzCAk/Qe253dmZ6urrr+wf5i2mpOiMiJgBH/H/E/0f8/5/PvVp0WNeU45G1KIqimo/DXNWiKIpq0rlEj1kLAEDhlfesufMwXnPPG6AAIKhFjylcSHQoDpU47e+3r1277vb7mfEwzvjgbevWrr1909mQODSMoihyGWEURQDQM/ynwcHBwT9sYkaSWaIP6yQjyYxb/rB+cHDwj38bAIAoikIHEURRVBMQ+NNfhzb8lYaHmkQfmvEwzxJ9qOGhhsMbhjYOQkBEURQF7sBTSglA4Y6tw381JKkfO2VXp/qxSdIMD2+5CwoQSinPAUilBAIs37Xlvs2aua633Ld1500IIJTybJ5USskAl40+/FDMguw89PA/r0QglFLSykmlJEL8OHmwxYJtP9T5NUJIpaRlE0pJH5/hyK4mDQu4tWuEX4UvlRK2TCilPIX3cqRJw8I2bI7wg1CeUkrYMMDDq7kvZgmM9/HNULDgEk/igbE2S2N77ACfBmm3BE5nk6WzybMgrZWPaUxYUjucDd9GqeOYstSmnCRtU/0oGpZew2NqFmngqN6EZXnChAEbJDC5/yCpdTnSmmwMTLI9ApNru6i1ZmnWWnNfz2QIayMw+ZS+h5holmytOdJ/8mQIGyMwY8IwTZoYlu8kNfz70TMg7Ir0PZw0bZCJ1oal3GidcMO0U+D50pZI38NJM29nq5mxxGetFn838xR4vrQh0vcw5+Sb2WpmLPlZs8VbTz4Zni+th1SYdcYytpopK2DWbPHGM06CknZDBJj5lCvZaqasiGmzxWVPmYNA2AvhK/QuZKupWSHTZovL+6B8YSeErzDjpXP5T82Kqf/JBS+ZBeULCyF8PO4tl7DVYQVNWpz7lpnwhW0QAaa86zy2m5qVVDfbvOBdJyIQVkH46L+McTNhZU2aMa8YgC8sgo/jPvVLjiastMkof/3JifCFHRC1CL0L2IlZeeOYVwwgrAkLICIMfOfXHOuwAnfGeMF3jkEkKl+k6j/+DXXMihwnvODHfV6t4kUILmHailmZOy3N+SGiKheF/oVz2dGs1GmH8y4O/KiyRcB8Gs3KrQ2v8BBVtBrmLaLWrOA64aIFiKpYWMd8UrOia/Jy1MLKFXlYyFSzsuuUyyCjitWDpXckGSt9mt5+DepVKujDQlKz4mtyCfrCyhSGWMxMs/LrjNcgCCtSLxbd3coMLaDJ4ruXo7cK+QNYQGpDK2g0eRUGgsrjRZjLLDG0hCbJeBVCr+LUcfmecVrG5qNLUK80dVxEQwu5APUKU8clzGghDeehXlVkL37NjFYy4yXoldUkxHlMaSlTXoSwioT4CZu0mE3+EmHlCPAdJrSaCX+KsGIE+BY7tJwdfh9BpfDxNca0nh1+H0GFUPgaY1rQDr8NVRkUPseYVjTm16AqQg8+yyYtaYtfRG8VEPgoWymtadripyBLn8AH2choUbMGPwlR9vAeNmlZm/wIRMl7P5u0rk1+GCVeeHg/W7SwTX4MnihpQuIDHKOVHeOHIUUpExLvZYOWdowfhhQlTEh8kA1a2wY/AinKF/A+NmhxG/wISrj/MY7T6o7zk0HZEpjIBi3vGKdBlCspP83M9qT8gidLlRSfZUrrm/ILUpYoT3yBLVrgJr8qZWkKxTfZohVu8TsyKEkhvsE2LXGL3xVhKYrwLbZpjdv8AcISJPBtE9Mit/ldlF+hvmc6tMqx+bEqPXWM0jabNmolp47zE+tEfRFqpaaOX2a00OZ81EuMh4tNZixUZi6DV1o8XJRlhjY6M/PglZU+bKOhlTbcjd6S0osrU1rrdBF6S4mPBbTai+GXEB+LmBp7ZVIuhSof/RhmSoudcRP6S0cdS2i9r0OtZARYQgu+HEGpCLCUxoLxegRlogd3MLVfGf+AnhJRx1IaWnDDa1AvDSEWMqMVz3gNwpIQYj5TWvKUSxCWgwhLqW2Z5o2ISkGIq6hpzTWXIioBIS5lQouueRXC4gtwuW1bhqDwfMxnQque8Er4BRfiZ2zTsse8EGGhCQ8XMbFtmgugRIEJDxczoXVPOBeeKK4A32CLFr7NHyEoLCFwARMbl3AuhCiqCF9mTCsf8+uICkpAXkht5zQv9SAKSSC6mAktfcIFEUQR+fgYG7T2DX4afgEJ9F1Cbe805w5AFE+Ad7NNix/zowgLR2BgLrXN07xyAkTBCBy1mAmtfsJlx0AUi4c3cZSWf4zvhlcsPl7N2PbFfDP8QhE4/gZq26e5YjJkgQhMu4Ga1l9zxXSI4vDwIo7SAY7yZfAKQ2D6LUxdQMpVMyGKQuKZbNMJtvlCeAUhMOMupm4g5bpZEMUg8VTGdIRtPhOyEARm/ImZK8j45zkQRSBxNmM6w5hPhSwAgSkbTeYOMt4zFaIInsCYDjHmU4rhdHbcwlmQ+YcZj9C4hIwjJ0PkncRsdugUY54OL+cEJu/Sxi0YvWcqRK4JHLvfGDpGkx2YApFv05jQOXY4J++muIkZ+YZJrcy4B5N2piDXJzKhg0w4BSLHBpjSSWoehxyf4CoSTvwXk36mdJQpJ+TXcS5jUm5FNHSWKfv/lWS625iTUz4NHaZhlE+zM7qNk/OJjtPQzyOlXUdWyyPQddDPo6e4j2fmj0DiOkiqHBpzH23krvf81H3wJV7OSIzTgSYQuSLwhjEX0nwzRJ54GKUTHYfME4l9buRgvngYdSPjuSLxMe1G0k9D5IfCfjrSUXj54WG3K9kHmR8K+13JKLzc8PA97UqyH0DmhcJeGkfCA/DyYxed6R6onPDw89SdZOfBywcfO2icCfdA5cV2l7I7P3a4lD05obCMTvUaqDwIsI3GnRjugJ8PD7iVbfngY7tbGcmHANvcyo5cCHA7Hes6+HlwL41LMdyGIA/ucy3b4efBva5lG4KuC7Cehk7VcCOCbguxyb3c+58TfGx1L/fD77IQQ8zoWA03Iey29S5muPuGXMym/zFA4rj7Xcz2iRDdFGKQGZ1rxiGE3bXOxRj+sdsGXUzGoX/FWO9mNnbboJsZ6ioPT91J414Mdz8TXvdEWMuUDjbjIMLuCXEbMzezrpsirGXqZgaP+O+I/47474j/jvgvl0LcxszNrOumCGuZupnBblJ45T4a92K4/3XwugchBpm5l4xDCNFV693Mxm4bdDND/4qxzsUY/rHbBl1MxqHukpj1MI1rMdw5B7KbEGKImXvZhBBdttHFbEbQbUMuZhPC/5Sw3sUMd9+Qi9nUbULhPhq3YviQUKK7EGKTe7kXAf6LAQLcS+NSDLchwH9QWO9WyGH43YcA22jcieEO+MhBH9vdykg+BNjmVnb864aPW+hUV0HlAXzsoHEne6CQE9tdyu782OFS9uSFwkI61Kvh5QMUdrmTPVDIjb00ruQAvLzwcF5GR2ouzA8o7Hclo/CQmx72uJJ/QOaHwn5XMgovPyS+mrqR7FsQ+QEPo25kHBI5KrHPjRwUueJh1I2MI1cEPtBwIa0PQeQJJMZdSAKBXBXy7ZkDebdEzgqMuY82clcgcR9UuQO8xHUYvhJ57D78PFJt19Gp5RHoOujn0lM7TsOkT0cu+zROg1E+4XQad5HxHOR05DJS9jm5/rzCHGauIuXJyO1+pu5iQn5hKlM3oTkTOT7BVSSc+K8mmMjERSScApFnx1G7CM1JuSYwhYl76HAGBHJtmpuYk3cTk9S4BpPqE/MNAlPj1LgFk+rpEMh3idnsuIWYZ0Ai5wVm/H9mHMPZEHkHgdPZcQlG751RCE9g7BJing2JApg+khp3YNJdp0HkHyTOZuwOYj4VEgUocPIDWeYKsuzBMyCKABJPZewK2nwmJApR4OS7mbmBjH87FaIYIPFMtt1Amy+Eh4IUOGmQmQvI+JfTIIoCHl7EcRcwzpfBQ2EKzLqD2v5p/nYORHFA4sS7qG2f5u9mQKJIA7yKse2L+WaEKFQPb+OY7Rvj++AVi8TkFdR2T3P1VMhigcTk65javJQ3nwCJog3wbrZtXsyPIkThCky6mqm9S3ntCRDFAx8fY8PeNfhp+ChggaMXM7F1Ca85BqKIINB3FbWd01w8AIlijvBlxnYu5tcRoaAF6vOpbZzmoh4higoBvslxG9fkjxCgsIX0FzGxbwmXhVIUF4TA5dS2TXMphECRh/gZ27Yt5oUIUejCw0Imdk1zKTxRbBAKV1HbNM3lUAJFH+JSxjatw4UIUfw+rqa2Z5rXw0cZDHAttS3TXIEApTDCUpt2I6JygAg3UtuxlGsQoSyGuJmZDcu4CiHKY4Q7mdqvjH9AhBIZ4gZm9stwNcIygRAraGyX4RqEKJd1rKCxXLwddZTNOoaZ2SzDTaijdAa4mZZ7JfzygQA32a3V8FFGe3GtsVfmBvSinPZhG42dMtyNXpRUhauZGiuV8gZ4ZQUKy5naqJTXwUN57cFiWunlqKPM1rFQ26d0Ceoot3WMWifTRg0lV3gXM7VLKecpUXYgMJepTdJcgDIc4Txqe6R5McIyhBC/YtsWtXiBCFGOQ/ELtuxQi7/yApTlwPs5Wzaoyd8oH+U58H7CzP5k/LnvixIlfP9HJrM9GX/u+wJlWmAiG7ZnjNMgULLDr3Lc7ozzGxHKt/oqx23OOL+lUL6F8L7Mhr1p8GtKiPIFIbwvs2FrGvymJwTKuBDic2zYmQa/KIRAORcSn2PDxjT4FSEEyrqQ+Bwb9qXBL0JKlHcp8Tk2bEuDX4WUKPPSwxc5ntmUbJzfhCdR7gXwJbZTe5K2+DVAoPwPDHyFLVvS4jf6JkCgAgqJb7JlR1r8EaRARfTwfbZsSJs/hidQGT38kC370eYvoVAlffyEHdvR4S/go1r6+AU7diPhRfBRNQOcx8RmJLwIIapniPMY24sO5yJEJQ0xj9pOpFyMEFU1xFVMbUTGJQhRXUMsZGYfMl6DEFW2jqWttm2ImzegjmrrRbiRxi6sQeSh6no9uJFWcQV6PFTgGlbsim1BsvN21FCNVYAbmerqp1Ougq9QlYM+3EzqqqfJlegLUaF7sHJIp9UuzTbchh5U60hhFVNd3bTmHZARqnZYxwpSVzVNrkY9RAWv4ZY7qHUV0wnvWIUI1TyCWEmjq5c2XK0QoapHgb9kOTu6WqUdXrMs9CNU+AjRDcyStDqlScoVNUSo9jWvd/5Cproqac3FCwa8Gqq+iHD0ZQsZp1UobXPJ3OMRCVR/UYswcA07cfWJO7z+aEQ1ASso6pj8k8s5llSbZIxX/uQE1AWsoYxw7DXsNJPqkjRj3ng8IgmbKOqY/vUrGTd1NdHNmIu+Pgs9EpZR+JjziSvZ6lSRpMVFHz8ZvoB9FL7CaR9axlFdNfQor/ngGVC+gJUUvsLkW9hu6iqRNtu8dQqUL2AtRYgz3nQd2820KqTNNm9549kIBaym9HHmi25iu5lWgazZ5uoXnQ1fwnZKX+HMp69hq5mVvazZ5l1PPxvKl7Cg0lc460m/ZbuZlbms1eafnnQulC9hSaXv4fFnbGC73TLlzLTabd59xtnwfAmLKn0PZ52yiSZumfJlWrHh1lPPhudLWFbP93DqM2dtZ7tlSlarzd2zn3kqpO/Bwnq+EDhz9qPUWpcnrTUPzDkTQvge7K3ArBP+QWpdjrQmG1NnQcACT5sxNaHW5Udr8nEzpsEeH38ijda6zGitM04/DnZZHDubmdE6LSep1iblyccIWGdxVHQKE5bUhGeFRwvYadGPJ7NTPmI+Hf0SNtvDsxmXi5jPh4L1FirEG9kuB22+C5ESsOU+PsxGVmzZOD8BH7Y9wJd4cCwppmTsH/w2Alj6EOfxoC6a9CAvQwhrL5VSMsRVZs9eXRR6795sOUKhlJK27lCplECIVc3dj+5O8y37v0d3j9+FAEIpD/bfU0oJQGHj/p0jJp/Mzp17h6EAoZTy4Aw9pZQCBO4b2b5tR54Y7ti2/ZEHIACllPLgHpVSCgB6Htly77333rv5EZruMdyx+d577713846jAEAppeAw1aE4VOLMXX8ZHr5nwwjN4WS4a8M9w8N/2f1ESByqDoULjR6zFgCAwhtG/jR0GP9p5O1QABDUoscUcKyyFkVRVPNxmKtaFEVRTcLterXosK4pHPH/Ef8f8f//DgsAVlA4IA43AAAw1wCdASr0AfQBPkkkkEWioiGRqlTAKASEpu/DKUhDIWTv7B63BEm0aaQf/dvy98PCsfWv7Z+yH+E/Yv5vaw/SP6v/df8H/cf/V/jeXUsbzOvIf03/Rf3X9zv8T/////92v8d/xP8N7hfzh/2/7b/dfkA/hv8k/vv9t/yf+t/tv////n1B/8b/D+5L+0f7n/r/3j3A/zT+u/7r++fvt80X+1/2n+89y3+N/3H/Y/XL5Af6t/eP+N+e/xs+wr+8HsBfzn/Hf872cv+D/5P9F+/P0W/07/U/+r/Wfvz9B/85/uX/a/P3/y/QB/7vUA/6vqAf+X2P+qX+D/JLwB/uv91/Hrs2/Mn7J+1vJiei++v8b/Ce1f+J/6X+L8Tfjn/r/4D2Avxf+W/4X8yv8J8bL67kVQD+Z/0X/c+o19Z/qvQv+Q9QHvtPA+/Ff7X2A/0H/2/Zq/rP2l/MD21/n/+h/9/+n+A7+af2/0nf//7ff2w/9/uofrr/3RpOzPoYe3cEW5gHgItzAPARbmAeAi2oVKj8OfvM9gRpL0Vw/uWRn0MPbuCLcwA60kCAY7jf/dpUqDTEW6YvkBopvvwgc6BNgMaWHtVmtiwluCLcwDwEW5ezNy24RVviUeIJZGfiRIRTdOZWj/ETbzKn6Ye3cEW5evFMCxCSQWy7Iz6GHt2yXOfZdfQTEQ6yKBwRbmAeAGVUZ34Gvt2AeAi3MA8BFegtFp5/0Br2K18EW5gBtPjJEkjJ8tzAPARbmAd6B65FOfuBIlJ+vQw9u2KhWjTHZscg9u4ItzAPARbqWieWjIT2Y1yesNMmv3Kzc7JXZtDxFuYAy0UKwiWESw7wEe5ZGe/z0XHmmVQRbkpFi9GMW5gBz+r/F2ifws9zQh5rTW8UQX+mewPfn/rMjtqTqa/i6CWiu8i3MOi7T9M3bSbBAoT9kc2mHBFes/kJWk7M9/D9aEILWPqsZ9/+yALdETWhLIJrhUQZqxST44J1WfKsSskrVI45i1pZdgmHJZp4TCDvTHOcofkoweRddH8HgQcrXbSw877ZuEHefVCBxdLsSDkgAvgiwT5wiu0YyILzV8zk1jR/oRCImkYORny03RVNtPvc1ecwGJyICFCrdSWaANEZOicCWAHaoGxf+Ai+LlGluib4Xvc1AuB+P4cUDBWbf9JGex8cCwrcwA/G5tAw8Smwn0Av81OzOMQXuNu5WKDNkgGgLo+ZJVzKv8lno80T/NPArHSfF//xy3O1s6XZu2fS2D4Vy1HzdwFpufoA8c1kxIs5V/FSvPrDG+2sUs+t38cGWNLMnRyNUrIuk4eyJO3gIULjn2D2rjCdLG5c3EAPWJFC3xILQdSXPg8s2B3DVCTWVuK+/+QpWeIbu3a4R1hW5gCzgrQeF9C7m7Oq/Fa+jaVPB6Fyr/u+R1L65qmgBQ12hdVQV3tHqEz6GFadoi6s94e2mn7gZGfEFaRJ4higTta9ID2zHjVeJhUkbHR14uIHm4G85GLnf64///ZOt4OEHbS0BHt3AQ7Bo34vZhQNMTfefBFc7RhVqNZ0YDEZdaIDQf2nhc/VdgBu8f+4zXhbR70+J+hDIyv7v8bTAzttE18kQPbnyK5GyLJZyxe4zD4/oYo8i6GTnNFxaNds3x647gIHCghHFDy8Ont3D+fbKMzra+Z8IBBrXt9La9qUnD0A7NFYDILw1wMr0YZqJD03Vr6Dss9jrieUADJFD8k7zcUOHBin/l4CFP9u3GyF9zrKMF4rPnA5CDQNsnxARbqfZT/5KFm4sOj06Yu0DARHA+gSWJkzD25ybX8OKPFZ/giA9cRwFY1dm7gi3MA8BFtR5ZJLvKIC1XbuCK+qqNShAinjAPy9KtrppPTDBZyN7dAhvow5fmTwYDwQDQCbIiniYeTl5On0ehE4XqYqrO8u/mBEYy2HDvKbMGmA29F7yWrESTeonWUSXa6+fKWBFW5ZGfP1nPeSfkYG5s0oeVy2DrP6QnfNJNP1UnvX5nmNBgEnhRJZBBrfEpmhazotMe24tbRgeumxWH9c1Su+3yLsoQsQu+W7pkMx/0+LgllJ17cc1L5of3Qw9u4Ir7uFvWY/O8xOO21wP5qxBZi5Ku4VtWoUJZHmx8/csjPoYeR4qOt+U77a11+sOXkxz0MPbuCDUZ4mT7zyGyLbmAeAi3MA8xx73Pev9fDH877GBkJ2PsLBCyZoWhfDt2ALrowmy5gHgItzAPARrJCWWWAkGS1xBYk/Gq4osjoWw/qWFGKmacoFa/csjPoYe3cEW5gHgItzAPARbmAeAi3MA8BFuYB4CLcwDwEEAAD+7heAAB9Tgu0rKKdXRTnS87NlpchQEuY9AuuoCcOPkvams5kls98RscpBXjVXpR7G3rpjxaGxzQ86bRl9ZQDzhWg/IxGd4F9rfCQImZsqt8vPntOo6rOyxtQKvBARPnVgfBR5nIJj15WPCE98qp7HJ6Ks9n8ET6WDOpmnVZmUswmuMyO8bmJxVTUdSba6QwAbK7e2Fr82jTfGbnxpGeLKwHFJfcIkl7a/pP20gBlsYmWbvjCbqJL8E2OFQzGJFR4M1VN1hYkqOz5P5+1FmX/a0XPsz/VeOV8YGf5yISNfNgajodUkUbkLDL/K8vZRwnu7HYbYM4XwIMvdUnrlep+nQMR/4dgldGZxTQGcNz8mZc4oEaVecTi88NRvnS6bTCCHg/nn7wYCLCBe/iUDiBRPKw373jzVroRtPJp6oa6OVyKagYleQgj9th0P0/0bi1u4REybdPcmopfUYCeXKxC9fKeKmdrFsZg/A+92CXIy0UQcH9osqbF2WQCDvT/BVW+X+WwsHVo7jSJdHOP15tWGJRumRgCIenxALPx9UF7h0acQLIJH5Ezse/1vSrWOymZCSQWcyhQgQUBgCYtI2I4wqgFB/0UuXmqcx5OcwEhUftSHN8kD3A6taXJglCaQpr2wN2mA7ORvME0g/kWT+/IIV9lasBoQlo2WczFMP7SN0d0I9ZA1H3glG+akd0C9q8255yxkmfwPilYwVock4Lx2B3VK3bbOazg/Hsm5RXrZnhkgNGN5G18p2RA8pxm4wWqWHt5fgEAYvip367hcks/NjMFkdYLrii8LtSGSm6dtwiHP1QST4S2K39kN98Re2lPH6hwjFnq1XgC98vKgYUSdg28YClh60tM1SB9Ql+6MQwDRxyKKRL3StqlHemWIaapB6uzYhKh/IAABM3iGKGw7B+sX/XVQZNTLLFaniQQRN1dLzSnNyUJHI7yTCaQ5cFA1z0g5cbGL7tbaImryclJ3lYZsPxq7z7xC+bJ5SCCRWK9ETr0fM8O0dUAI3WfAUWfAylkEL+KwhRXSKIMYj8hLE/IB2snIt/3UTRuCR3kszNI+jDK67sFnVHj4neGwCUv7wm4euFxipE1CWdlDl1e5nRshBaMdBvosVK4WweNdYGTmA0B5QnIvG+vLa/Ko58T7AGqqExMTLX9bZnRgzfoM99rWAmflBuFBBbCawQ9ZeMI9yIiLRVZKnt0vVgVdgg6rLXcuGsefVH2XxX76ArD9F7HuR0Etrosciz+9/UwAAFl8GJHl026Uw6eg0/erAZV1ZliYuVjpusqwv8O+CixPpJOv8epSeXB0whfuoDlxo4HLOpV/BKcKheFlZBQePRyz+WYtQITpcYZu3zG3x//FAsjYpsDk+oreB8QK0G5t0bFPviMO3Ni+vAXannJG2T2l6ee7MKCB/dAIo0cVKK+7Nn4xDpiWAe+zKJy9OKx2lKxgyu7FTIVplhgqmnaQDj/2yOJIo8nh/GjdBzAkasrwADbf3+CX5LKzLapVdev2a7BkzU7nDx/GVFBPSLqZkgAAMmcbsB3RLyvFoxpxmf71e7H5zw3YQTcsu3N/ZrGWJTLivPEMgLaQmJkMegMcPNljMr8SGNea0xUs4ww1R6PhUfE98P9HIsa30cxPFvqQDCFlaK8chJstt43y7FcuiOeWUYpJsxFYrKAskbE6DzWW5alTrZeHdJy2uOrSTdmZLhmfV0uz3cIBuVQ40/Gs1iJxFjD/GPIsuaqbPi254CD9vCvoEGUlTfYz0e0Esm1vhxZ5XgJt5Eqk+4CtBAAA7I4TzRjk6gS92ddxI2MgrahlSWdKP0tQ9QbrhVbb4swDawMlkKC3kw2yRWSmQPpQ8lto6e+BNi9RyfD0/7iQIzfOsAfUw2DH4vIRWwj2xhKo1kkTrVcld6A7bjbkiYcXpchiMLnr1ZjDeQwwnOONye26v3xIWFjZXAAEGXJGFpmoHVJpUvdkXnUK9/XD+A+B1kj8cW3IyaRM4Md6Qe2IexoAAECW7CU71Bv8OXlZwjDE/q6Scx+HUq04TGTLnuMdjABE2+/3sLrszMhSXqcPF1jnU50AMM8Yu30fRwA6Z14tv9yLc6ragz3tmj/J/y7GefBAJEBSL1sgNyu882s7HMMorgLFowzstx+ABnFQLJTOyY51fEtSmHca/hPYbi5X8laiVkNJG5hVa1LNmXRDJ2nbmZhJGeauN9YOdNR6cGAFl+8cE9w6ZnCXQHcjRl8GJ5iQJErSAKAFZzd9MpWmY274VubTxNrCtpgpg3q+8EsPRg0AL2XnhjTrArut/eo8ST06OqQ3BljRZER/xSp2Xm6V22Roedf4k026yx7CsmxrhGxlky5UWuiy4uiW1MEu8hVPjGq4c8bbcho1v0Qbosb6qcOxml6ErGQxABC7Xp871G4H/HB0acstJnVrwjeS5tfiqivjMYPoOJCCWjoWEFW9Oky2ZGOG1+ED3CG35N64mhUa4xvCH8umkKPkQZl5slXol8nWb5ttU6ZaKQc4hOjYs73a9QmkJ2fDmKW7oOCWoQgLuOMTc4+mSx+ZpTafTHP8YuqzI+FrYJlwEhey8GOPiQIp8+2qW6G8iAYiChdYyA+pqz+TgMIZj+vd3JyFxK21xfsJXcapyoHj8ZI0IjmUOlkw4E8evzDXQuzrrZtvAZWflVYdnYfw6vtUdHJ/lGknVJ+jkGqEqDPtTWcO0jlL4LuSjUQWFkd75hAbQe8beZcdTn1ufqaySrMFY/5vSbGQFK2/KsNDCeLMzFzQZYHT42IetgvnfIuRZ6eKUXQrLkIv9JS2aaSmWwQXmEMw6nNV/ubknpWb2BGtdbE22cnbzgK1HfHrh0qlGxUBE9Iqj+8TCTz7JHR5bF28zOI+J5k/cxx+WyL0P/f008AeO2lb0YZK5RPFIfPJOvuWwPRjlOC8uADbqlKc1fry09Ng76ExzuaAJohrxDLC02F/bgnMp0ehLYw3xtEASQEjBV7MhsHDR8xVLTMQ5H6aLCqAF8r3Stt2VXF9NOezMEuBAtnv+HKLzDMpmqdBSQ/+y2LIFyRRM7FgDkvbA86Y3/uTLqgZGa8Tv3Yreq927yU8mKGyVe4sgMpuSLfWC/ZdeFadnjbJY0gvZAruk3VboBoNDTRhssRIrKl3MXMxN4TBT3mxXuOFqrAOXHVijQ1b8wNvtObRCNhmaqiWCT6PwK7BMzWuv4nZ0AQ9Y4BO95VbIl4BmjBcFM+NW75fA2G3HQJ98pmv1xIkAAntxJQl7rUOnqNkDI/oWq3KSLwhM5OEf+/YGRoU2LezlNE73glDs+pfRJohsHkZfsk7pimSELJEwZrciilI7SP2MbmCLqoizQvK8SHT4xq9vj9qFnqI+mr9CDuppf5baGLv/39fELJDVYj1DPFs4qyvDucnZxXw8idUDMUNNo6taYvjBpnjQ0QWbwt8lc1euooJzfstqWHiu44wNIZvyTigjnvkQA38DUmf1Z8DNW+J391/T1sx0uS1/9KJu8He8dHyYQoH+DsXfaVCjFVVMaHi/GM/moMHnh4Lx/ntp2Y/10g54rqFQAq1rbvuo7ceFyPy8rFDZEr/KltuzpTmB6up2zAYd0Xhtu2NFHbMTiLIhLQq0He5LkRzY9bACmSzjs7gEXYodyHivOo9GvtdCoVRA5IptzdRO0WDD74yL3/j77eDDFcySbvE5WlQ7FDm9jbesSqPkY5jjlZqw/wiYEYzPpJj3cXz5G2yikvwkNh79/QYHbxfrcdJcAAAWRAPTh6fLKWE6noUtq5klzPknyPDPFEuHEVySiKtpuN+/M6kJv7E+9P/Ba0jqK4fg3wjh5d/ufxQdzUp1dyW0ZclLPJjdYS+ZbOVB4PX5h4RHWxoaDJ3U0mVHL82wAD/Q6QdMtMC+SaSVl13fzdWA6k4nNhehe2JLYS3GQ6sXnp066z2vhgU6mxenIaNKltvUeFvE1WxOEblSYEI0defhhI65VvRa2ZFaqQ2R1JG/gCrQanUxQN4zPZzP2p4dMu0z++pUwA2exLQ5QEksN8YN8x6NpomZLc0+AXRxow3qWYmf9mCMGS7jtE+Uxb4mSjrrqnC9pCUx4/tD/ec3H6s3x6UlEmIt+I0XueZdORVH2ptSaOwzTBS9M89TP2EitT+lelsYnna0BnqUPpn8e0tb8ny/nf/fYYish+8xmdBVB+z8bfv19GNyEAf3Pta/w+pbAgQy+xQHi9ah/jp3fXV/Nqmvpg+4wCmg/z7IlQ5+hvqwYbrgQfikc0A3Lb40O4v/oA/x6rR7pJxQxQy9Tq6ZGoNkwM8lTTQ4bJ07R5Bgz7Q1zNAVUpV3PC6g/qCwuX2tZhAusae7NjPdrbuhUAAAy+jeJR6vc1PDBdEiCYJoqxjUQNKyHDKgqI15ebhcvvu0M2xpyohOzsQQl+a8qe3ZCB1AT2fwNJhqnFHQ1ZMD2WmDvPxSdjRyjaVknKMLtTVbSPCaXktL0zI6w6VRlTBHdOhohn9YMlWCjgM5x/N4oV2rlOph+zZSfjDTy3SZrkosgAKhoX65SBcg1dKY+Hn6lBYaPVdzpkJttloVi/Hgw5PtxwqT7qklQ/GzLlze4+5StwFF5qKz+UIAZaNd04Ta1mU00TkuiCeiQ7p0Y+9JtaSfJmkXHZjurwWux59jTa3nuCYs9uIARON5GgJ5psAG3nXvLm+IxGDX1zUFSV0Ew1l7D1LQT00RJQJ2WqKzPGhTeoI4RkDCtCD2WeOVIoth6W3RIdoyzqv+RNGocLMqizmu3GjBPZGrOdCdHjtHIbxDnd/7MJ9oUSyCMB1gLf9JbyP2qNMJtmG6ZWl+eNJnHdF7E/eUTx3//bJjwE79hSahtH5JWU3m1JJa2fzEWT67fc81K07jZnnlC8uUV1d0MDUmXLngM53sHwkZZnWjnRbJPuBr1GRDdew5tWl4RFTcfPp6eTiuHHtrBIcPJJNLpIzEbHHSuJwCgh/oFfZANCim56pDf9Oza6jz49QYHCaAHw7/1AvRy7mEID+f2sHVn5IzvSfQ7TA8v/LLj81zlbPPJrtR8aHzmISwOdhOHHA9MEfJuPgpY1/PNnC9omBB7ZGoYWPUzRRwyay/BIgHn20++2rqAUphgjPkkQwZuxxmS2vvNXW3105AjJCqeDyHM0gjyFw5MlbXPYdh2PnS5GmsHkk1272JIqrLHII0l2335br7ei3ta5x1e6eGnqHEFnHudN0D6f/eRDvubffK9M0n5eeJQo22Q4Ct/zzjoBCi9tMyOo4LwXqhstLo16MV97D1jD2gC+L+xvR3Bb0SeQ6H3/LjcYGaDd1zYWbz17zyAKxpduhZWY52RQJBL+Mzb692jspODAgy5xOGasJau0Ij4tdgdRi0CPQQTapNF4VnpQHGFiiJEZI/GoiX/h3PGs8kG7tNmEQLz7cgaMKy63YjiUFB04NIgTMaA+NRN5LqeBuQi6yu442tL6ph3PO5kZinM3dc7wrJazDfBR4cjv+6mE0GWZSM0NuJVN+VqhsQSmUH6PEGwAgEeexZQYxh41pxmC29sc93fkhf6k31WgkUUcwGMyFcwoMtzXA72YQ3/EW99D7hkqAorUkNAfCCjmzTlFIabyMXwm0kj7f+Ct1eQXjBPf5FBTCdUL+goFMSrzl1ZWX+dQERwVyv7nN4fwIELCprEI1WNVNEUHkl4qw1U4wILi/puylnpfiks/fMkUUlQtbHZ2vCSSXsOypIucxfcxwgJRmBXyDrZOMB0EEYMeFIAHSrgA/y9Cvf1w8LODBqnci+loLSqn2mEktaeJaIDWr5MZO+trLmZf/Fu2O6aZwQFvw4SiVg4ak6EvHd+ybxr+wzZLPtVR2zVOERnU2kctTA+fCCErjNnLT/GUu2hz+NMCjbypy04QNtHbOFutcECMd2oQ20+ATGrjh6SB/55zOTJ+I9Dw23l7jyF+hLhE8xLssozWlU3wS6MoPsOFfRHgxtBfv/vnyevZf9YNlB6/FoAAAlPuymyCHdCw2Q29DBqZm0ZRjdsmA3Ldxpg6OjH3kJNChMiavXIGp9y8vxuRszv2F59gFEKg6tQyQEdvcW3mk07RqaJe96sgiM6FSzx4LmIsnQcffMYBgVkV5kpJirsEh9AAKvKMebi9khTZ0CSVqYdE+F98+SbUlS88H4O7xcZ7qnvDLL7LADStyq4LHPK8jwDa388QK+xydiy5RvN+Eewbt9aKHTPacL5hEXJmmBdJT6KSHi7t3KnuIwaSoF8WmM6B/NpiwaF5+jVHuMi5Q5EbyK6Jo0UdKjKauyN9cmUZsXe57TKKROqFTWfMAP8JcSa0TYUMkEcb+LozX8EaIJk5DXfd7XbPYZj/iaOxHutRPU8pPhqEDG8ghVHCPEXn2FovaTYSGL/rtX+oAa+6J57MK44qPKzCiFFZ4rXzIadkSezeaqYkda7LxYh5ATM7PGPvPAUIzEi9gEw5PQXFiDVorYt/Afh5hkQaUwOI7jvBoGoJ+AUGq7huyc2syMnIyXlKy+mxFXG4fqg1Med7+oPX+T2ORVJS8w68dpo3MAj7h4BpEWc881cLbH3sQvqmnprOl5xJE+skuPO8308Wxn8uOAh5Z6TNAqWT/mK1J2xRA065LtM5AjCISDa/lcI3cdYdRpD8tYOmVPPcD0d1s8rmuq2QIbGu2fXNFJQSnC9ywV+ZVoTU6g/YMXr+WrI9QCh6wfp3htAfXwCGpbUEL9dViQl8NM0sXDJscAG6HI9HoaJFeaCfLod9a14q2H5iocOf+q8fyGFXIJRZ3M7SmZZLFBupjzL+r/KAFSg6d8TVPi4fZ8fVIhZE77DNiSPP8m5tN7vR8NXeXcZr8yUB7In90Sii9FPZAZxFlcC/d6iRkawgbmid5i9Fx6ARY1oFsb9cy5ysVTFsWMLCRe59y6tiTTisrbLdf/8/IacfoJQZyqvqZPPLgc6SzMZreZF08rbuMRgB7NtzfWiSo4UoqJyOYKkn/+vnxD3SlGgCShVSHYsQltWDpuyGcfHeDuXJP/1Kcx6L4SsgoOLM/ya0TzTu0TnVZZAXwWlRujkfm0x5MEtu3Ddg6UBuJ65Hy3RGctY+w0VdxJQ3niJAZk1fEdDyExzrEl/U+vB/LI2GVsnaIQrDLNaRe+sJltj6gHcK7+ZJp9f0x4MLwH9AqWNP0F2vLCEY2xOgt8uaC2j15DOexCv/SydyZg9IRwPaZVfRG5h2GddT6I+1nNS+YXUx8d4A6VA10RUeAV+F9OLh6PEb6ZQ54C5xSdNgMEjSUy4JbUVM97sDXGYyW4vTeMpUcV/Vks2hihHiScdjw3QurBy0qZGr83dd023QgImiu/aXGYjlwtIMfYiHN75WeM1l9w4oH+zHGUD9pz7NMi6dbaPkIyMV4L/0DVZnQNVlc+h9gL4rS15n0tB05EKXsW/6hKidXst70JmeMwTo+Uf3HH39sBP/V4tZ3ANNOj8cy8Vd1vL9NmPm/qV+lWNAWfCgTUWZmsdOSru1zMfHVYwDreRRBzdwC/JsUI12Q7tbt32Asya8rDuo2ZIiVA7MowDhFSSgG6JtKBIZ117HBYL6opMsFwV6FbPRUlP4TRk0gqR7FPrtE0/lqIfCDOsTc1F1i3k2bfnGjOiU96a9RL70pV3zlCdQF4gV2nSN/Kd6e3aIm7nia/isXgxkA1txY5C9vBN9n9RuoMiLSMSe2N81cINzzVpx1e4WQ6K8lBU+bmH1604OZ0F3JrBcYOaLANMjjlkA3wdZkXc+bJv44arKKBvd8YHzsnD7HeBZk0JWUN+bI+FOfFLLJanJLSF89iXTy+InllYpvDbXj5aGfOjKy8WIeQEzNgGk0yhWCPyuBATXLyRS7U1Y9iROykmVQy5qz2qoVQzgtWbgJapLhetCpodsqhi4UAMDHxaCBRcu2H9FYGpQkpr7qSu/EVog3QkHERbWkG5pH/7AqZPfd7X6bGBU++pX61F/zKC3RMSeLWojZU+eg9tz/MSfomieUG7B2igHAABhfrUp40maF9EOf/mmTSLxMceDmLEGefwPFD8uGn24MkvaO2K+edHGa00DgujBHbba6MsdbKdOBX4Jh8HF3ljXrewqmpJnHdGD1ZftZKfRmYIjHWkYtXP7RIb14Nosr3SAFiT1xmMJAE8Vi6A7AkzkHcKlfqTZYWoFsbikMrpUdo6sRikIXuuw8ergjC11B5y+3K8TjS8buxUqwFm3HsK3fId7mdGS5GFfdurH7Egc0gwdAIPQDlGufdfTT5dR2d2bhHW7ipe3LTcEbsP3NHtZ75PRjOMvldVXzRoUgj/5dxhDVX3alA2macDIdrbPv6mg6f9LDTJsK80Z4FlqcPQmwNyDlbsgCf+Eejq+ij20+6QXtgqQ+NSkK3yxwMp4PIczZRvEdYwlzfN4T3tOWggIOVciuwUoUrpe9GcmyK2pA5fu2xzY+blEOcuzY7UvBbcYT4Et9siq7ugAFlOOSbCZ11tKT1kAEecPSp9E2W6xr4urSP+jQ5rzv+Wvc9ZMZcuytlSp+G3VSdRhZNTl3/s1t/RrzXSDkoO75EFKPXJYHjMPpka51df5xJ5hyLGYM39JqSKMdsX1K71h33zWDZPJEXphKtPfeOQWk/lcm8bmpaETqAFvvuAOqUH/t8iQdVM/GViIDcIKTpJMOqU983k35KMHiY0Bjk0URFyuPpkF73bo3pfd4BroEmEMQnmvz7huiwKQA/0bSUJwagMk+0moZIcedrxG9SzS/1M3tVDwGVaJV4UYdle37REh2eqaMKjDY1ZSmOnXsMmIep8b3pthzDMNWNEH7BK8lf941neRtuboMAVgtP1XUV3ifPymfvM2VPRux1Mt1MqwNri9r5rEXUNyOlSLKGjSKUVn6q6pT8n4IcHirARtcNaaMogF104Yy4BSHtuVWxHGzzCktn9PD1AO4CZ0i14gbsCAaUgJsKTwxZ58CepOuSh5Nt6nBSL4bl1n8ypgPJUTVx44Sq+geghB50FX0el8KKVJIE9yyAgtkzpJDj04mpt6BcCBYWq9MIhydgYBbGPz+1PQ2WOnrX03NZc/3Cf3yDGEKMSVGpVuzStqCq7kQb3DZkrASLbB1IKrfm+NtPNIN61lnrK7w6JJZbY/Jg20QanKGgTtkrEMEHOaXB3r2EYu54/mumKUy1uZWTKI6EAXsVewbzEijKXWImC8tcxj9UmH6KTXSNvmw/JQqfRhUAwpLd8TmNgHUmgqXnQ+jT1fz1glmlVzuMA/e6Ci8/r3y5Ipa5dcfkfofNAh2D07JEveW5fyEye/8bpTejQig94Ypb0U5QDKKtMrHg+B+HKy63l+BWRYKY2labN6PyT4Af1SwJx9xdy2lIjEcihXMUFwfQTPQNIr6DoQgUcgJdTkSullI/l5sos5UOqQuLr/PAGatejcXYzz/ULWWR6reQ/O+mfx48NJBtbK+WCK7wIInvHa5Ea+w6MtFloEfCMVntPZXbI0EpjCgx9YHCqo2otRhFg3VmZxaaLzp36dOZET05zSCiAQ8MnBrEAj35XbjyGM6s9M7zx6pPEmKxoUpvVi51cuLVkPM0q7bc6xo6wwyBFISVqOYeUyGVaoeUTQL4sWBdXeMY12creLeKbE4UqTxJWp8GCezQgloHfuBpzLUBTMihJ1bA6JE2rI6YfgD7Dp3eXCW4YFn/Nv2usx8PiAV17LDnrTI59TQzqMY2HbcrzQDTSl+FyMwaUtuFPW+230oBHnXvC+xZzpjA5lWoAa4ugFUmej2bx5f9h92tXb7uI6L/eKusVdbyjMgm+5UJz0IxE56gm6nzPfYIN9T1M8TkLgMw8eRBXoR0q8VPz5xMEtaRqfyN4JvGoyOs8IUwSu4f/ogdVo6AB+LntTojATMDf5HAPSa+qRcLrzwhaMeflsEMT38rRjlN3CuAgdefwi9HfL+ZRsThIXJc0v5yC5w+Vmcq+OH/lpBvZQRl8GmOyFmCjV6ebLcm9yeGl6bRVDeBTOdSlz6E3rXfgKHkyicf9flXz+OPYPxHRpxiwuXHbLtdAVbOYRS6Jbbblxf9mY9lDx7EaqgpSnMlUS4XsxQpIUFlNSeEcst0s0vc0LJARbeHf29UqLo25foMlhy/+o7U8fRQQjHKgqkedxEPSTc8sfw1R+17nTuOczvvzFS+6gsqMMVZI1llObRH3NcwPoqCGGGGosWVBxDAvMyqXWqTgKl28/VxGsK9K0IXt7ekv+SlTK6ICE/TGy61ctmGRmPRtybee6M3ULwLJ53q3+JaITQ+D4CaW9Q9sobm4xy6tBGy0XHjfiCey4nX3E12HrhimgvwYAY9/fJrRtIfz9/+Fms8lyb32ExBtDx1QWlASthgx/voM755J207bAel396MgkNfolj2BT9O8XV35PcZXhcBVR0o7AiJt96RC1V10ancZnD/WUo8/gc1X7LbP29fGvK3ydT1ENlqGKlpqYAKdqGR8nsBoomdDGrTbNPp7mSh8UzSl+xejr2LkZUV8MJJqxmc3aowf/GhmvcXI6CCdV6zGHXEY21XXmJ/wjlDg0i4wKjR9D66iISB7NQ48BusEoGQCsd6otNmxBs8gRrwjmopt1gcnjT3joHYCpFtKMqqpW5Zg+ABLTO//E9TZa50ugwr6vt3dEyyAzGpjPoCoVIbqD+H/n5WwlxY6RqFHoqtJwpYrVpOwUJk1oM8LYeSksIh01aj1Ukd2bf+4ML8rYhhQHtVmqGDzWkXEDTorbPwkSX6M3ipmBO9nV6GdHE+E45RQU8vyZ/ozUw0f9IQg6DXsDNdBo7KHPLfek7yspERDjLxnvGwR4X9xCvTAU+f1Olm2ShswVyS8BvAVl0b/3g5PXsFSLqc1mMJToBrkTB+STU8N1k4mJxQu7GFz1yIr8befiu1kWrpzKGQFwC6ViRLRg7YxR37nPay6SOjJe7nQlrSLkQ1Tigs/uxOYSZ8ro+SmtlIIo8SPkO0YT4yCzkxEGnahseLJt4SPTAwvrEASSDNYYGKD1w17xiCPui/auCnqoDj0kPYXwQ2xB5m7HT6KPknPOME+u8e99VwwCoPfw28Ohdbpc+PVAWsDyohtid6XVLsQKNkhIeu168zS+WVUeEICYk5cdcdvCqLAg2O+DHVMKi3k0ynzOk16u+wdD5CXepBE7F1it/vSjsaW/iQTjZOZi5lwTANibVBTt5EuPFlF0oAj324iLrgP2ptTrkh4KW5AhSv+RLE8ZVgroByhEOircd9JFekZTRjwkqRL//PtDHTlsPSihsAzKQI8EKo4aKBT1hwMJq0vLomRKem1SRDZ05I9fRB3Ws77LtJ9Ln4Yn8of8bNoacUYlJ+tGp538QIANiei9PbmZsQmN2Q6yaHujfHSQcowf/Cv4nflRi9ATJ8O8StzI4f9AESzaugIxqct+JsReUehypUqwJwT9sFdjBO8B1yopgWBrfwfjPKW9rCyQZulzBerqRaTcQ7vopxkuVKiHZ4v8Lhd9kMWWmldKR1QzfOyAt653qQH5V8Zl1AguHZdoOJv6yRobY9WRTyYlXtBJP204PfcDDUbP3yf58xRtDJ2ibnUYTqKE3R59xVP1A1cORglyiTbej9PhOG2QB0AkaPgBjQRFPhjN7NueNj6gtVRcLYtdjywqzZg8AMineJzOqkr1ktqRg0n0pW42ICFg/5ihYHakwcnKPILRP4/gTrnKxdUT39Cl41OJGJFAC2a1sJXXKjbRDhURXi5yyizVYPG0vlcp1ou2AVaRfUiOY/21f+Kh4XE4JHMscTuwWl4ES63gYL7a8IERdXAKiG7Ut8Lcaauw1+dxEGHvnwQfK5Co1qEGADF0gyX+hqd2G7xO1cYHiR8yfvSNUaeQ1IQBVbtm5XEYcNgPh2aXDUJvNqs6uuWIo5zFkmKtbwiNUi7yf6oK+luRwQ3JQ6p46JJYvXZTFohcYDHPIyU1INlNaMbillGkH5PD9iKQZBkv2mLkTCZ2FKc5p+dCasxrVcAqKGl9u3iPSg94AB4nGNIJxl/7Q/UN7v7O4+dJnoZfi1pOZ+rxVna5V4Kr6ntVBAX8AMXgxoF80DN0uuWAQW5y3E5DK0XhFDKe8cSrohTVncjQY0bJ8kWc5aK/1mpl4Qgbx2cQYiZRu2BliSzQKNu/P2hJt2oP+egEaYUXca2AOcWeUrIEAc0jdqCptiZse5gMeNVEy1DlX4tDkX+0welXRChWBZWIAArVZTvB+1RBBzhwnWp9N7Q7psi0PM8S1NFjgm+p96phMDi+ecAw0li8F8wbCkyBD3aTJLe2pZ0M5mGQZfiD1s3zCvk84ZIRxNT81l3r+QM0cQ9qExqkEAfvXTEnYTUDSq2xEVD3BNTIRY7W/LcDbIAm3Q4i/GAMujTkKS3QaNJocWBJZT+WIHm6NmvNdSPIIXqT+UzAHnomjOR82fYYzyTjSKjODA2kisZ05IuJzKjg6101wbxmJikQv+1KIsLAtrxV6jNfE0ACs5k85EkThwkndT9/j/1+DdqZVyKqm3fX5XiDSTwStQ5lmVAQt7lpSdX4jBiWuo3znkUulfhDxJcWaJKtqf1VhYydYOfOq7YsQZ0RdaZBbm09usfu/I7znI3YH8Ia3E05FFUDGEaFKmEeLw3asVFaKbdqOQqv3u2ietU5JPeFxl9g2VzM67VbzWqj1hP7/vjotcV0QVX8Y3dbhzunQbiCFuqfgdh3FsAPr3u/42ORX/WNrbOblHZ1IsvPeowIf4h+IqyXvsEMk595SB+LNjwyX4Rfc2hbRY5+3dxV9pl2tmQI2N/TF2W96iMqc91qkM85bxW10LrJE7nv8k3Ry6NxsWvbPkVvp9LxzyR9VBZDs7IgqD3cmBY9NHQow9mwjO4u22gFLFE9K2SnfAcomMzqBBmvoMamGYPWnX/O9XFcRfQ3kMl8O8F6P7gF+uYwIrLW57bucN00D2HkuKiCMjTczb6hTePzlrBhBSHYieGDXHV7hmDMDt/SuI81sqAufDJfRbPo2+gLoQU80JXjmhaDUtQpx+6GrnzR+k8JP5GftMJRdmJ9AUiXWHHhOJ5fAQfdaa5wpyaH6VDbDfBYDcLnHGg/x8vdftOaj65hMHvGSeSXib9ADyBrEjhgGswmUxlLvljWDrIg9aJE0nDJNhLLXogWi3sJyt2NDr8kXNr1tWCyEaO8pF6E27RqFlkKfAtu15Rxf4523IgTkKCu/M2HdDUW4rJhToNjO3sm+Yuoa1rlxUOQP8mwTdo5Puytxr5QYkeHLjvfCNuxyZ9rPgFhnDG8eMi+/EAuJx8WgtGsleJNC83oFGy/mhnAoH7wThokNVpiT2P4M8qFK/NH3uFcrpvt34oE5BgHVETSYpoQT7Sxeu+10AyKeWGiWpJqk3CdbdYg3KHbuRvRnk8H0L83ATFtvowalaNG4PULfb5VnVCPPlqRqZcVqfXuKrJk5nOS9H97oEPZ3Uff0TYnihauch9QU36W9dSbofGynZkMmqAdXG8JP0W5oE3GjZod5DNkSgYujvqPFozYpLqoScTNkVKtb8MoC+uQXF2MUrWPe0KUoDmS7KnSzIE92TovGN18ZAaHlHB8dCR/q3xJtT+4VDDqyngZlBZ/jz2RcnQQrUhSP4ml1jG0zTZ1WbKUzqSnLQRVvtMXImXAcxvz6YsqHxV7h3W0v4dsbUQ8maUch8RDuT1cjHwytWd7/78Hf27UU8HjFZwb9kCIxzsAyKjLTlK1ovETJznToP+occ2lTFbABPxb/3jjVjnbveRS/di8jxnaq+Nk043TqzEHE/i0VZTkuNEZd0vqgi/QJT1lqVe/QZHAxGplasljg9VFWN1KJPYeEKYvRNEurHDVaIF1doAhzRYfDdUwnxVQYGPSk9cdiliFnN5qmhWPRVJtUktMl4wlgck30u00StlyhUhjsqLM2o6DhGfNyigoppII8PEj/q8mibXGnjNipSqS2aN+U65RUBnLfBr2LD2t4z0WEAEoWF3bjIlYdWeMYYQQsw8yWKt/orJVw3ecdG8XQ4Zed6hf5gVH4/gUoklqIHJpnNaPdJlyKZea0gqxdPTuycSpCwVGIEmeWIRvLmx+ZGYiSdACSOXPjgSv+bpvKVHbjNvoP6Ap6p80B5VJphsl2rp22jqu0j6dY+wbPDhZ2YegorbxXOrbs1Dbj/PL8e4VYqCnxXdsW17HxsW02AHp5Tzq13KI6KfEk/ZcZ2ioSEMtcW2tpy4uzZ37v8h4GXVRMLy6VG+62je3UjvOi4rzkIVlM4DZVlC8tt2/vJ7vRzARDGi8M2uW7/aFeWPPYPEMTsgmAxFhNYUuBDITlQfJcYLTvgWxiXUu2wOYkPIuhyVblcUBLXEdYd7qkVJW+5/mb/8P7x+zpjNnZWAYJY/4UN95ARgqDZcVRRSq9kvsCWJx9RyyGUr2fAcrVK0fLun/AuMdUkBlfh/akLhMEYZE/6pzpERlZss4J0qR8Bp0Ty/wJgGrqnZ0aNoWrMfhq+24TUD5PifIGqPUKZI9UpFtcYCt7DoggK9qeXYwqWOesVdLm8yaT5roLUz68kilveqor1Hsym7TxFv8k1vhWIpSbTNKEIL3XqYZ5jrfFbA6VtPn1XH86zzwrrB8kOznaDWsrxj8aQxI/uxbLfAerdZLG6/eIRWlryUZTRpxrxVVIzIZwK5pqXbfnjLfjMt3iq2+sGSCyKeQf8p/gxdJn/wNViKy6Vfwjb6lryM999Lzn9+/slpcUvcx2K7iX0mYv0I3RRjpVubcy/V2f5VRe5QRMFOtKd0u0z4LyfidYMOztPlNnH/Gi8aF5KC5UxlYHDaB7E+WFKKtio4YpEid072mZleK+ayEGcdmPigws4eiWI4PXcsDJWaBw2t2Hwd44y1yelMQ0K7ErxG9pH/MCBCt0AP+4lQRLTZdrkgCCAev2HCILOSkFPngBSnhKVniCuo8ZqybHmiYo3RF3wXGiCFHl5OZ44jn+6MrNvzTW+jK7UWfByd6CZet0SEkp2umlDJT2f1pWk9lW1J13PP9oQLU7yKPOnRAjB/OqAVflADwHglZCoCHEQ7IiXUlL6H+rfZNycBtVU1ymlu3zQCk1dfm2dv2tD4xqZX7VAgAFvfsFxiSuXxxdlA+lUia3jxg0QOTG6PEjdSD+7KRViw77SIt7OWYJGQtIftbNwVhSi0bI4uFrAFb4AAAAAAWjr2LiAZUW9CCmpJMt+LaGBKGNkrgbc5EFJdlG2xwt7BVi9155cLKJy8j49fLGg7u8KF9/rR18Pvm86Q4q6XeLIsoCSF/wLLEJeKDmWSBJ6RarO9rmm8gfj9uKusQVyCs1pMi9Giq2yJl+gjdxS8AGLNf002iw2ZrN8+qs9dp0ec0l2lhG44kXAFppPBL6AWFt0r1gbZVc3q5bXp2NRVMFMEMM+Gya2a46QJcJ308QlqwgEI8xY1iXzzb1TGCmBqJQJvQcgz7gyd8b54gt297PsOEhYwl5Bzn/EOV5dPeyUULnaDmde5ALmC9rIAVUlw4EZyhtz1QGifE+xM2o7b4aWD3rMlaqe4pi1i/5AMWJSTLHOtBlk1g0sqbPF8gDguslhwubd7wUdaiQ+LHKLvl3boNpUZPTXV3AufVvtqCLPZjvJVqPLqeCXFmO5uOAfpzT9RerOok2cZbO6VkaUoMtkEx+G6N4Hf7OzRMIHnCuWP7Si9wZ/QAAAmBlJPdhUDX5YWbAkFxTuPTRN7KAz9MrzUnm/SzoK6KeCd8D5fFoAsKISSj4WlAZh0TTfuZ9nS3ysgJJWVVsuXkuXfvtXGap7p6QsamWWdj71J0H3ObOv5zcOhiO+Q0YC8wsXlE6flo9u85OhHOLs1KCF4yHZzgk9tvEy9/I4XFTiIwTs1b6W5L2C4qhCD9b3uFahqEUlVYQrTjVfY+8Z7BA9B+xP9q3eXHITTyzadKsjv7smlKbjsHlWhHjl7BOBp5B9NLZBG2QPgEMhoH1l4feDu7iziq1JbMqz3r+eXq5/e4Mi83ojcUJHCM2ziHwk2FE8G4EtTpNE3MThaaX14q2J4olnCyHCz/VqDnu5922cMBfEgg+OHIA/yFRm3t0djtm/d4cRTJwCz4OFgW2vETh03A0JxLDFZ6oNM5ictJx3JZLjiGtCaItV2nUDwmZuzLkJE43bGcrin1aKQiUxahNwkm22BDYEAAAAKNFigzFKH/8AHGxEbziLjKJcbgq0PdeF43VOPMQjFi3Hv4qpzd55fRyrbB9kM2yraVe+jYmjT2K9m4QP0XfAkkaSnG0IJiMrr6RAvnomSJjj88U2ruEC33Dc+niNX7y3TaithJep7uagjiYV5DQBxyXPdvZk7TliB+dCr1Ixt3KRgNRbm93a9wqFkvbwZ+Rtj0xPDUrT/qqd80ya7xYQ9H3boWMr8qau9RwR4nlOqxJ1oSYnGdFgPoBDxNezILQn+0mOICLGG0bFmtszTgPaD4Uoz7knzaVhBPzp1OjKDjdYp1iY46cyfI4YZ2E/XSgVDyJp+AAAAAAAAAAAAA=;" parent="1" vertex="1">
          <mxGeometry x="1051.75" y="320" width="186.5" height="186.5" as="geometry" />
        </mxCell>
        <mxCell id="4rz4LA_L3pTO9ttwV80M-30" value="Banco de dados Oracle" style="text;html=1;align=center;verticalAlign=middle;whiteSpace=wrap;rounded=0;fontSize=17;" parent="1" vertex="1">
          <mxGeometry x="1056" y="226.5" width="185" height="30" as="geometry" />
        </mxCell>
        <mxCell id="4rz4LA_L3pTO9ttwV80M-33" value="" style="shape=image;verticalLabelPosition=bottom;labelBackgroundColor=default;verticalAlign=top;aspect=fixed;imageAspect=0;image=data:image/png,iVBORw0KGgoAAAANSUhEUgAABLAAAASwCAMAAADc/0P9AAAABGdBTUEAALGPC/xhBQAAACBjSFJNAAB6JgAAgIQAAPoAAACA6AAAdTAAAOpgAAA6mAAAF3CculE8AAAC31BMVEVRK9To5Pn////+/f94Wt6olepdOtdjQdjRxvSMcuLg2fdUL9Wgi+j49/1oR9rOw/Pv6/tdOde4qe15XN7h2vikkOj5+P1pSNrTyfRSLNSPd+Px7vxfPNe7re7+/v9+Yt/l3/lWMtWnlOn6+f5tTdvUy/STe+Ty7/xgPdi/se9/ZN/m4PmqmOr7+v5uTtvWzfWWf+X18/zCtfCEaeHq5fpZNNaunOv8/P5yU9za0vZTLdWZg+b18/1jQdnGufGGbOHr5vpZNdaxoOz9/f5zVdz08vze1/fIvPGIbuHc1PaUfOWxn+ydh+f39v1nRtnNwfOIbuLu6vtbN9e1pO3Kv/LXzvWKcOKeiefNwvOyoeyGa+FSLdTZ0faql+peO9f39f1fPNhsTNt2WN2AZODv7Pvm4fmbhuaVfeVVMNXk3/idiOfZ0Pamk+mrmeplQ9mwn+ujj+i0pOxULtWFauG5qe69ru+1pe3CtPBaNtbr5/pyVNzGuvGDaeDb0/bLwPLPxfNhP9iYgebd1feplupWMdXi3Ph0Vd3g2vd7Xt7c1fbi2/i6q+7j3fjt6frKvvLn4vllRNn29P3Y0PVwUNz8+/5XMtZ9YN/x7vuMc+Pw7fuQeOSijehqSdp0Vt3TyvSzouxYM9aDaODEt/BhPtjz8fyVfuXSyPRrS9r6+P7Vy/Xz8Px3Wd23qO1bN9bs6PqJb+LIvPJuT9tiQNiahObRx/RvUNt8X9+8ru6OdeOfiudwUdyBZuDBs/BcONekkOne1vd1V92hjOiXgeVsS9u5qu6LcuLJvfKolemchueTfOStm+u+sO+Qd+RmRdmXgOVxUtzo4/mCZ+DDtvBqStrf2Pe3p+2lkel7X97t6fuNdOOvnuvAs++SeuTQxvPp5PrFuPGmkumijuh3Wt2KceLXz/Wsmuu9r++bheaReeS7rO62pu2zo+zHu/GunetoRtrMwfJ5W959Yd/Asu96Xd5kQtmvqkxgAAAAAWJLR0QCZgt8ZAAAAAd0SU1FB+QFGAQQBrjkHIwAABYHSURBVHja7d37n9V1ncDxj2dIUm6iSQ6XQUBRVLwl4I6AwiSmAQpqZWOQKImVomi7IpameCO8oOBldV10TTFX3dRNs1QUy9zUzCxb090yt91s23W3/QMWNRNwRM57Ot/P+fJ9Pn//fAbm+3m/Ht8z8z1nUgIAAAAAAAAAAAAAAAAAAAAAAAAAAAAAAAAAAAAAAAAAAAAAAAAAAAAAAAAAAAAAAAAAAAAAAAAAAAAAAAAAAAAAAAAAAAAAAAAAAAAAAAAAAAAAAAAAAAAAAAAAAAAAAAAAAAAAAAAAAAAAAAAAAAAAAAAAAAAAAAAAAAAAAAAAAAAAAAAAAAAAAAAAAAAAAAAAAAAAAAAAAAAAAAAAAAAAAAAAAAAAAAAAAAAAAAAAAAAAAAAAAAAAAAAAAAAAAAAAAAAAAAAAAAAAAAAAAAAAAAAAAAAAAAAAAAAAAAAAAAAAAAAAAAAAAAAAAAAAAAAAAAAAAAAAAAAAAAAAAAAAAAAAAAAAAAAAAAAAAAAAAAAAAAAAAAAAAAAAAAAAAAAAAAAAAAAAAAAAAAAAAAAAAAAAAAAAAAAAAAAAAAAAAAAAAAAAAAAAAAAAAAAAAAAAAAAAAAAAAAAAAAAAAAAAAAAAAAAAAAAAAAAAAAAAAAAAAAAAAAAAAAAAAAAAAAAAAAAAAAAAAAAAAAAAAAAAAAAAAAAAAAAAAAAAAAAAAAAAAAAAAAAAAAAAAAAAAAAAAAAAAAAAAAAAAAAAAAAAAAAAAAAAAAAAAAAAAAAAAAAAAAAAAAAAAAAAAAAAAAAAAAAAAAAAAAAAAAAAAAAAAAAAAAAAAAAAAAAAAAAAAAAAAAAAAAAAAAAAqmOLWlRLj6b8D32g3v/Hlt3+kj1rzW+L9/rHf7C2mdvKkAvWm7buJViCJViUJFi13oIlWIJFWYLVp69gCZZgUZJg1foJlmAJFmUJVjMeBsESLMESrK5t01+wBEuwKEmwatsKlmAJFmUJVst2giVYgkVJglX7UC/BEizBoiTBqm0vWIIlWJQlWAM+LFiCJViUJFi1HVoFS7AEi5IEqzZQsARLsChLsAYNFizBEixKEqzaEMESLMGiLMFqGypYgiVYlCRYtR2HCZZgCRYlCVZtuGAJlmBRlmCN2EmwBEuwKEmwaju3CpZgCRYlCVZtpGAJlmBRlmDtsqtgCZZgUZJg1UYJlmAJFmUJVm03wRIswaIswdp9mGAJlmBRkmDV9hAswRIsyhKs0XsKlmAJFiUJVm2vVsESLMGiJMGq7S1YgiVYlCVY+/QULMESLEoSrNq+giVYgkVZglX7iGAJlmBRlmDtN0awBEuwKEmwamMFS7AEi7IEa9z+giVYgkVJglX7i3bBEizBoiTBqh0gWIIlWJQlWOMnCJZgCRYlCVZtomAJlmBRlmDVDhQswRIsyhKsgyYJlmAJFiUJVm2yYAmWYFGWYHV8VLA2rs/BBZvyXv/4Qxrz9UbU/z1p0P/8Y4ZcsN7Poe2CtVGHbe7n6uP1/3bZMJIrWLWpgiVYgkVZgjVtumAJlmBRkmDVDhcswRIsyhKs2hGCJViCRVmCNWOmYAmWYFGSYNWOFCzBEizKEqyWHoIlWIJFSYJV27qXYAmWYFGSYNV6C5ZgCRZlCVafvoIlWIJFSYJV6ydYgiVYlCVYOd4pL1iChWDFbNNfsARLsChJsGrbCpZgCRZlCVbLdoIlWIJFSYJV+1AvwRIswaIkwaptL1iCJViUJVgDPixYgiVYlCRYtR1aBUuwBIscwTrq6PqHc6BgCZZgkSNYn+jbUvdJHDRYsARLsMgQrE+mT9U/nUMES7AEiwzBOiZ9uv7pbBsqWIIlWBQfrImpM/Bj+h2HCZZgCRaFB+vYlHoHflM4XLAES7AoPFgzUhqzS/3zOWInwRIswaLoYI1rTekzgVusnVsFS7AEi4KDVRuT0qzZgWKNFCzBEiyKDlbPtWuOCQRrl88KlmAJFgUH67i1az47PlCsUYIlWIJFwcGaE4rCG3YTLMESLIoN1vFvLJp0QiBYc4cJlmAJFoUG6xNvrvpc5BZrD8ESLMGi0GCd+OaqeScFgjV6T8ESLMGiyGB9/q1lu0Vusb7QKViCJVgUGKwv/nHdxEix9hYswRIsCgzWyX9cd0rk6dF9egqWYAkWxQVr/tsLT43cYu0rWIIlWBQXrNPeXrhgSqRYpwuWYAkWhQXrjD+tnNMRCNZ+YwRLsASLooL1pXeW/mXkFmusYAmWYFFUsP7qnaVnLgwEa9xZgiVYgkVBwVq0ztqzI7dYX24XLMESLIoJ1lfWXbwoUqwDBEuwBItignXOuovPPTgQrPETBEuwBItCgrXzequ/GrnFmihYgiVYFBKsL6y3unOvSLEOFCzBEiyKCNZ56y/fc3QgWAdNEizBEiwKCNaUDdafH7nFmixYgiVYFBCsrTdYv/iCQLA6LhQswRIsGh+sizbc4OK2QLEuaRcswRIsGh6sJe/a4WuRF4VTBUuwBIuGB2vpu3aYeWkgWNOmC5ZgCRaNDtZJ795iq8gt1uGCJViCRaODtXsXe1wWKdYRgiVYgkWDg3V5F3tcsSwQrBkzBUuwBIvGBmuLrjaZGrnFOlKwBEuwaGyw9utqk84rA8Fq6SFYgiVYNDRYC7vc5arlgWJd1EuwBEuwaGSwLu16m7GRF4W9BUuwBItGBmtG19usmBsIVp++giVYgkUDg3XCe+xzdeQdOv0ES7AEiwYG65r32mhU5EXhtYIlWIJFhmDNui4QrG36C5ZgCRbFByv9deQWa1vBEizBIkOw0jmRh7G2EyzBEiwyBGv6tECxlvQSLMESLIoPVro+8qJwe8ESLMEiQ7AWnBcI1oAbBEuwBIvig5X+piNQrBtbBUuwBIvig5X+NvKicKBgCZZgkSFYK7cIBGvQYMESLMGi+GClmyK3WEMES7AEiwzBSjcHgtU2VLAES7DIEKy/uyVQrB2HCZZgGUaKD1b6euRF4XDBEizDSIZgtd4aCNaInQRLsKD4YKXbVgWKdXurYAkWFB+sNDzyonCkYAkWZAjWvCWBYH1jV8ESLCg+WOmOlkCxRgmWYEGGYKW/j7wo3E2wBAsyBOvOuwLBmjtMsAQLig9Wujtyi7WHYAkWZAhW+odAsEZ/U7AECzIE656DA8U6tlOwBAuKD1a6N/KicG/BEizIEKzOowPB2qdnVYK1+9HFuE+wEKxN8Y+jA8XatyrBKsoAwUKwNsnJkQE7XbAECzIEa/HSwIDtN0awBAuKD1b6VltgwsYKlmBBhmCl+wMTNu4swRIsyBCsLU8IjNiX2wVLsKD4YKUHIjN2gGAJFmQIVjoqMGPjJwiWYEGGYF0xOzBkEwVLsCBDsNK3I1N2oGAJFmQIVvslgSk7aJJgCRYUH6z04PLAmE0WLMGCDMFK8wNj1nGhYAkWZAjWyssDc3ZJu2AJFhQfrPSdyKBNFSzBggzBSt8NDNq06YIlWJAhWIOvCUza4YIlWJAhWGlkZNSOECzBggzBSh8MjNqMhwRLsCBDsG4YEJi1IwVLsCBDsNLDgVlr6SFYggUZgrXgkcCwXdRLsAQLig9WWt0RmLZHBUuwIEOw0pGBaevTV7AECzIE68yFgXHrJ1iCBRmClc6OzNtWgiVYkCFYaWJg3rbpL1iCBRmCde4tgYHbVrAECzIEKz0WeRhrO8ESLMgQrNa9AhO3ZJ5gCRYUH6y0ZlVg5B4WLMGCDMGqPyZrjVgjWIIFGYI174LAzN3YKliCBcUHK13cFhi6gYIlWJAhWOnxwNANGixYggUZgjXz0sDUDREswYIMwUrfC0xd21DBEizIEKz0/cDY7ThMsAQLMgTrlGWBuXtCsAQLMgQr/SDyMNZOgiVYkCFYnVcGBu/2VsESLCg+WOmq5YHJe1KwBAsyBCv9U2DyvrHrZhWsVbOLcZ1gIVjdtGJuoFijNqtgHba5nyvBYrMJVro68g6d3QRLsBCsDMFKPwwEa+4KwRIsBCtDsGZdFyjWHoIlWAhWhmClpwLBGv1NwRIsBCtDsNI5gWId2ylYgoVgZQjW09MCxXpGsAQLwcoQrHR9IFj79BQswUKwMgRrwXmBYu0rWIKFYGUIVvrRuECxThcswUKwMgQrHRMI1n5jBEuwEKwMwVr5bKBYYwVLsBCsDMFKPw4Ea9xZgiVYCFaGYKXnAsX6crtgCRaClSFYgwcFinWvYAkWgpUhWOnEQLDGTxAswUKwMgSr9b5AsRYJlmAhWBmClX6yKlCsAwVLsBCsDMFKXwwE66BJgiVYCFaGYC14PlCsyYIlWAhWhmClO1rqH/eOCwVLsBCsDMFKPw3cYj2/QLAEC8HKEKw77woU6/OCJVgIVoZgpdMDwZo2XbAEC8HKEKx0SKBYlwmWYCFYOYJ1z8GBYt0tWIKFYGUIVro3EKwZD3W913DBEiwEq5HB6jw6UKwju97rZ4IlWAhWI4OVjhtR/8y39Ohyq+0FS7AQrIYGK+0RuMW6qFdXO10vWIKFYDU2WIuXBor1aFc79RYswUKwGhus9EJb/VPfp28XG31bsAQLwWpwsNKQwC1Wvy72mSpYgoVgNTpYM38eKNa1797nc4IlWAhWo4OV/jkQrG36v2ubAwRLsBCshgcrHRUo1hnv2uWrgiVYCFbjg3XF7MDDWNttuMszgiVYCFbjg1X/L/jWWjJvg01OFCzBQrAKCFb7oYFiPbzBJiMFS7AQrAKClR5cXv/oj1iz/h4PCJZgIVhFBCu9GLjFurF1vS0+JliChWAVEqyVlweK9dR6W3xHsAQLwSokWGlo4B06gwavu8MLgiVYCFYxwUq/CNxi3b/uBnMES7AQrIKCNeua+qe/beg6G1wlWIKFYBUUrPRS4BZrx2HvrL9BsAQLwSoqWOnlQLGeeGf5BMESLASrsGDdMKBbD2NtKViChWAVFqz6P5V9rdv/9DDWCsESLASruGAteCRQrJfeXt3aJliChWAVFqw0pyPwMNast1dPEyzBQrCKC1Y6rTsPYy0ULMFCsAoM1ph/6cbDWM8LlmAhWAUGK50deRhr8VtrdxAswUKwigxW+tdAsX751tJFgiVYCFahwTr3lvDDWF8TLMFCsAoNVnos/MlYYwVLsBCsYoPVemugWAPfWPkrwRIsBKvYYKXbVgU/GWtvwRIsBKvgYKUnArdYj69dd7dgCRaCVXSw5l1QfwdaVqe0WrAEC8EqOljplZb6Q3BlaxosWIKFYBUerHRG4EXhAyktEyzBQrAKD9ZDM+ovwV1j0kWCJVgIVuHBSr8O3GI9nI4SLMFCsIoPVvp+/SnYZ9ZpgiVYCFaGYJ2yrP4WTH5YsAQLwcoQrPSDWsMJlmAhWH8ena8KlmBBSYKVrlouWIIFJQlW+jfBEiwoS7AWnyRYggUlCVa6uk2wBAtKEqz0G8ESLChLsLa8TrAEC0oSrDRQsAQLyhKs9BXBEiwoS7Ceni1YggUlCVZ6VLAEC8oSrAWXCJZgQUmClX40TrAEi7IZs7iiwUqTBUuwKIt5PXrfv/PC8W9c11suf/mMf9+/vWrBWvmsYAkWZXDnf3xqwIZXd9miX6+oVLDSjwVLsGh+a377Hn8Cedlp06sUrLSvYAkWTa7vxI38cb5xoyZUKFiDBwmWYNHMhp2/auMXefap8yoTrHSiYAkWTey459//Ml9yQ2WC1XqfYAkWTeupaZt0nb9XlWCln6wSLMGiSU3dxA+ua/tAVYKVfilYgkVTan1t0y/15NaKBGvBFMESLJrR/Hqu9e8qEqw0p0OwBIvmc359F/v8igQrvbaZBGvG0jw+Llg0wLX1Xu0nKxKsO+/aPIKVy82CxZ/fmvH1Xu1VF1YjWOkjgiVYNJdeW9d/EueurEaw0n8KlmDRVLaPHMXfVyRY9xwsWIJFE/mvAZGjOG7/agQrHSBYgkUTGRI7i/9dkWB17iVYgkXTOGV08DDOqUaw0poRgiVYNIv50cM4sSLBSp8RLMGiSbTPiB7G0YMrEqzFSwVLsGgO3fgo4HsrEqz0QptgCRZNoRtvPulXlWCl3wqWYNEUlsRPY595VQnWzJ8LlmDRBGZ159XO61UJVv1vthQswaIBLu7OcXymMsFKlwmWYJFft/7SwvzqBOuK2YIlWGR3cneO4yHVCVb6pGAJFtl16xPqdqhQsDqvFCzBIrffdOc4HlqhYKUHlwuWYJHZc905jhdUKVjp94IlWLjDKkuwVlwuWIKFn2GVJFjpf9oES7DIym8J6/C/giVYZHVYd47jixUL1qxrBEuwyOkP3TmOX69YsNJLgiVY5NS/pRvH8Y6qBSu9LFiCRU5T4qdx2YLKBWv6NMESLDI6Jn4aL0uVC1Y6VbAEi4y+FT+NT1YwWAseESzBIp/WZ6OHcdqZFQxWWt0hWIJFPsOjh/FLqYrBSr8TLMEin1nLYmex47hqBmvMFoIlWOQTfFPvD1M1g5VuEizBIuMt1qDIUZz9dFWDlW4WLMEin9Dz21NTZYN17i2CJVhk03pO/Sfx1fbqBis9I1iCRT673lXv1T7h/1KFg9V6q2AJFvm8Prq+i7384lTlYKXbVgmWYJHP3XU9DtnyQKp2sNITgiVYZDSyjk/TbHsmVT1Y8y4QLMEio8fGbfLrwZGp8sFKr7QIlmCR0fHjN+1CL7spCVZK2wqWYJHTVUs25To/clwSrLXuvFSwBIucVvz0fX+Q1TJ/Xve+xu3P1ufQpv1uHfFszEPd/sq7LiyN14q6Gj+r+5+2xMCX3+pXN96rY1/xPQKaRefArTeSqyN8g4CmcvyiAV2+5P/uH3xvgKYz6dohS9f7aVbHlNc+vdj3BWhSW77+1PBjHn/uF4+/+KutVp/p+wEAAAAAAAAAAAAAAAAAAAAAAAAAAAAAAAAAAAAAAAAAAAAAAAAAAAAAAAAAAAAAAAAAAAAAAAAAAAAAAAAAAAAAAAAAAAAAAAAAAAAAAAAAAAAAAAAAAAAAAAAAAAAAAAAAAAAAAAAAAAAAAAAAAAAAAAAAAAAAAAAAAAAAAAAAAAAAAAAAAAAAAAAAAAAAAAAAAAAAAAAAAAAAAAAAAAAAAAAAAAAAAAAAAAAAAAAAAAAAAAAAAAAAAAAAAAAAAAAAAAAAAAAAAAAAAAAAAAAAAAAAAAAAAAAAAAAAAAAAAAAAAAAAAAAAAAAAAAAAAAAAAAAAAAAAAAAAAAAAAAAAAAAAAAAAAAAAAAAAAAAAAAAAAAAAAAAAAAAAAAAAAAAAAAAAAAAAAAAAAAAAAAAAAAAAAAAAAAAAAAAAAAAAAAAAAAAAAAAAAAAAAAAAAAAAAAAAAAAAAAAAAAAAAAAAAAAAAAAAAAAAAAAAAAAAAAAAAAAAAAAAAAAAAAAAAAAAAAAAAAAAAAAAAAAAAAAAAAAAAAAAAAAAAAAAAAAAAAAAAAAAAAAAAAAAAAAAAAAAAAAAAAAAAAAAAAAAAAAAAAAAAAAAAAAAAAAAAAAAAAAAAAAAAAAAAAAAAAAAAAAAAAAAAAAAAAAAAAAAAAAAAAAAAAAAAADF+n+RDKFJOVUOOAAAACV0RVh0ZGF0ZTpjcmVhdGUAMjAyMC0wNS0yNFQwNDoxNjowNiswMDowMF3ixyMAAAAldEVYdGRhdGU6bW9kaWZ5ADIwMjAtMDUtMjRUMDQ6MTY6MDYrMDA6MDAsv3+fAAAAAElFTkSuQmCC;" parent="1" vertex="1">
          <mxGeometry x="494.57000000000005" y="361" width="41.5" height="41.5" as="geometry" />
        </mxCell>
        <mxCell id="4rz4LA_L3pTO9ttwV80M-34" value="" style="shape=image;verticalLabelPosition=bottom;labelBackgroundColor=default;verticalAlign=top;aspect=fixed;imageAspect=0;image=data:image/png,iVBORw0KGgoAAAANSUhEUgAAAlgAAAE7CAYAAAAB7v+1AAAgAElEQVR42uydB2BURf7H5zfv7W4SOtIsWDkLnuUEBUlZsZ0CSQCFs3eDQALWu/OvJ+p1zwZJALGi3nmHJ5ACtlPZFAQVRVTu7BURQWogZd+b3/83CyoqkGTf2933kt9Hl90k+8rM/OY335k38xshGIZhGIZhGIZhGIZhGIZhGIZhGIZhGIZhGIZhGIZhGIZhGIZhGIZhGIZhGIZhGIZhGIZhGIZhGIZhGIZhGIZhGIZhGIZhGIZhGIZhGIZhGIZhGIZhGIZhGIZhGIZhGIZhGIZhGIZhGIZhGIZhGIZhGIZhGIZhGIZhGIZhGIZhGIZhGIZhGIZhGIZhGIZhGIZhGIZhGIZhGIZhGIZhGIZhGIZhGIZhGIZhGIZhGIZhGIZhGIZhGIZhGIZhGIZhGIZhGIZhGIZhGIZhGIZhGIZhGIZhGIZhGIZhGIZhGIZhGIZhGIZhGIbZLcBZwDAMw3iBgooBGSHoMABR/Ioap8NQiP0Fii+opfqvRHy+IX3bolmnLdvEOcWwwGIYhmGYFlC4MDxQ2HgTCBi5h6+9pIR1e2lu7SLOMYYFFsMwDMPsgaIFOaNRiRkkrno1/23cCgjjp+VFHuOcY1hgMQzDMMwuKCzPOZlaorkkrrq04jBLoTqnNK/6Kc5BhgUWwzAMw+zE+MqsbibK56kpGtD6o/F9YcDJxcMiX3BOMl5EchYwDMMwqcBAeWZ84io2PvAztNQ5nIsMCyyGYRiG2cGYOcIAIc5ydBKACzgnGRZYDMMwDLODTqHMDEQx2OFpDpywINyHc5NhgcUwDMMwRJeQHQCAfZydBQwJ2JNzk2GBxTAMwzCEqg8pIbDR6XlAKJtzk2GBxTAMwzDExq6iAYV4x5m4wnrZaHzJucmwwGIYhmEYYvZJkUZA8aqTc5BAe33qqMhGzk2GBRbDMAzDaEAgSpyHiA4e8amZnJEMCyyGYRiG2Ykm3FZNQutf8RyLAp8N1FvPci4y3u1DMAzDMEyKuPqZ7L3tKPyHmqP+rRBXH0mA/GkjIm9zDjJehUewGIZhmJRx7xnVq5VUo0g2LWihvFpMAmsMiyvG6/AIFsMwDJNyCioGZARFxkXU77+cGqaBP5FVQiynfx5tAvHYrNzIOs4xhgUWwzAMw7QQvQG0gbg/ouwHUqRLBU1Cqg/taOMnpaNe/YZziGEYhmEYhmEYhmEYhmEYhmEYhmEYhmEYhmEYhmEYhmEYhmEYhmEYhmEYhmEYhmEYhmEYhmEYhmEYhmEYhmEYhmEYhmEYhmH8Cm+VQ1zzzODu0Sj0QhuyhDD6goR+iKIDxLa/YtyAMhIAxFZU+AGi+kyaqtYGY82METUbOHfcY8yc/sH9RGfD6qgCu/r75vT0pm1r16onx6yMUu33jH3rfehChmHqz1ujATT3bWiYNXBZNJHXnPJS2Nwa3RCKNqR3tIzAgYYwMpQSB1KudCSLtUHip2S2m0HAhjrb+rRDYE1T8bAPGr1c/kUL+4WE6B76Nh8Tdc/azrqlp5vflpnGrJPRe8YuqXfr/J1C3UIdAlGw09OV1amu0W17mIJCbn5ycEjXFX2NtWvXNj05dmVTYuunMPp07GeGzAyz0Uozdv7bt+XV2KuLSrTtp4rv89zsiFFxqATjYCVEV13fvmsrqMIBUi2U4gtD4Sf16ds+Fd3EtkTmifYFG7c07GVB6GAhMWAoWN0gtq6albtsGwusOAhThh6xuekoKs1sA8zREsQJlBvkmEByM51wuaWo+jTSv0ttac1FxJr/dg6+FRkasThvWidK0jGjny3kvghqkEQ4gOz3cFJNPchD9aVOAuyixn9Iv9xA3/mc3r+gr7yDwvqYxMUqo77pC7cayBaqbiisCJ9BOi+f7ud0EuD76Hum9wb6+XW6v3lKRstKh7/8qVuXLCzPOQikOoTq/VDKDL2h8FGx/KKeVawToP//wS2idvVK3xO9v0e/elNIeEUo8YYw7Q+Lh9Ws9YItTKzIPk4KGEUfz6T77E9pMaisLUrMf+nncgVYWZpb/bqTa0yqyPkZxuxLZVH+ZdKv9qdX75hZbRfrX9Cn5yjHKkpyI8/EI+CLFmb1R2WcBYhn0I8/p3Ol0fsWMooVAvA/StllpXm17zgToVk9qURPpzSMph+PoWv0pXLfRud/j9L3AjXu5cV5kSVulIveV5HalkPpWgdJFEdR/hxDv+5D773J7/X6QdXUNibE+3Q/m6jc3qfPb4AB71GL9PHUMyOf+NVP6fxWtuwnAQehgixK59FkGAfqOtdce0t5ZJMd1cXyArEKDLlIGup/955Rvdqt8jHQGEkXuoCuk72THyDBh1/Sx3+hgY+VDKt6iwVWC3sQe4UyzyGjH0nqOZ8yMsBNdYrlFmKTEnY5Knter/wl/7wNqPlidi8SyrIyqcE5nbp4J5KQGkDVuLtzrYOfkjN4l97fBpSvIVqRkvzaLxOVhqsqB+9rYvAvVP8uaMY43qX03UYN3hNOes3fVGblke/MozY/i873Mxds1iYvvIwa5SVC4dzivJpIavxZ/2Dv9B43UgFeRzbRaQ8FvFGAuqt4RPUfWyt8Ji3IOgNt+SsEMZTK64AWZtAcI4hXt6YhnFiRcy2d/waICZDdnnitEnBPaW7kz3EK7JOp3OhYOGH3WaWFjnoUrYb/i3dz6aLKrFMFGqeTnQyh/D7BWTuD79M9LaN7frGJOh2zciPr/OCnJlVmDyFBlUfpH0r3f/yPOy8OfNWbJFirFIg503MjNXH70YXhgcIW99BNZTVzxdXUIN1Zmlt1NwusPRl9Wc5oC+3rAkZgCPLTP89BFVBE7ehiw4C/leTWzOcc+Z5r5gxOb8oInQEKr6N8OpKyqmsCBa8WD6vo40oE/Luhmp6fmrd0jVvnv/qZ7L3tJjmX0jC4hYdYVFsLSnIjD7c2z+y00NlKYJHuNZOFhRKUY5vp/paT2Lp/m63KHsqv3ZKcnomAwsrwg+TEL23FQXcV51Zd3xJRuq4ifIoEvJXSdizZXEbrb0/UkCAY1RJBUFSZcz81mle0Kh0jqm5ojVgsqsweTg3+E3sUoj+8xnNmoOnce85Ysr6l9hZND46i8phMRdOf3jsmoG5+TDrlccrXaV4UWhe/FE7rskX9EgEKqTwHJtRPCdQjfUuVxD+WDq+uarX4Q/kv+rhfKzJ/SnFe1e0ssH7SaznhIKGCf0BDnitdUtFM4qAGEcFWTwjZdHNJ3isft+e82Gn05brme1qJcmTiK/p3PpXK3CjU1TqZl6AdcOctOJuq4dhW3kMd/TO2JC/ydItGQ8rDp2lxQC5uSJJzayXd6x/TQhvL7jx9xdaEdhgrwjfQ2x2t78ngTSRO/rRbf1kRPpzSMYVE1Tku5EeJML68fk/zwArLcyaQ6Clt9ZkBf1MyvOpvLRFZhQtzjgJLPE9217uVl6kQxqoxzc1j0yNj9HY7pSMzOWaGaygtdwmj/r7iYa9s9sQARkXO6VQQN5Hd5CT50hYJz9loqDtKh9e81+x9LszqibZ8HrY/rm1NpjdS3TmreET1AhZYO7iybNA5IQj+AUAewtLFX9hKfWBh082zRi79V3tMf9HCIYegbd5OjuA8r9wT9RpfoIbtsR7Dqx+L51HuxMrwKIn4RDyjSeREa5tg6+l7EnjbF6wEbqLWt5Aau2BK80mI35XmVr2ckE6jFkGIL1Aa94lDMNfZYB8zY0TNRz8tn+yLJUoSpuJAl3JiK3WYcnY3/2tSReb+KMxIfNfD9Rao43eVjp+OLIVmU2M3Jo5y1FNyLt/d6GnRwhM6ox2aIoScQOdPS4GpvYSG+HXJsMhrqbL18ZVZB5vKuJXEx9jEjRK3qKw+kgi3TsuLPLZHv1qe8xsSp3+JT9fii2A2jGqpqG2zE7r1XKuJ87J+HwKqWCyufIkhZb+gDD1aWJZ9ux7JaVfiqiLrbBJXES+Jq+09MjgFEB7+pjL8DjmqcRNeCrf4MUjBawMCgOLCeJ2wHh0IiQ67HcXTE72taLAChLw2leLq23wig32G8ugWvRjB9fMDjo5HXO3oVXc00bjqh/6yf7CoInwHNVAPuSeuYlfTq7FP391fFZr58V8PuptKXtDct1Ra4GfUNI6Msxz1IMQE3Z78+G+TyzIPE1b6szF7S4240gwVNj5XWJFzUSourq9LthShjLowleJqR1kdTJ2/R8iOp++uzsXaERBXOrjIUGUHjmvp19tko6WXKvdKy54pTePmVDtaxmlDAkGQ8ndryzNn6kagXYgr6mGRH/gHOYx9PVkmsYV+4nB6m2nU4cLYZNEW0GFdoBM1dCc766WKUbscCVmQdQYJv4rkPxLcY051pjy6jURhmV6B517nkeoBwmCH+Xiaflz77ShMn/Qef6ePNyRiFTXZS5ZeBv+Txk7/DnC4o3SAaPYxpi1k2Mkkc7L1Y3t1OPEHc3UmVGSfYoNZ2Yp5hImsj92oQB+aWBG+MVnXnDwv3LWoMnsqXXu2aM08psTnhrbf8UHR4cnCssyfdEC+Kc860cn9xnwfyoEt/X6bE1haudrRvYslyCsE02YwpHllz7Qe0xIxGuAlCitzfq3n8PhndStkg4WVes5Tc9+MRkO9KF1dnDUmou8uBOk4pUiQxjmik4Q8OpXK9OnYyjIX2Ktr164ocH9n+YgdQnXbJ2GjnVZMvzk7UamntO+3uq7uJ50j/TunnQgS1XsXVIR7NPOlw5zdPxqgzO+ElJ5vZQg9WV7081BH1KDG/E+xx18JH8DI6qlMfEKgnORZryRgmJBm2cQFWYf+oCwN0P7DmW8FeWi7FVhBO/02Q8orBdP2RBbAONNO/7+2mr6iyvB4ajD+qp2lr24coLcEMUvHlGmmUd/f6aUQ4bAf5xmCmBHrxXs7kw5BJefqlWxOz2Q2mPqxWy+Hp+kaMuxehRXhKynvEvt4CYXZORT9yXzfDvUBHWTMdip+Amj1bs5oHDbW+viYfU2oCGfRz0/Rb3t6tC7+obAyPCZRp9ePRdGWL9CFzvC8WxJiICj5xOSnwwd+/ztpo8MQAoAtXx3apgTWFfMGXgCGcb1g2q7IMoybrpx3/Ni2lq7tcXPwbz5OwoGGktftsZ0DdLyoBgC/GwmZVJ6dLxTeBT5ZGRwLD6Dk4xMrcoY51yxO0wyNYMMQOsktiU+32LQ20M1O1PmlCdic0biQis16Qj41mPcnMvSAC+jcuHtSZfjnbp9YL6xQ0phL9e0o3/T9BBynoviIXvzi3kmxxYt72ozAGj8/u2+a0fEeliBtn5CRcacOVNlW0qPTgijv1BOC/ZwOakhH7WoysLuDIdt7nyRSTlQgH6CLpvsrk0RXEjWPF5aHz0z1rZDNXS6SMH9GB6+dfVKk0cembVHvoDeiMS0299D77KcQ73S1A7gwqycg/osMuL8PHVM4Gg0+uENr28m8dJsRWBLEzZR5PVh+tH2oIe9rquDNbSU9JgYmtT4miydLpvOPJwO7fgUUDZPLB/WWKGZSY+fL+h57nAn4SGFFZsrKnETPvsmYoB0LcwCi2kv7XsaTBrr9ceR48n1kY7/Uj3/dOFds3qst/0HpP9q3nknAyKKK7JvRhnqRxJ1C2oTAuqp8yMkg5XmCaU+cP6Esc6jfExFb6o0wvi0UCCKmG2gkVvSA6KwgVOJnZ7/D4fcSwnhMR7VP0fWT9FgVltkCF/i8rAKUXYf5777x6mYXADSvLiEoMqbohRr+d1B6CgPqUdukbaRt+j3PYluIoLyG3EVHwbQbts9ngWuo/JckdYNil7HBHEe228ml01nU215DLefL1Of+nH7+GHfMF9CrtWKTzBEOod8dDSIWvsTd+g+ioUlYXyW45LUgObtN2LCAo+wmoSOqX9o2ayluFYA3zxhRs4E9VgpyX4gjgijOpY/F8Z6jcEH4bOo5Xd0mQpLHHs/DWduDx7LAahHRQOAsKWEYV6f2h5RyWDRo6LhI//Bl5yAWdTwW/dipK11PLmOeQPXwmsb1rz45dmXT7r6p50jtEwh3UgHUE1WzyQsPpWMPI8Ha14UkfTFzxJJV3m508GvK78/o0xcA+Bn9oo466e+SyO1JUrSPFqI7QiDsQ3lyUBJ6CpdMKg+/2Fz0aR+27hspf28oHlH9LHuqlAl4oM7UleMrsx6PR+TG5rki3pOcWJL4Pvmhz6kevkHvH9Gt18funv7XkwXJQ+5LKTqcBLsOkbC/k1WcyVwU42uBdVlZZicQUgdXk1yd2qED0eEMZODGCXP6l08fu7LOb/dvWQE90dnRcnu9fQwJq9+U5NfUtuT7T44VthCRjfSxesfrTxPLM48ENLJ08En6OTd+h4qPeFRUITnVSgHqOaVgqWGuWtHc3nITysL9DCGOJ/+u91Ubvf2RXmJQAv8yuXzQc25uqJ3i/P4XGji9tRvwti30npTwDpnep9Q6rf2+cac2V4n96W/7UzOvOzmJnbMo4CiT6rbQeyq2koAK/oGc7L4JtJMNJJ/m0F1GAOza4rzaz5rtlOonVh3MoyXCiVSr8yl9J3nZCnwtsAJCXSekXtWAgmm33bSfq7Qu19Cn3/vOBaOOMO0k6B0uDgSb8u45Y8l6J/dRmlf7Dr29U/DagIfSv8w4ghr8X6GQl9G99WnFvTwXqI/O9lZDLxpA4FMoVTHAV8ubE1U7Mz0/8gG96dcTheU5d1DPOZd61te7NNL3447CPgpDt+lBAx8Kia2Uz7phfJUEwwob4IW1W6ve2i7k25mkQvycyvKfVH/moYSPe2aIdbcNrbJ2JxTsdKOnQvNI8mH6EfGZegujBAmZc1orsPTOCMoW50Fi8mkL5dNMHfJiWl7V+605dsd0kKX6dVlZ5oMdTchUSt6Ygg2m27bAunzu4CNMGRjH4qq9g8IAcxzZw78fHL3kv365a709ibDx8PgfD+JmW8LEYofiamdmDVymJ3+u0K/J88J/UwG8nETFxc3FvSEH/qwFTZcXe2ouHFZTg39T8YiqaqdnKsmr+pjepo2fnz3PMOB3dO5L3I60r7d8mVARfnx6bqTGB3VOoYDFJF4XoSHmlAyrequd+6DVJKpm2Wn29JmnL/66FULhsx2vpydVZg1QKG8hu8pLwA2eev1zR3e48/QVW1vmm/qFlCVvSMSjQfIVC5UQt5Kdv+r0XA/l126ht2f0izpBE+h+9dOs/bxkGf58tEa1OyTNyVJAH8G0e6SQ+4bMwCRtF76552hgbxIvBzo4xXPTh0eWJ+r+po6KbCRxcpeScDrl6gTqxuyi4ceVAvCmQKDpPO/MvUJq69TtodDGM90QVzszY2T15yW5kQKJ4gLdqLp5br2FkIF6U2Fv77dJdjCP7nbkmvq1pxTnVv2uvYur2CN6JYaX5lbf2lJxtSumjahZVpJblU8C5OrY4gB3C22vhoZuOS2vQfv8kt7CLudTk66XTXtvHTk9r+pVt8uBOkHTqUN1JvnU51lgOWTi/MywYchzWVow32IAnDexPDvbL/erDNmFHELc0YUVYGUy7pNE3FfFIyIzwKgfLgz7SATMFxLPAoGHNgoIk4j50z0ujqI5dOPrSQBcWpxXPaWlvfW4GsO8qjkAKpeut8zVuwcxqk/H7v28aK/U8L9JjdcwElbnFOdGKva0kKLdiCuBj+pH9MX5VW+4JhRyq6ZS7b6EFIlro8F6rirZa1YrEjbBze26SFzZEnCirpc7RskTUy9HRN5OS9swisplqldsxPShVQNUmHo/us4sK5id3EhnEizaLnwxsRaV3IvuN+7I7VLJpDZwxcNe2UxvK3e8vDiS8A25hnNL8yJJ6cHqEYcJZeFzDIn/JNsb4IoFC5GGFkzUfUgvWSqJ1hnblH3jjkcyzHYqtnSEcbOHLmlwva7l1vy7sDynCxn1fe4JHRgYG+FvJuBrUWX2CfSN01ysmDqw51XTcqsfTUah6I7VmDniut5pYUX+9ZpUG4nvRrAKygdfREZ3Gtdv5qc9NfnLgvIhF/ijn2A7cpxKKp58+D0Wlf6FyRJX3xKbCG+oi1x9XAhw9sR5x+/lESvdSvdTWJJbVcji6ge8bUtRMHtopCFRF1jTUPUIqSHXws+Qs+hR8J8BzQ5KoIICMkLXdAECXkv282gyC0cvsFjTsPa3eoSRBVYruHDu0b0MMHkzZ2a3GMK4QdtJmxeTCGEu7R1bsQi8riQv8nQqrl88rEbPQ7syNsfEjXIV0Msw00alPF8Rv1TCHqEfD7OV/SBfbLK4X+tH54kWCcKM6pWlX7hjV6JHoD5tjxPAC8sy96FvuudXQE0rya2emYpy0o+wtym7UK+0ZoHVQjrLjleYYPycVw4yu2tuTZBHd4ROl7cDgXVObJsdZs5X9etmpvIGikdULwCAqe5ZMfwyxaJ1Axp4bmlu7SI2r58olb8nS8wXD1v8ISm6v7t0uq5SwB63zUHDHESO5QCXbOh1qZr+lMqi0qOuKOwJ24MLs8DaI4UVJx4ORmA813CmWaM2jPET52Ud2sYdfVdbmo/rgJjtWFCvRRn9jRcmXJuBxr/Q29vuNE7i+BSWqwWI17bvIKG7LZcGJeGeJF/zPhII21w4VUcBRuc9qXpQ6lS3wo8gqileCJxbklv7JqAoZYHVXHtiB64Dj8W4YDwqsAD6SpDXevoeJXxNztNR9HmqDwOlFE9MrMg5sZ0W9R9Kh7/8qRduRK+kJEd+hzvaGQ4wAY9LkYyYWpxX/Qh7kV2UC+KzPTPcEdEtFgjbY7D9x4W7lyTUuu3urxPnH9+dJFamO+IKnyrNq6n0SrltRfseSvt7LLB2w7iyE3NQwkVcxZkWV3JDXlxQMSjLq/enADeCQMfhDbTIoob92YkV2bdOLh/Uux2V8PuNaVu9FTneXDWHWpc33LEPODb5CRBLzPqm37H32FXWIFLP7dnbhkaspF8bxAJXBCLgbkewTCNtX0rkES7kU1RKvNtLZacfFUqEP7DA2gU6qiwIOSU5G04ybaa3KUSaVOYtXg3cGNxqfU5vrvSqqG50klRHbAi9pIXW+PnZfdt+AeP0Wact2+SlW9Jb8SjpVgwePEFvp5LE27eUYV99j6ei8XuKtTaIl1PSSCtY4cYiCqU3Tt7d34Q80qU2tsrYFn3Da4XXAOLpVIxieV5g2dGevzKlkc0T25nW9qVMMMI9Al3HevHudjRkb7orKuEILbQMQ64sKg8/WlSZdeqEBeG2uNvBF9JWT3vxxkxDRujtExdOdVQ0ZHRL4q3fXzq8Zin7jd3pebHKgFUp2YqLhMEaAPF5Yq+hXBjtRwWA870o0mflRtZRp3sOC6ydKFqY1RPAnOz2vl9MO3GK1COThnF1QcWAHp6UgCgW6omzrqc7NqFVXCjQeN6wcWFRRc6devPW2P6HbUE6Iy7t2tn80Iv3NvWMyKd0g4tcEMu9UMqkiOPYKivDLmGPsccC+bg1m4W7SVP6Vr1DQUIFFoA8wgVDWosSIp4tQgkvur4NkZ8FlmqEcRLkcVy7mbgNHOSAgJVxpRfvbU1DlXZGryVYZf6C/rlOKfmUsNJeKazIvq+wPOdkvfmrL8UVqRcSkM+nYi5MCxtiHZirZnt8LqfOGQ9O0l3/JxbPi9kTn6XqwnufumwLGdaGBNesw12w/U/X1FV51o4agnWvU61M6v15VmAVzBtyCJiyiOv1rhoZ9ZqN9nQl1G2xl7JLFKoI58xujNyQk8dXDjzYa/elgwki2n9NTrsPGSS2DgMhCwDghYbGritIbN1VtCBnNAmug3wzkICwSQm7xtMdQyFW0NtGF7rchybel6BWgjx61bzhpWzE9LZYQHRnK473xFWVg/clI+jogi3VxAKkepTYnE1IrsDy7F6EYIhb9DA5z73ayXErtQIxerNScunM0T/cuX3yvHBXG9QgBLhWSjidc2tnY4LeygreTJ8u89qtfd1Q83Tv9JyFZOvDkpolAkhwwrWkBq6lxuM9ElnV1N0qb8Kt/5mVu2ybV4uSWpqtX9fX/s/L5ra1E7zVeQt+TZnsaA4VSZ8DEp+hYuXXDVWvsJNoJpsUpG5ekd4/sBy/jD38TwBBYfZRIJzveQhyifebAnyNnMjFSevcezETriofcnIAAqNZXO0krlA9YioZnj5yScWPxZVm6qjIxpKR1c/2yKs6E1Hdkoi5PT52jyJomGdNKBs01Gt3FuvxGULvm7Uqdf4bDgWAy6mXPCcoOi4rqsj5vQ50OQW95x+oiXnLy71kjd6jDgU4f6SEsE8SMvRJr+enF5CAkFrDh4TVRVvBgeQiQ848LHUHwP7M6+VIAusDHUqi3QqsgooBGRKNa2MTdZntFQDx0WBDdIIWUc199zYQqiSv+ve2sv6o+12ce99Vrc4CAtckeel7iygZVvUWFdvVLkVsdpJHIap3h9P7zdSgvLO+Ivz4pAVhr4nS//nC2twQzJBY/xybJ6bUf9g3tHPxKGQQwOHwGFlSvYXen8eHxhd0rw3Jy1uPEbQyRhsSzmSz345S+E4D2oWtXfq6rnHDHUqJRZyDP3Akw6JBY5QX7604t+bf9DaePECjF+4nFhMHxLnKxmeKynP+pSfGe8NB4mZf1FtANyLMJ3pu3Mc2wmfsGdo3CEo59xdiU1pn0/OPnCAa2zw7aVtreUpgXVaW2QmkvFE/zGWz32H8Cu/UkWhbe5zenw2FraPXWpyL34kGA2Tgxglz+ntydLQkt+pRQLgy2UuJmxdaMJbEVkVhRc4jKd/7UMKnPrE2N4RgQsNqgBCv9+oiV7NnaO+NjOzluM1F8alRvyrq9aTqp0CQxDbRU0ImgOp6cqD92eJ39IIR35NSPRfv8dPza1+yUS3hnPxBq/JzO9jZs/sUTsuLPKaEPYK6gsu9lW2QQa+LJeCLheU5l6fwRjb6wswQnftWFAl9xI8oPvFsuAsmiZ0o7OVCvfTNdBQEkbT5dJ4RWJfPHXyEaQQKeGL7zpagXi3Jq3XUw5RKPMcZ+cNWS+Ycv1EAACAASURBVNuZtjev3mFpbu0ioazh1ALe5z1nDH3p9UBRRXi6HnFme/Jzy4ofciYwKAC9cI62iPRKCYekOVkK6MNF8t2IgYiKxk9jS3SdZe43nJs/Nnq5b8gMTNJ259V7LMmv/bI4r+oqRDwFRSwyuNdGGsZnSHNh0cLwfkl1FTbs6xMrc2NlnpHAG7QQxVr2BgyAetfpgihqpjI2p+8LXk+rXhkNop2NYE0ozzxJSnkem/qPCgeCjlc7KDceVbRBDIDziiqycrx+nyV5VS+W5FYNBcTzyQkucGPTV/c6ASJL2PjU+Mqsg5N3TdXDFwbmMAbW9oYP1ieuTys2CgO/YE/AkNC2XDjHYcZmy/Nb2m2ozNwPdeivdiOwUG8RZN5IzoQfN/wgW1AESAZwTiSsBexMnZkb/XK30/Kq5nxVv240gjiJnFkxOYl1HsnHEwyU9+jwKkmpFyD39kkNPsAFH5C4FX56xyElufPFCEDndkDtNwbTMd37iYWe9G/ShGDKK1hB+eCLqHBO86Vh7jTS2K4eQCPWo9o+2RiEfzUggPxlQfmQC/xyv3plaGlu1csleZFJVih6JMYi0+MCkciGuGX1IC+EHW5JkvEd7I86Itx4dNokGCbxCusbp6NY1BkwjEbvL1BDZRzqNKiqbwTWhXOP7hUA8wZfagyBm5pU0/22Hb0WbTxfIV5hK+sOVOq1tlgHdfRbhfYcpaxCBeJsFCpfp7tJNNylUHzg13SZwrhB26Hf7nvm6Yu/LsmNPFycWzVCGNbJCnAcCa77MUVlQde+vqgyJzsJrcGRyRotixe9kTaA6OvCqT4VDJPwjiZ8CXrKr7NOFkiQx3o/sernOlxP8tqXFNJZdrxCgnGk38Z/lLL/bhvGX2bmL377x3+bXD6ot2UHc8na/kIFuVebEFc2vqXQun5tdPELu9hW4x/j5g0qCcjgeJDy136TjQbIoztCJx124M9+LZ/iYYv1ajD9mjWpInN/KqCDqe90khQwhn53iI7QngQnbaDCW+njKQm9jsCMoNFR95Q925Gpb+xyGPVc93Kep+Jrbv6ZRNOAdR8FRYcmEKKDs4YRjvF+auVRSb1aqpJZWHHi4WAExvtKWAmsi1qNRaX5NRfMHBF5e1ffmZq3dE3pyOoHbLQzldKrM/yNEqJGgH3G9FGLn9vdnmX3jVr6SUl+9W9su2mMQrXab48NpWGMnzgv69C24Cyn5dZ+psM8lOZW39q9IxyDwh6EQt2IAqsSvd8hCYLMSQuyzkiwlOsMCsOe7iQj/IL+7e5c/8Nb3PwziUZv7g7oipg/7uKXwmleTefkp8MHIoqkhudJ3SNCFbiemuH9/GKEVDCfR4V11sxRS0pa8v0Z+bXvCmVfSgeu8a24stVqpawrdMiAlnx/+siX/11v1Z2p0H5F+EhkSR3bScJ1bc1x6iCSJbm1b5bkVv+lJLcqbCAOI7Glt+N5RiQk7AOElDJGJ3qTaKqLWQWvDfDkiqUdy8CzXEmnEO9z888kpX0D54GNyV4P6lhnDfZsexYVJ9JdHpTMa6ZEYI0rOzGHursX+sX4bKFqUFhnzspd3KqgnaWjFr/cqBr/4duJ4CDuiQnFVvDQ6Dfe3GriCFT4tK/SKo2LCioGZYk2zNS86hUktmaa9U2jbSmOR8Q73e4AgMDMNQsGJ3alH4rswOqMo7yYx+sWntiXGhrHI2xUNl8q6Y+o9Yz/ARArnJ8DOklhnOLF9MU6fYCjkzn/KiUCq2hhvxAIOSW2x5kPUEq9ZAl1fmle7TtxHW/jHKX8F+yTHPwmNBsei+fYh4fVrA00Np5FwvR+/2hJkSaVecuYOf2Doo2jNw6fPjyyvCSv6gZpw+Go55+5JLToXD8LiEBCg4HquY3Uacn1pE5HM4vu7yAXDPK1tVvXrhcMkwx/L3CZO+eBEdc8M7i719K3riLzCPJN+Un3B8m+oB3t+StTGtl+mNiuLHuOqTaPnpVbG/cy+PT09W/QmT72XYVT4p3pw16Nu9HVjbgltl2thHrILy7GBCPcK9jlV+3JserNT0tyI/+nAIeRqH7RuS6AgBJJmedwqeccud4vRIEr80pJ8K/QYTm46WeSgWHId6n+f+OC3R5r2cGTPNeBBnOy9k1tWmAVLczqmaqEtlpcKfXPYNS6ZOqoNx0N0xcP+6BRSNjmuxoH+D+n2/ToyZN1HeVEpWxfiKzYqKo0JxdUDOgh2hmludWvGzacRU620rlTSfx2NuRDDrCaApO9lIcTF4RHkg1lujCaoB9ovMHNPpMs6q26rwHEq+50zuHGKS+FTa+krag8rOeFnZuKaydVYGGTLJAgj/O8uEL1fF1neakehWmvFY6UlStReWcPjTR83bh+PPrkcSHZ54CAlXFleyxzPZpFIkvPjXzbWQUSP0uSIr56YkW2J/xJwfMDukjEm9zp24j3oti0lJt9JlnozrASUOVO50cMXL9VFXohXbFVjYBT6J46tmmBVTBvyCHCgEmeFxYolgjDulILA1fU88J+IVJsGX6rcIAwwK3NkPWjjiax7WpU4klfiCxDTh5fOfBg0Q7RIosa+Dsc1SGAJD3/h85SwJ8nvBTumOp8CzVkFNHbL1zxQSCWzxyxZJVgmGT6PRQvocAN7rSjcGPhwpyUL0TpvFVdQW36ySnL06Q12Ia4BQR4OmI2KvjARuuS0uEvuxZBubFpr2Mpmw/yW2Wj8jqosDxzgJs9JEOJAqp51d5PPPRWVvDmdutpAZdQbdjsoCYlcWQcTpdb8LepzK6J5eHTqEH5Hd2LW+ku5+aeSTbFuZGlZMPvuFIrdVtvwV9jAwwpYkJF9ilCwR2pXFCXFEd4VfmQkwMQGO3lie1KqE0WNI1rbViC5tsqOFdK/0V0j82TA6PIzXPq0REbmy5TaH/h7dSjCBrmWRPKBg1N5FUKF4YHTqzMKSiqyJmkXxMrsy+eVBn+eapTHwVlo4h/3iCI5M45JAd6U1FlOCVBi4sWZvUHwJluOXFE/DhQ3zSPm3smBU5fDz7Pd69eijPR3ueuMXOEkeyk6NEziXIm3URKN6BOuMDS+4ZJNK5N1TPQFjYIwraj18/MW/yim+edUJZ1RtAIXoj+3Qp61MT5g0e5ecLp+Us+aLDr9Tyfzd5OOnQmjXnNNXMGu15BdUThoorsB4WNCyTCfXStqfpFDuERRPG0/lthWeY+qUq5oeiuEON+PIxCJX3zaR3Tq6g8nNSJrJPLs48WlpxL/uNg93yRmNOe534yqaURYbabsfGobkzsnRb+W1I7PWU5vxCWKCOB1y/V+ZlwgWWqtFGGhDM9PV6h1L0zRy55wM1zTqzIPElKOZsUdHe/VjYdOA5k4MHx8zJdLb8HRy1bpJR9m9ejvUshh0WDhqsCc3xl1sG2pXuJ8rLdPDLfT/9NSGPxpIrsKxIh8JpNt8S9SV7F/TgfEDYk3VYFZJAq/HtRRfiGREeS316/s49TAE9QJTnMNT8kcJMwrfsFw6SIWbmRdVSZHne3HRHXFFVmTy1aeELnhIuryuzh5LueciUWndcF1mVlmZ0kmDe6ODfBdWy0X96sNt3mqvMty74YhDHX63POWlY5ZDfTNConlmf9n5tDvaX5NXdbGP2XxwWmQQLzxglz+rsy+kriqpuBxmyyi2Y3RdVhCEgn3B9NCz1FoiGpQTUVwoWg3WK8dQrcmccRh8jS93zHN5U5s/UoYQKd+PlSQCVdsb+7PT1x/46NuxkmdaJA2STyca27ti0noZ1WNmFB+NhE3LMOEK07V4jyn14RVwkXWAFU11Nij/SsJSFstKz6X892GOvqW/Tj0HHzTvyTlMYj5Oy7tZ0qB1KC8cfeaTkPnVd5lGvpalCbqELgR95Ouvi5Hex8rRunMpVxRmv3qdPzGMhQnyyqyHm6sDL7l4mez6Afe9E9nhd3lUL8BtDakNoigwtsC18orMi5yM09C8fPz+5L53yE/MajdBV3twNCXIPCfoSbdybVTM2rfQ8FPJCAenmSVOLpwvKcm9wamdej1fppUe+0Hnp6zx1em4qUMIF1+dzBR5hGoMDLE9sR7b/OGr2sxo1zaYMJqPQHQmboRuHfOVfNNPZwURe7898Ly09wpYfw8Mi3Pwcbf+/tVKPQdkzi+XDnGYhnx3lgiF5nUMP+dJ/0nIUTy7PPuuq5Ia6PjupRHxvkg7H5Z/F70eX1KD5Lua0KOJhes4OrOy4urAyP0UGO4+sZC6OwIvMYElZTDEO+Tue8OCEj8oAPxrsdF8O4XHkQDDEdBb7n/qlFH2pH/mClB9/UC3wml2XG9Yi9oCLco6gy69RvKnLKpDBecCPAbyJITLRVkr+hMnOyFNDHqzakEF/9urHalcl3Wlw1Bs2HDWn8CtuouPrOYKR5prJhLoms0SV5rzjeAqh4VPUj48sycwMyMNqreSeF3Ne004vo9gqdRLenA491MutsxyOw0yXA6dAoXyuqCL+EoF4AuXpRbMcAB2jRpixxK13A2SpGEK8+lF+7xTtthRhIGT9H2PIV6jlXkTJ61TaiS/cUikXX52jH0JHCRnLaEKaSO5nyvksCe3orzGD0Lm7ZGa9QPCzyBXUq/kgfZyeoZv5MorjPlsaqovKc54XEN1HBCivNenvm6Yu//omgem1AIO2rjodRu30cyb9jqdIMEWgMAm9P402MwJo4PzMMhjzPq4mmhq4BhPXbJ8cK2+m59PycxpD5EImrMe2l8knDOBYxNG9C2eCz9apA542g/RslAjlUVzy7RY1hyAuKKrLmFIuaSPyDFGJvt+b1x4QDvQBhAtr7fFZUuU8tWfYiBVZNNNi0ccOG+vonx6yM7k4Qbo9P06ezsGA4AlxAv8qhV8BhvaoTtqr0ZgnCCeSMT6B7tMAOrKbGYz397iMSN+spL43twVExQJ8PtlDsJSzsoTeV/i63E+eNFEr89T1nLOGNnRlPUTKi6rHCyvBIsv5RCauVelstEJeI2KJl3GI2mOtIcOkO2g/aZlwt0hCxO9XJ3turY+qUFTmKFk/TMBNwdZAVxo3U2e7kWYFlq8d75C9e5PQ8es4VqLT7ZTsSV99VDJDHCDQfO39hv1/+fdgHjkIuaJFWOG/I34QZ+KuHU9wZhbyRPsQtsMiHrNYNuMv31QH05sqoN1iGKyQGRag+sKZPeoe3CitzvsQK/FiSqECQJCGo/yfAIM21P9rQj44bQAXZwS1XRedd0T2v5mWPm65JTrovvevXMd/O5d/5X/2WLPeNAu8sGVH9LDfnjPdcHnU/FjRdAyrwcz3ilPg2JaYZOu2mQ+mZReckCls8x9T1uQQF5YMvIol1umfFFao1DSp6920glJPz6LkZATt9lpTmOe21/pnSHNw52ufvY+bs53jCIoS2PaxQLfe4qPxlQfmQC+I+HsVrSbrR3vTPqeQILpJCTqFq/nu69u2xdwG37ggRkaPFmcsX/ovTetUCrNhIWZsAnzMs+WduyRmvoh+l2wLHU0dgWxupc3p1pOVQQ7R4YZarAuvCuUf3CoB5g3cFOYgo2n9/cPSS/zo9V7fg4N9Iwzi/PVc+PWfKlMaI3mmH/NXpaq3iYcvXom1PRcQmT4tKYdxw6cJje8ZngPB42zUGjDTuXfdMEi70Mdndb9tAfr0Lwr5S727AzTjjZabnVr+AIK5pA+3Vo9Q5m0PvzlZiy5YvcnFVYHWWHa+QYBzp1VV01HivtkLqj07PM2l+eFTICN3KVe9b4YCFgS8yLnZ6GiP09RO2sJeDZwOQojBAHp0e7XB5PEeHQhtepMo9v60Vv94gVhnqN7MGLosm/lrCKM2tKqVrTvVvfomvhMSLpuXWfsbOg/EDpSOqZpHd+ni0FV8xLJhMH3o4ifEXa+4UfJ50gTW+LPMwMALjvZzFFlrFDzqcTFowb8Ah5BzvFQ4nBLcpfaWfnktxV8Hcwcc5OY9eCWcr626vp1dKY/zEeVmHtva4O09fsVUKezIJ/RfbVPmDuLN0eM3SJF0u1vtUHeFm3SP1n5/HNQA4tnhE9SspLjMwAEEwTAtZU7/2VkRxjw9v/RNbwfk7Roudx68D/CbpAstE43qIbfPh3V7jNtngaBPVy8oO62TItLsR5P5c3X7ssGXnkBm8V0crd3KeDU1b5tmIH3g6rQL2BwnXxXOsHrUINDSNQKFujG2N4ncQ53y1rSrpixOmD43UralfdyXV64d9k1UCV5E0/FXxiKpq5z7esTiyLQVR39sf6OWf0ki8mYPh96ySDgX1k2NXNpXkRq6jDuLN9LJ9Uus+VALPm54f+aCwInw4ZcCBDs+3GQ1o8SCNKwJrXNmJOcKACz3cIIooNj01e8Syd52cp4PqdVZABvJEG4915cDZZQtLFTitxMpu+pvn0yqNiwoqBmXFc6jezLckt/ov5O/OIFta4F9thU/ZneByN8KdxGsrTaKukETLQz7IrVdQqpOL8+IP8/EthmjcRnXN6VYmm5Vs+tILNclhvtoKm80LR+IItaUDpnSuHHXInAs8NwQ1CCzJq/qjkHiJ3rXB63VOGCqvNLcqtrIZJOqtrZwOAq0lNZG8VYQ6ng7EVirpaNOe7TlutjD6hJMgkRdWDNhfgfgTsrhqRneY1xZWnOgo6nnUsJ+nyrvK01pSiDSpzFv0HljxnqM4L7Lkq/p1oxHUhXrSs7/UlXgCzIbL9EhSKm9jVu6ybWZ9tFAJdZt3s0o8bEvILx1e40pk7I2d0jaRH/rM4T3VfbNt89pU5svWg6N6NdfXDk+zZvrwyFfNdLA/cljXKbvU/1JrRPILh21glETRF27dTsmI6sdJsAyjjFnuzTqH83WdKx5Ws/K73ykc5HQXBkrvJ2adanHHxLHAsqM9f2VKI9vTW+LY9isP5r222Mk5OquM30pD7i2YZgwKeinLuMXJOTY1vPKZAqzwusIwwQj3CHQd63QURjsrYTacgCiu9brQ0o819SOC7rmRC4qHvbLZC/ekRwRLc6tvpZs7b/tjOM/k1mfkFS8ryY1c1pwIaA2zh0YaBMASh12EV7TtpVQc60URKF5yKH4WNj9yg//RzauDy3wIxpqUCixDqBf04ykHp/jABrnMzXvS8wgNSwwVoKaR36r3iH/aJgBvWlNfdfbOda7g+QFdBMJwxx1rFJ9rf5MUgaX39wIwJ1MPwdMTvhWIOU5Gr8bNG3IiSDhPMC0zKtM4d2JZdk78okPYaKlyasg9HXsFAIKGNCYXVAxwHIFei5WSvMg9ZrBpiBKo5znUek9dYQRQ5etHBEmId9X6PMyLPGEo+xRysv9IsZOP0mu2reAUEleJmSOm8HGykTgf8eFWRMsTqzDRUE9SXn0dpz3WA6hmQ5/YneF9cv7xhxABcZ/TraicMjWvegV1wKocCINyN0X+d/c1KrKRhNZkamPPpnJclGr/JKU6q3hE1Z9+PG0h1Jh+PPnrI124SquEtrPhsiZZIEEeJzwMCrXBaqyfE+/xOqCoYcirQMgugmlpr1KHLf+Nzrt4z5EWtRclYrNR19Mq5cCAlXGla6MxZyxZX5pbdbctVS79mLddLGBjausQORXAyxvTt+a7MYcooQ1Rfu27e42oulChOlvv8Zdc/64n/uICyrAzSnKrLtETaxN1LRK5H1ODcW+cBXqHVzaW3v7YFONamYZSTO02vOaN5r6nH2MrAX+mdMcxjwqrG0NbH/BGW2b/Vq9CjcMw35WiMaGr/8hnLQSjIZ/81fkpqHdfKsBx2j9NG16zSyGNyrjWhY4TdfhVq0aO4xZYBfOGHCIMmOT1BpBUf9msscviXq21V2DwAAPkSJ7Y3krhYYhwz/Qhp8QtNMYuqaeyq/ZDWqUhJ4+vHOjqFjgzRtRsKM6NVFBDfT4I+1ABqogq+Av0+jRJNWc9WXwNdVDGN4m6AdQrfGjWact8sepRj66V5lU/9VXDuuP1/VOeLdWjNgnMq8+0EEawT+0+oiqPxE9SwnCQffyN6khxK8Xyw5s7wR1eKi+94ANRTW9tOpr6bL2lpSOp03MjNULidXof2lZc4zXK34u9YvcxUQyqsDVCkdKwToF91dS8pWsSbo96FD636h+N+2wdKIQ9hurEwh2R0xNR51SsfAReTZ3Rn+s4Xbsrp0nl2fkA4jQXLvqFML9qlcCKey9CakBvAQG9vCw89OrBJrW13FHjKc3z9D50LJlanfcdpDIunILiP/E+TkJL/UMEYaLTiYmJTyz0VlbwZvp0WSJOvyMgZYl+TSgL9zMMNYi678eQczkOUPx8+9Y4bvSQxVfUI9Hb+SyREl8iUbXYzza4Y47RTErYfUWVOadRfg2jn08i2zzGhdxaTf+8SHlfS2Xwn+LcqvdTkcamfequC6zuuBoE3kDp6raH3vcGFPA3aay6e/bQ1D7u2hVrGqon9UoPfyFjUfp372/1KAKl9d4tHeXvZ7cysK3uJBRVhNfSOf5IeXVUM+X7b7rYr/VIoZfyqTi35t8TKzLXgTB/D0JkNTPi8gJKdVPp8NqlybzHHQGH/61fE8pzjidfMlQgDATEHGe+KjaPTo9YvqwQF0nzy8rmHt1e9dyQXtgIvxPu7Lv8cmsfFccVF+Oq8iEnmxAoo4M7enz0al0dbBrySO7yuJxfQUW4RwDVBxJS9HgQcUpxXtXtTk4xYV5moWGaxam5fdwUVQ1D7hv5ysq48v+1AQFzVcZKQ8p+3m/OcXOT1Zh/36ili5J1xcvKMjt1CGAvZZu9JOAAVHAA9dQOJLvXizEOotqdvgcBvIq+t5q+/wHd+//Id71pSfH5tg7Gl7FJ1AmgsDL7l4DS0XY6egSPeskHxnv85PJBvS0I7kt1ehDZ5yC9UTYJy59RjgSoAfjJI23cPnezMdZ7FeJj+s5yMOSiKNqfzhhe87GTuZ1uMrks8zDbMC6hu9ETeXdaig6fUv/mKSVxjlurGBPJxPLMIyUY51CmnkU/9tnpTx9T2uaSmF1YnF/1hpNrTFgQ7kPlmEfnGk2vY6mMgzsaw3V03aUC8PG9OsgXbhsasbyaT5PnhbuigafT/Z5HN56N37flWtz8h4TM/G229cxD+bVbvHC/U14Km+vrowcIS+6HII+lmtWfbvnQmJ8SYneC+gvyU58IUB+DgloF9rtgwJfFw2paPCpWWJF9Fwh5rRtpUChOL82LPJ9QgXXNnMHpjaHAk9ToDfd6ZVVo/Tu6T8N58W7hcVVZZmFQBopTFprB5wJLY6N9/fS8mrvidrhl2dOllOOFD1DKLg82Wue0ZpVJwhwaCrnyyd3X7yfHCJVsceAFgbUr9FzBvTIG95EQ6imVhT/qpFlfN9T+LxX5FWcGwZgnv5/6kaoYZX5Jx871xDdlvAv7/fZz/zEC3V6Acs0zg7vbVuBwW2H37Z0OYyOC/Y6expBIP+W0PArLcy6nDuQsN56AaL+zTdlHtVawtnrYrClonm1IONMXdVSJFU72R6NSGS0YRwDCJeQA7o3XQTbh1ufTRefxfog/BiCHN4YMbTN/T/W9eHGVn1fZbptLdHiHVf6vcAKfFD4VVSlIR1uoJwkT0SRyCyvCV0ebUI8mHi9Bfhvzz0I0lhRVZv/L3BZ90EmHMlH5T/d9KZlQqVvTSwDFP+MZDWzVxfUjCSljQUWl141OT2YECXEPJeuhapDGkRxY1BlSQn+9UCD+ExjvoUptFOWWCywwpDBvnTCnf0cueYZh/MrEecfvVViRUw4g7ia/lqlD0uz0ZzM2/wtlsZUWfGNSRfYVsThTHkA/iiysDP+OFMB97gU/x7W2Af+Mq/lqzZeDYP8f9dIP8YWFIK627Ojb8R4eVU2nGEL24qrmWHZQx8c8N96j00z4HAGX+yW1JCj72aEuN3K5MwzjR/Q0IGmmP06iakQLepWHoZD3B+s71BaV54wrWpjVP1X3XViRecz6OnwCUNzuZmxOFOKp6cMjcbVBLRZY4+af0N+EwOV+GdEBgav7jFwa13YSWgUHIO1EHr1yqSwAhujh5niO1Ut/lbD/F+d6jOTrevovAObll88dfASXPMMwfsPKCFKHWO+T2ioffyT9M1PY8mkSWg8XlYfPLVp4QlJW3xeW5xxErz+AMJ6mOznbZY++1VD2vfEe3aI5WHoi2jcVwd9QAnr6JR6UQvF2vM93168XfaQJv+Cq5prA6jthYc7h00XVf+MycSU+FAb6KL1G75Ahfk315nKeC8UwjF/QK7fFl2Jy/P1Z2J+O1RtBXwh2+urCipxFEkWFbUSXRoNNG92KKabDLwQa5BEIxsX0Yy7dbo8EZclMHbw4oQJr7fzsoYYBY3wVbBPEf+M9FE2rjwCjH3B9cwUpZM+oFdUR/+MqEwOM9wRiIymXkD9SjPpR4di15ZmPClH7ElsAwzB+ILi64yHUdjp+zKfno9LbfiDgAgRxgVSBxmB9YEVhRfYb9NeVCLiGrvOlsNU3gaBcb8pNm7cFuv2kyc2IbsBt9d32NgzVHZTYW4EOQSNPEI0YposcnMg2GlF8AKb6q5NzNCuw9OjVunJxCyUm3T9mgkpaIv7Af0ocAyYYXN3c0rrCtEX08Pgrq/01CqOOzhPyT5ohA4ScQlprkR+XfjMM0w59NYquSO0nCSS3zxyiUx5P78dvvw7oWOxbqPu80YqKjTZ22yob8ScXbcRuKEH0QJRdyY/2gJ1blYR2kUWDjvzfmphbcQmstZWZFxhS5vjJSHTsGjTVJ3HrKymPYXXlprGiCIpQPy3W43pkZsKHVKLfUKXay0/pllKGx1dknz9DVD/OVsAwjOcFlrSjqCVNMq4F0Ine9Kuv1kuwK9EEKZt9e0/JiKpypyfZ4yR3vfRSKrPIf1YC6uuGDXGNYGkRQCf4GVc118vkgHXzj+8Wz6GNveo3kkbb7MdkGwKKkjXZk2EYxpG/Mq2PSdA0tfMhgX83ibo/uNLJ3uPAQV36MAHov8neNr7fv2fPuCYXr142wJCI+3NVc539GLDwLAAAIABJREFUpQh0jedAHSwWJNT7NN0DVGPgDC5+hmG8zj1nLNGbvEfar7bCiBloGjcrd9m2hAosHX4fQJy5Y7Kav/JIiG0r10bimvcS+nqTpJQfyFXNdTpGA4G45/EppT7yY6Jj9UeKYdtHRhmGYTzus1DdgQKj7S7hJK6isul8LTLdOuVunX73wKC+4LO5V99biPhK78kUz6FR1UNPpOMpWC4jAbpIFF3jr/Sw1bcOC4ycdQtP7Ms2gM6nU7BQZZiEUpxXExEI19FHq72kmQTlvxDt82aOWOLqdlm7dVaWaDpEgjzAnwocV8UbfyjQaPRFbP0ejUxLsNplqqkeHVRvbTu4vZe+bRvO90wDsZbrEcMklpK8SDE1pONIeKxqy+lEUlUC1e1gfHlxSX7tl677/t39IR0yfuHXSObUT45bICmJHP4qUcJXiUPiL1P80Me9I5EuOrX7wLVoiLdiYWMd6SvxCdckhkk8xSOqHrKgaRCpgN/T639t0COtlALPKs6rnlI87IPGhHSud3tpKY9rl6MNCjhmUaIEFkKH+Hsacquv0w5yQHsv/wbL2ooC3nPY5XybaxLDJAf9yKwkN3KLBY2nIuJEqoDV/tdVYiP98wdbwinT8qrLEqon9jBksC+bV2pRyvkuKxKAt2rxQp1G0e7r00N5tXWksufH7xcpFxHmszUxTAqEVl7VdGE0jFAoTqfK+ATVyPV+SgM5jw0C1DRL2gOKc6t+N3145KtEX3MPj9KgO5tVyk2ib2yTZEeRwDHDQyIj7nRsnyDt36e3gILrE9mxrBAPKYGXkVH3isOC7v+qsXoF+wWGSQ3Fw17R8Qif16/JT4cPVLYaiQpOoZ+PA4B9PCqsXif/+7wt1awZI2qSuhp9twJLSvyZnxu0eNFzsDyTasPof/mzg7s9KBwsGwXzBO/krv15/JVE9PW1NRocvFYzLbfq/UkV2TcpIWaRyIJWlP//hFK3PTlW2JyLDJN6pp4Z+YTe7tWvCQvCx5pKDVQCsqhSD41t+pxSUUX+AtWL9P6iNLHK6ZY3rgssujHbtw2ag6XcyrC3GmDqx2opD9VAqnug1Vh/BH2sjef4y8p+sY+QeKpnhLIZ+Cb+MvXXNjk/KUuBLAy+E1nVDxSWh9MRxJ/IMju2oAe6VElx6fRc91f5MAzjnOnDI8vpbTlV1geven5Iz2CT7GujHEwN8UmkJY6mtqwL/b2z+3saYyOiqKPzrgXEFSigRhmiOmQ0fuZmPCvXBZa/gf46UGo8vd0OafUfNjSE0AuaBACCnbDz5HgFVgZ2vp6S0c0LJaID10lwIDJ4LlmbQi8DLyrPWiFA/ha393p/KrQQ30WAOU1pW++addqyTZxrDOP9nuRMsfhr+qRfy+hVqn9dWJa5jzThaLTlAfSd/UgU7U0+vTt9vRM1DgHqbO0Nu5lCgts3KdxA/2xCBJuagtX0xXV0sS/pTx8ZaL03Na/2XS9mh7n7fGqfwTYbrW0WiC56Y+G9PWGvIEdfNX/wFTNHLnmgNcddMXfAaVKKK7yyJJIqxiZb2Zvizwfs6+dH1iQiOHjtj9ABDQteG7A47auM41HIY1DhvgCxqBZ1KOEjen+tJDfyMecUw/i8Q7U9xtRPRqCLFvYL2en7BnCr3ctAucvmygYFMtq4aU1065b+Y1Za8ca49JTAUgrepwb6534sTGmInwnRnxq0la0eMemevq/9zWbxKTl6Twgs0hRGwAjee1nZwLqH8l/7Z0sOGTfvxFMMw3iAlH8n7ygMXGtapoNQC9jD1wJLiQ/Yzf4Uvc8kvS3e8WIYpj11smLxp2IxqOraYvr2MFfJX0swf0TnHhnd44q5dNvQiIVCeWylEnTIkB2emFiW+cfxlVm7jQg+uXxQ74llORNNac4zwPDUhtUA+FljsC4um7rwuaM7CAcxtDwisdawO2UYhmk/7H4OFugQ+X4dMQADbftA+rAhvuPtd4XHtjzTJQHS/D+p8IKJFVlzEeFNQ6j/WUpKQ4i+pGAOV0LkSgkDvFZu+hF6VEU/nDUyvh3KOzZ17g0SOvm7quHngmEYhmGBBUq9Lgx5ri+bMoGGiQG9+u6NuI5X+KZnt5QF2F8K42qtoVDIdaZESZ+7avnl3fIQIipU3I/IZBT3RwO7Afj5ESFHIGcYhmlP7LZRrsdtb4BPR7B0fB0EdUTcqtMMfCYQV3s/naKHXonhZXEVExeotoSMUNyPXRXAQSSuuvi1kul61CC3vM7uhmEYhgWWMEXwQ4XqU/82avLoeI816pu+QAHL2TxcElgCv0TA+AUG2P38PMGd6tHH6WbGR2wJDMMwLLDE+ujSz1GpKt8KLMCDC+YMiGvU456xS+oF2kvZPNxSWPjujBE1cc2Hm/JS2DRFoJ8Q6OPk21U9hr3Mc7AYhmFYYAmhg3QiiqcR/RmBGkH2CYbS4t6eBIT5mo4SyybiSmFUxHvoqvX1fZQQx/hXXFH9UWKhn2K3MAzDMAkUWBqrY/1Cahzf8GfScC+SSb+I9+jNakOthfgutMP9GF0tBSU2yuCWsniPj5qNB0iAfj7OgmUyFH2GLYFhGIYF1nfo7SmUtIr9mLAdE93jHvmYPerNjYjWM8g24ggl8MXiYcvj3mizg8gYqIOt+jX9tsDiHTvQMwzDMCywvqfniNrHlU/nYlG7PODyZwZ3j/d4E/FxgYof7TgAhfWQsxOYp/hWXCoVmZFb/Xe2AoZhGBZYP0HPHUElbkchGnwnsED+QtTXx/14qWTkkreUwIVsJvEqDHyjqVG9HO/hExYc30dKCPtTWWI9CnWb3vyUDYFhGIYF1i7pObL6JbTV4z5MXyggO5zk5ASNatsMNpM49IWIPR584sGxS+LfcilqZgFAZz+m31bq0Z55tRG2BIZhGBZYu0WPYjWo6N3UYH7ltwQGwDiLWvu4Z6rXBzfVKLQXsam0UmAhfiQDjU84Mk4wxvoz7epLy6i/l1cOMgzDtF9aJTzGzT/xtqARusVvMYka7bqjZ41c9la8xxfMG3hBmtHhQQQRZJNpGTaqW6bnVf8+3uMnlA3uJ0UwAhL28VuVarIbptw3csnt8Z5h8tPhA1VUnaRAHPid2ETxiQzIRVPPjHzC1sUwDON9zNZ8OQryzgDiWQDiSD8lMiAyrtDtVrzHh0Ibn4w2hcYHjMAQ5Ck1zaKU+sAINE51cg4UgVNRir19FyQDxdtG0+a74xJW88JdbRPvVZa4WO9+JH/UFaLfi8KKnNmGCbey0GIYhvF6d7uVFM7LvgBMmO31/e9+3ODLwJYhTsIFjC8fHDYg9Dxovcbs0aTAti6aNrLmsXjPUFAxICNkZ5QJQ57qK20VCypqX1QysvYfrT12woLwsVLhIsq9ZncfIJG/SUk4afrwCG/nxLR7tndM7JNQwLHfeyFcbljGoqmjIhs5h5hU0WqR1GRum2srfNpPiTSkPHhbUyDfyTlm5C2JoFIPsMnsUVqJKDZVWk3r5zk5jxk1j0MJOX5LP6JaEGiyW5123UCQuHqkJeJqRz530WJMP0pkq2Pas7AqrMh5RJliAwhjnhRyyrcv/bNt4if093v19zi3GF8IrFm5y7YpsO9GIep80/BROtNk6NzLyjI7OTmPwvo/I+J/2Wx2m88blGr8w/SxKx3ZBpiBAgDw2Xw33Gyp6D2xfSxbiWWqq0k0tSoorhZZtoW3stUx7RE94qsFFNWDi/dUR+g1mb63XH+fc43xvMDSzMxb/GIUo3OFj7aRkWCcnCbEQCfnmDHytc9R4O/8uj9jorEwevuskcscbZJ96VNHHQxCnuevlOuJ7dZT941auii+o+GSOI+7mHvnTHtDj9y29HH6jnpygP4+iyzGFwIr1l+3dfBR/NpXzSDIa52eozSv+imF6l42nR+ibHter9zaaU7PEzI6XSdB+mtrHMQ10mz6Q7w9cd0AxJ3vhhrJ1se0K18Tbfnj9J1EVhfDRvbbjD8E1qxRiz8UNk7zU2JJYA3Xk9Udi4BG63cKkYNIfi8wlmGgcYLTuE9Xlh9/pGEYZ/ttpaay1dQZI177KJ5jDVQnObr2TqEcGKatExuFgjh3d6DjJlZknsS5yHheYMXsNahmKVSv+yexQBLA+FPRwn4hJ+fR82wQm66w0f6ovRsQiaENlmgonD78VUdBaKegkAEMTpZC9vJV+pV6LWpuuz9ugYTC0SM+icANBtNuAOVsxBaEcQnnIuMLgVU8rGYtojWVGtmoT8SAMKQx0I72/JXTc03PX/KBZdWPEYhr2631INRts+qvmpH3yhKnp1o7L3OIBOMcXyWfVLat7KmzcpetcyCQeF4IwySpQwHII76MTwSWxgis/Zel7Gq/THjXq9MAzF/rjYSdnmvW6GWv21bTRUqpLe1OWyFua7C3Xv7QqFfnuKB8QZrGzVQ2nfyTAyAstCProhudpp8nqTNMi/t0zuoLHc8dGsY/Aqt42AeNKNRtZLqNvkk0yCNlNFToxrmmj17yDAmsXyGqTe3IbrZts+svvd8NcUVcVTb4cgD5S185eiEalLRuf3LsyiZ2IwyTrG5N68KZ7OL4LpyLjG8Elua+/JerhI2P+SnhKI3rCuYOynLjXDNG1T5tW/b5AvGzNu/gUGzdpuouecglcXV52S/6SWne6rstcZT96KzcpTXsQhiGYZiECSyNBfad1Kv/wjcJB5EWMtP/dv7CEzq7IrJGL16w1dqSp2z7vbZqLFS+q7aJuvMfzF/2pFvnzBBdphhg7OunlYN0r5+hwrvYfTAMwzAJF1gz8mvfRTs6w1epBzG4Q1Te5NbpHhr9xpu2aZ2sUFW2NUNRNi5TiKMeyFtW5tY5ryg74SIh8QLf5YWyZ5SOqnmP3QfDMAyTcIGl2azqHlBov+OfCO8ogjJtQlFZ9nC3zjhzxJJVdZ3kGCWsP+m9ddqCkVh29CFbWcOm51W96tY5J8wLH5su0+/xV06AsFGtqA9sfZBdB8MwDJM0gfXY6BVfR9H6m7+aTOyIANOuKD/hILfOOXtopKE0t/ametx6Nomslf41D1xLguLSXvmLr5w5erFrUfsL5gzoYhhCj3Z2953YFPbfHh62fC27DoZhGCZpAkszK2/JowLVc74SWSAPDmDg4TFz+nd087wPjFy2MGpbQ9G270TELeCTkT0d3wlt8bCwrBOn51U/4jRC+86MmSMMM5R2r3486zu5ierZWXmLH2e3wTAMwyRdYOkhIWXbf9aCwkdNpzClGe6d1nOa0yjvP0aP/JSMrLnBVmp0VDU+6eXHp1oAKrSeb4Lor0pGRi4r1tshuUy34ODfGNK8xH9VBTdT7vyZXQbDMAyTGoFFlI6sjSil/uG3zAAQlyqrz3WJOPeMkTX/Wdf48rm2ss4ksfWS0E+bvCMelEBc3GBtG4UNG0bPyn15fiKuMrEi+4qgEbrVjxXFttXjxbk1VewyGIZhmJZgJkapCGyca01NM2S+FNDHTxkiwfjjhLLMzdPza0vcPveTY4UtRM0zU1A89/n84wdlyIxrSOKeSHm0X7LDFGwfrcJ1JKyWNomGGe92Tn82MvSVhIm+CeXZ+YDyHhKxAb9VEiXUKsuoL9Z27fcK//1mt/KkXdo/ik8UqE9My1w+dVRkY1twcs2l+QfpNs1Ppp4Z+aStOnzOC4ZJZjubQMbNP/G2oBG6RfisXdJ7K6KwrynNrS1NuMMrzzzSBjxFImQbYJ5Mwqd7gsWWpVC9ZKG1OAjymeK82iWJTuM4cupBYepAtPv5sYo02Q1T7hu55PZEnL2oPGeRAAjHb6wYKc6r2m1jOWFB+Fip8BL6eFJro2CTHX5Kb4tIYs4vya2Z74fSmjwv3FUZaiRCbM86neYD4qj/mwDFcgW4CKWcP314ZLkfnXtbzIuiirBj51icGwHBMH4XWJeVZXbKAPNlAHGk3zImNtEb7GuTIbI0evJ3zw6DD41GcWAQgtoh5kgJfamI4p4TRs5ROyOLPnxJn5aCwJfIyS61O8P704dG6pKRrqvKh5xsQuBfZGg9fFlDEN62G74+cfrYlQnJr0QJrKLybBJVcImjc/+ooaW3RwwT7vXiqIbb6d2F0Jzv1bS35bzQItE27ZNQbN8UXQo5xek5VWxrtx8iQWy0QS7yq5hm2qHAivWgyzLPN6TxKF1K+jGDbGUVJeJxYfOCq39w7/RufaIKBgkF/aQUBwLIgwCwg1DYFUHPnwP8VgXQJ6UkbKICjZIXJMcHH1jKfpt++/431sb3UrFn3viyzDwD5Cy6796+1FaItlD2RSUjaxM2n9BtgaVHrAwb701E47pTIzvVsODWVD9C1I2vZaqrqdNwdbL2mKO0zyZxcavXhFZby4vJT4cPVNGYHecntc7HBKS62i8jtkw7F1gFFQMyTJUxx5ByuB8zSD8utBVO6ZVX/Vc3wxU4Ei6VWd1MKcxGuz4msEJGOlhKWDNG1GzwSr5NKAtfaUgsdjICl3JxjXZFqMH6//buNsaO6r7j+DlnZr1QHgwkUFGJYCn0KVEKeVEwxutd2kATx/tgS3WQGmB5QSBmXRa1qtQ0FWtCwgsSsFlj4wXK8iCCncRe70ITigS7XtvYKkSGIqgiSk0pKg9Wahsw3r0z59851+ti8MPeu/fMfZj5fiJiG9b33vnPw/ndM2fO+dbdS3ekNmGsz4DVM7JgZdK43lyl82Jf0hB116ohWv5kS6+I7qvV4r3FcBHp3noYp5a1WrhxYloFQ7VcmNlt0+r2Ld1EBNR1wHKmbhNtTt7s1EYtVCy2/4OT9v39o1e+/BGHzYndsHnuD5p189+JVrMadytkf2wnutZ07nwu1cbRQ8AyTbo7jmSo3DFWnhqiVUlD1Fut95vq2RhMs4euUUJmFmvhtik5lnfVMlx9sk3xYnqyUImq3La7r2P7swUpbGycJXSOFmiz/LSPT9t4w6ZL5nDYHNt3Rlo/v2x43sOzTPP3GztcuYHt0S/SDldeGgGtDjdIF9amUvrmnpEFg9V4r56R+V1uW+shUExt+2ytgk1u+90tumq+d1ZrkWxTXz2Eq6nmcSVXddR9wCo2BLG6LfmW814jFysw4ZWzzKyneoZa/oJD59OuH7p0XpOS4UA3XdPwGyPyrgknb2+MKKjPr3WDlLz/tWmHLDdw2zXg9dP4fnr741BGqxWyMl6Lrno6t9yYRq7uqPuANeBmBY/lnsavmPlSkrR+vmxo/u2+Z31vzDCi9I1Dl97QHIQjRulLs7BJNrar1i564Q0uD2WHrFS+8RfDmzYP1fn2X1iNkJX1WtRbaNQ2OoOzG3UfsIoH6yw7YMX+uvEbE3VqEAT/EBd+9+nvDl82N68Hz7LNcy/oGV7w86Zg1n1ambOysE3J8fliITxwP5eGGTWsN7tbVz5f81Bvjb62QbY/1ZBFLQAC1nH1L9z6vki0yj2Zl4XiBSZsDVTwq2VDl/1jni4kbgqJnqGW5Vo1PauNXpKV7XJznykbrRpof3EPl4YZX1IG3UBlH69UDGt13ltzrGBhAxn0/bp5qcXUfGv1c00w4V7OaTREwCqGkqb310c2Hm/kAe+fuohoPTsIwtviQEZv2thy1a2iTJYPmGUjLX9+dvOZozow9xhjzsvOlmkVSTz23uS+9VwWKmpUZxfnL6rQoZBmBhv0otB500hLn6+Xy1kt6uapPTcnFhOPoqECVv/C1ydE2RXF3oIsNSxaX2iazE/3DLc8tWzTgiuzNj5r2aZ5F/UMz384UPpfAhNemrUTQZQ6aE10Wy0mZM1eynKN6uE172bGTT9Qj4O4S7+wmlt9DZDOUy3cxKX104tlezmZ0VABy1nX+fwWJfJoJgtqzNeTi8TTqnDuerfAcaNvz/KhBS09Iy3rjAm3aB1c06gz8k9/LY0fGWjfuTXTZ7vImJu3yi0VUlwu5NCfU2nMjAR9Mz7m3FIvaU0/cOwavJlKDWzltwrzVotDs8Lb7pqHLLHXMQcWKv6uWas37hm59I+UmvWMbsgFgEu+gE0o0dutjh8y4TsbXO9dI3xsN8bqjObTvj5LN9+Q7J9LtdZnZvkksCJvqdh+7d7FW39T9QBb6USj0x2CSYOpRfpMbIaON9O2G9+jxfT6/hxWRZff275ttJy/c2jtueK8Xud7PA/HRNuVJ2owpya4dD0W3V57i5KGur9jfEZBK8+1qMaST8c4V1yoG6rHpZBAwCrbTUPzvmeCph/modBW7Js2toOBUU9OmoOvDrS/eKCePt8tG+aePNFk/lBrs0AZfX0Sqr6cXFxzsep8FEXfW7t42x21eO80A5brlbi3fbyv5M/yZEuvEnO3xwar7OVG3HgdHwv6Hm4wtZa+/kXjJY8J8z07ugu4SQ3mzOj6SC2mPoNts1oV/14aiz1rJbusCXYz3gqZClhXb/yTc04PT3/W6PDLxVEwOeCeoBSxzyS/3aZi2f75M8KtKy4fi2r1eb471DLPaHVZciC0JhfSryXBqjlPh38s8csfRPuueHTJyzWZBDeNgFXJsiWHbkn5e1rNROrMctao6xlZsNtHj42rgTW6baaNpptvytuUCDPsxaIWxzg+R1orbij628dy8cURtRfW8s1do/adzXPvbNbhYF4KnlyomrQOFia/XSih7PvtfnnjpuHWV5TEo6KiLUHTnrfSupXobv2dc8rsc21Bz01C7Xyj5eLkX1+QNKhn5fUEiFR8Z63CVWrHmEhvf8fMxo+4xm/5ky1n+OrJsoF182KVdH4Xw52n22GVBArH9bwl4fcMN2C/4kyhdW+pNaAWAAHLm4GOHY/0jLT+ldbqirwVvzi+waivGqW+qnRwtYiZVNHvvbNs87k7teg3JvXEriAI3m62wb6CmAM2LuxvOsnIRwU5+E+d2z448rWufa71pNM/jk+biAPR0cFTwyA8xRozW0WT5wVm1h9YUV/RWn9Jx+r3w0DPOvwJ8kzEPj3Qsf2xTG2TW3y5gh6CYshaNL4yaVC7/PSs6ZID1tTPVh4olF2x5pvjFd/uMbHujkPZXek4JDcflBtTVF7IoRYAAavylCF2c3SHUcHcJACcluedkWy/Cz5fCLT+gvvzycn/RETFyn6ktfw2DMN3pKDs72i9v2dzy7uf9FgkP7bfnqm0OafZDfcKm8/WVn3OiD5DBScVfyagU/yzUWS/VvaOTG2RkjeDSPf5eC3TpLttpP6z8h4L1VbKz7kB3VarTh81KGfc2Ym4W5vLh1vc4P+Kb5kaK93JL73UorxaAI2sLh65X9OxbdRa+zi746gL5FTwMqcYrc9LAtifaqMvcb192phvH/5HBebq5NdFyQ9enATWucm3xC8qo1mi4gRikcf727duyVRAF+krZ7zTCRtU9xSVyObKvz/p2aXMgTR1K9FLDXzW1N0y9TR1QcnbRy0AApbHlkHJhI1WWSXvsEuQNqvs2xNR4R533GUojO/rr/DW4FGvqa2X1wvEtk3/XrqtHmvgK6i4weqlLiFELQACllcPLtnxWhQXBvI+Lgjpp3l3nLnjLWMb5r0xdU8h+pjwUUSX0pj6mPU8lYkh3RxiPl4njuJSt5FaAAQsvwra/FhZeZXdgtSIeiWY3H9X9jYrTqVB1aJGPbzGtI2pG/xc+ae1qdSgeNtVZKzyfaRLChXUAiBgeeeejBPrBh6LZdfAewgRicUW7liz9NUPs7Zt5c6YXnIzraXip71EqxOOB6x03cLDgigYTau+SR0qfm0j09/6oxYAASs1k+GBjbGVX7Jr4L1hUPafmybjTRlMjmMpVq3ixnS6Hpnkv1f8QIYbfO1rgP+xP2P6QZNaAASsVLklZKyO7xKlPmT3wGMK2a+kcPfdS3d8nLkt02p3aq9twr2pf34Pt4u0pFeDqdBScR1KufVHLQACVqru69j+bEEKGxnwDl/fuSfj6BdrOnc+l8noqCS1BrVRJoRMQmaqnzOtW7DUAiBgVf8iEavbkobjPXYRKj+Y5F0TTt5OIWrHTZ6ZcsjcS5WpBUDAKsHA4u3/IZHtZxehUja2q9YueuGNzJ7EWtV9gxqF0XFvfRnJzxNl0w1ipxYAAas6H65Z1lmxv2Y3YcbhSuyLhfDA/RnfxkZf140Bz9QCIGBVU//Cre+LRKtESYFdhXKJyKSN45UD7S/uyfhpXPc9AdOM2+GWFrUACFjVFjS9vz6y8TgD3lEerSKJx/YU9m6gFvXNx1xbjSKMwl3UorRaAASslPUvfH1ClF3heiPYXSiVKHXQmui2ny19leOmAo2yZpyP+aOqIc35qagFQMAq27rO57doK4+wu1ByIxPbhwfad27NxUmc4sDoKIoaI2CJSnVweCMNyKYWAAGrLBIUfiJK/Te7DNOxIm9ZsXflZXtFq9RCkNGm8sZ6mpnmPc0MnmoQ9DTD+kvTvw+1AAhYVba6/fl/l7iwll2GaQNWHK+9d/HW3+Rle1OdFdumv2acp5nBz09zri1PM6zvpRal1wIgYFXRfvvhA5HErzDgHcdrWiKxL38oHzyYty3vGZnflUpjqlXFAWu6xYF9zQweh3FqYdDH4sSlLJJMLQACVk08uuTl92KJfsxuw3EbFhXf6Y6THJ7K3gOWC21a6dmVN8jTr43n55aRSSVkFnuDtG6tPP6XdvuPWgAErJoY6NjxiIg8w67DUQ2T2KcHOrY/ltPN7/J9W0iL6fZykWkyoyX8mI8GN5VQYQPr5XWDMCh1G6kFQMCqgeSrj8TRj5LmdD+7D0fEq/1J8P5RXrfe9TRFoe319XrLnmq9SGndWfFeUbJv1TfGdpfQdA/5qMHy4ZZu70eW1n0e6vBSaXWgFgABq4bu7do2Fsf2p+w+HBaLPH5vx/h4vk9mc2sxGPl4LSuDnj5WSWEhiILRegkAR3IhxQ0a9/BSJW8ftUhX2guPAw0dsFwv1oSNVlkl77ALYZV9eyIq3OOOi9yf0EkwqrQB6RlZMOjryUQtpQ1mLk46KbK58kuDPv9RUvJtAAAHX0lEQVSmkRYvwcLVMQkpK70co0aXHFipRbpOtPA4QMBKPLhkx2uRLazjicK80yqWaJ07HqjFoSkb4lBGZxqypsLVtT4+i7s9aGJT8u0u0dZLw+urJ88GMuRjkL+7Jbbmm2NljTmiFgABq6YKyvxEWXmV3Zhjol4xB/fdTSGOClm7yplx2wUyn+FqylA5y6Gsbt86lDTAb3q5sFkZrSRYuFr4eFquuD9Eyu75oRZpnh9BN1cJVOdYa3A9m1q+rUP9cLIpht2Zs2wlEisbX7O6a9vjjboNy4cXjPpqvI7TY/CwqHjwePMruWDlngxz43U8ja/5f1ZFl5c7r1NxYLY2D3na9n1aS1//ovGSG3W39mIcFXtrLvT0Gd5c3b5lzsyODWqRxvniahFEes6xwr/7UuJmqneTqRqt9sbajNLjhtwGrFs2zD15sjncYEywiN2ZL3EcjzRPRt+6e+mOjwlYJTSwonaJTv5Rstc1IsU169J6b5Gx/o4tbTPsMdntNewln0W0Xel6haYJE+4pzG4ft8I+eW97XX/H+OCMv0BSi1TOl6neQddLuNet5emWFzpukExqFge6l6CF3AUs58bheX/WpMPhZHNOYZfmg4h8YGWic03nzucaeTuqFbCqbSa9V0f2IhgVet+vnw2Z7t+5WcmnGtfzU3i/l1a3b6lo/BO1OCpw+r6NXXK9rNFthCyUIxO31e7r2P5swUbrGfCen+8FBYmeaPRwleH0O1bJki/Fv+vhKbqjjxo924XZ5Neb3eBv98/Un89PowxJg9xd6WtQi6OCzu7aXHH0bGNliJMbuQtYxRNAJvuSb2R72KV5aMDVWzqwKyhEfXK3Uyq+MMW629cg71qwyq7w1dtBLY4MOrVbYseFzzQmbwUBq+6t7XrhrQPxh7ewS7PvYPzR3963aMfbVCK7jakbgGyN7nK3ZhrvC4DrwRvv8/Vy1OITtV9iR3dxliN3Act5YPELj0kcsxh0hsVx/MP7F//rBiqR/cbUBTUt0ttQJVDykon9N8LUYipsfmNsd41785gFHvkMWM5k8PGtsbX3s2szGK5E1kXBx5lab9ANMs7EdiSNXhrBovjUmdjrGiVQBJFuK2fuL2oxo9ce5GoIAlYNDLS/eCBo+p/lVuwD7N4MhSsb3f/+wT1/7fZvpgLW1BNclTRkdbAN7gmrrrSDRT3fIks7XFGLT4ShqWXA2quAvAas4kVo4esT7x0cv9FG8e0iMslubuAAkuw/sfYHZ3dsu/FnS1/N3L6sdNCuqLi3lr0a1Xp83QUL9z71GCzcZK7VCFfU4hB3m9CN9avRFvIkIcq4vmfc9ZsvuapZz7pda/NFdndjia19PZLJ7w907Vyf5e3sGVmwdyYTOroGdnX7luKYEPd0k1uM1+vEkDXuqTiWQzPPi1u6pbMOwkTZs6NTC6/nzS5fs8yXerz7mMsL+ZH55WXu79z5hFITV0gcP26VCLu8/tniIjjx40ZPXJn1cDVlcIYX/JXH6NWoyi3D5H1WucammuGq2HuRvF9/x5YuUfHimg52FtkchPqiWoUraqGUC/dVPN73+ZrLC/mRq5k5l29esCSS+G+agqZ5yQnD3q+7g1GrQlzYHgT6zhMt5ZE1rifCLc5cziSPx/s27V4rCm1vceLIdBrTMavjvkomEvV6Tj/Z0iuie9OaILPetz/vtahGL54Lr26MIbO4g4A1jb/coILPNV92ldGqy+igM7kYNXEY1JYbZ2VVPCw23nRO544nVmhl81aDZU+1XmSsjJZyi6+UW3NT68n1eVtWpI6DRTFcFCeA1F1pNLSH160LQr3Sjf+p+y+SOazF1C1yrwuWu14r10scRmZltXtqQcBqaK3PtYZ/vH/yK0p0S6DDJUngujipRnNSEsNhkXqkssnVayL5/52xiTYmAWvra6fP+rexy8eiPFdlqidr5fFC0Uwu+Ie+4dsu1+CKVm1ljdFKQpUyMmQCM9QIweLI7U0a27bkj20zaXAPr9NntYyKMUON2nORx1r0jMxPjnXTVcH2ugCZfImwQ3nqRQcBKzW3/GruWYWCPkdiPV+p4Dxt9AUi6hStuI/o79tg8n1aq4/Eyusi9r9MaLfFOnh37aKt/0t1PtMw/rJ1ji3YNqvVnE9OVNkVRMFopd+k3WtHUZS8rmk79gVBiov/1mtP1Uy4BZMP/e7Y21z8L6J2W213h2G4u1HCJLUo7Vg3YuYceS4dzRaP9Swd8wAAAAAAAAAAAAAAAAAAAAAAAAAAAAAAAAAAAAAAAAAAAAAAAAAAAAAAAAAAAAAAAAAAAAAAAAAAAAAAAAAAAAAAAAAAAAAAAAAAAAAAAAAAAAAAAAAAAAAAAAAAAAAAAAAAAAAAAAAAAAAAAAAAAAAAAAAAAAAAAAAAAAAAAAAAAAAAAAAAAAAAAAAAAAAAAAAAAAAAAAAAAAAAAAAAAAAAAAAAAAAAAAAAAAAAAAAAAAAAAAAAAAAAAAAAAAAAAAAAAAAAAAAAAAAAAAAAAAAAIB/+Dw2huwQphxZzAAAAAElFTkSuQmCC;" parent="1" vertex="1">
          <mxGeometry x="120.69000000000007" y="361" width="80.96" height="42.5" as="geometry" />
        </mxCell>
        <mxCell id="4rz4LA_L3pTO9ttwV80M-35" value="" style="shape=image;verticalLabelPosition=bottom;labelBackgroundColor=default;verticalAlign=top;aspect=fixed;imageAspect=0;image=data:image/png,UklGRrIYAABXRUJQVlA4TKUYAAAvn8JmEKegoI0kZXL+3TI82FDbSFKz/ff4HohcRggK27ZtmPb/i5cYNJKkqGQc47N/fx/A//3nMoeexMBbYsQUj6gkxjbveCAIMBv+B+sCJ5gwhaO2bRtG+v/w9MwRMQH81ESwGUHpKuDbtt24tW3b8ghnABAAg///WJGSbIkR6lNE/yEBABK3AZkEOXalyyRNq+ZFSZIkN5IkSM7i//8FMjxIomt2cYrovyzaVsI6ur5ikzEJKioise18frYdpaJ+gc2n88Ed1l3BLKYDc86lFL7F41PJBx6fVzRTBdouctof2l2BzsgV6Upe7S4+q3YnaaKIgMu2+sul+WVvfvsDM196upCfP51rrJ9s4w5Tpo1uKe1DcajIL2A4PjZ7VCmtKpJ02wfr06934Dex+Zxb05yrKoTaCjdtP+wObz2CN19MwU5T29bq9ovnJsT4jen28brzphSh4laq31O/wDDYuhWU2Od6MDEeNv+qJXgIxNIh4UExBKpuDwF27Mc4CD6OgUGhfyUZvolTVDxICt/0EYxvjoVIahcHu9OAUNUzCtQ1lltuMuoI8H0pmY+6+xlpfE8NW9duZyRWboLYdHQ5/XCXiOeIjWv1ONf0Ys2TcbaCVO6MU1XwOYdHBbFMlabNiHvBMjdB5s1k8y2jiR/QmGA/rDm3s+ALxOE/aGJfcFiMoV8lqeYew79B5h/DmUY3VisxcqZ0QYWyevL/sRVBaIROlS4lpnpTCkeXkvgrBGIHgmVaHoQqNL+dv3f4XCQmn2npF1IwBvsi2vKCeU5tnVpeU8Oklq2YfBW2Of15yYWdlCOQ1HCLZlzkQq9pyS5c5H/lEA4XDuptXT06pxjf0LLd+yYZEHgHMImXTuJDY0S5D7n2iOKjkIuPi01ipqLYJA5H8Q8hsQNWy4l2o9F8QZtSsEkcjuIJ2hbWH942JI5PaDMSBNikwLvPSku4ZCVtEHE4ilcIgGdRxYa2iE2y6cT7hJS2/TlOG4XRG+kqBJ5EpXmvqHa/7r53OHa/7hdxOOLtd8DtYuNWe98yDBR33DsmHciV9w1z4Balnbjgzl4r7ZmDTVbaOrSdVgKlg/QDbdQ5flushEsdLbSBpejOn40Cv6eZxErIFGnhXUTb21jAFMVL2r9QuyrbSdR9lQFTZLyXSBGbMg7Euqf5fsSJpAsZnp4FVUfpbhbPgyLPNUCMVsfq/rQNpM7w02N/yPlqTORMfDH68fOosr/rct3QDzvS+SpqKZ/8nYc/fBrp82kkxKexENdBvP5oA6n0qpwGUfzzyLPrZ0SngeY+b4OcK5mIpaaNQnjqb15tKvlwe2OzoTq2D0OLe2F8z3UHagWtza5i2YHqNBbY8NKLsjQHGHpzfWY0Za+0jsrwAf1fj4L5Fxv4PMdk4JHqYuSC+NJqBPYO6tr9NIjJSuIV559q6UOLc1Ilix7JhKfQ9tMKPCegamJ3YbFlv+9PRDbLrRSOTjQ1Uo9VG/pSnPv5HNKV+gBmFdlzWBScxBRXGJLYd5Ws8HrfzqtsJwkxTyGN3xMKz0654RHpOF4RJh0bXyAmHWshL0KW5eX63edkUcpyJlgqx1uCY+7K2Jdoq/IAzE1JV4TJrtfIZwRl16sWf0IWF8g2Z5ALy/EIzU15xCP2rhARiV2KuhYbbG4mcirkhVwDgp2KRVdSO7WyxYRwqTE4a+Ysq/Hiz9QVKTjrQHERtWchLyRlhUunku8Bjc8usYaQ6TR5F7IsQRuaDcbuRVvJNiTP7dPiXuC8z9ZOH/xPfAHA9jrKkpkZmg3qYAqUVrANzMxA+gFAeAFSyT4GnXyvq4c3be6aLoY0d01wGqYbQOSTR7OPgYpOP2uFylP7RGPBJYjFdJa6OPM/6zW2asDJhtNdKaY7XSRm/sVSaSX+hpmuxZHLkYrM8/38ux11kkOh8DzaDNeTJ7ieyKa4jFG+h7iI1Q5y7dVxpzfYBP9/SFNf1hPYndknP3EuTwzMfSgUiHtqnjY9WViAOVnBEiwfHB5gmjPcD8DEv1YpIsCmIgUFzESKTLCCC+I4DTVgwCzUkAFzUMMGTIGgCZEpIBMkEeMDUzSBJrVDvjcd9rUVEALhaDrN7cLI/VkgcZujApM4cKjmJqO9MA1YBM0BRtRxCDN4WkHpAQkuR8AmqLN4bLJWGqZ3Qg92zsgVQcecOJn3slXbttKIZ4KQQp+LNRkZSkgdrguuMZYghGrUY4crmBSKdRcQUEzS3rzjUhhRRXy4jDL9QVB4+F3i+SFfta9r83OlBEoXEV0UAlGS13tc0cXwUfqIhUn3kSlAs+hlLEy6P2TYLMbM0CySCZwlHoS2Micb+hQ+OiEbWn18B9+Eo0ynplXLV2N/lTFqmjV0+hacALJMJQSNfJVFX8PLJo+VEUIQ9XQ5xp/DL91oY/iP15UXfTQ/MzTTCP7DBWL6Fi7VZ+oxCMQ0xpfwORzMoJ75ekJjcfkWnvSEjg4R8kGaezzTx/BMiqOnrKjFS4h7uPL8GNIMnbIi8JUmP97byHeSJnZeP/ffUdnXSE8jGd/JKelbm2a5WIiDoe2t5FvAb72v1r1/BrSkmnkz+RgcAMbUfpZSFfGIrJ18DOur8RftzlOpmrgzRsJ9ySdyw0h956oAHksrPt5XsT4GD6rvtTv3r2gE/Fj5hC/itw/Xvv2rYqoXVIW/BuPrWNsjXbqYJuan0qeQ+EsTyd2eAx0vAY3HI1xfRRS+fPui1uuX2MSvBJb5+fEX8QSmNMo2zVv49XFSMPQhhKMaw5rG/Uh1TO0SENKkbyPS0iWlS0blX6soWPo4FgciDeCf+UiBNVUxiuPbiBJ16V8Xy8fCeuuH8c9aOj7JVGm9oqziqn8ZkfWbSlUYr8ALJZqQv4woUoepVGMs2bu+Cf8pindeu7tujjWeWsbSt3DJdfZfSl8g3F9w6JOPv40nkF239EVqoc+ItXJp8S08gVJnLVhnMMeLs6Z7wkexmXPqCuqljwn37IbG8ykk7lNzoEQGx5NyGUL+D/RqJQ//wihLV1kBeT1f55GiXVP9Hf5TRM/5H/ji72i11tbnP3XxX7kj6MEi7/Ka6s95wqg510E/7rtRE6vYPOkfehi7snEQd1qZ4aVPIBi82OMtOv6+xV2aFY148QDo96okx2Z/ms0i7Yqu/a1PmB0EUwZodBAkW8bb/F/fuRp4sHxQffzcrcY70EQarUXYFYaFlz1B1+qyqQurooBR/30vENDMl4QDNYKa1I89lI6g+CgL2YzQTwNnwNKAZQFrP/AFl60/0R0QuQtFpx97sRbqpg4u8TAdgynHWyaGxYB2KcjPsvxq6iuW3nvJY8Omxk4nIYu/ePWlaOur2xDKiuDHtiech8MAmhXMzQzm478ufu5HBK4fvSaneuo/efmarKusPzWfmK2pvu8S7ayvkVPjgbOePH5WPJPK7jdqjsGtHyk/+SVdSl3MOZzLar6q8VifsN6CbNDPdZ17q7X/gO/tmnoluaYfuE+Z84/9v8CK1EttmmjJuofHJS9B7KSVEd2r1j/OJEk9KGqEfFF/tX+adgSW1dK8SCGSHk94B66qRNNPwH/ZihVHHKfISjvbjNP6W2+aqF8b3tUInbtT1M5CSOxtwPxdxAw/tusIP9b0Sqkf6MHJFSp7gFfcS/LfSM9arEGBfxlhx22mX+s/WeSdtICyL9TjjuVjn0tOIzGpLxoRY6lLd4N1uXzjSMnnoXzoeUJwPa3gME0+vJZXQy63s+4GRSt0GwLInXpN1ew/dRZ5RJ5YnbqPi8NUew8jczxhPjzIDN7X3Swt0vK5lZwxHwamOE8go4NhYo8aDt4U7WJRUP+PewOyBG19iNyQVBVTqIqnLHk9HFr6l9JHr6DJyK/q3Z2ecBi8g6qkTZ1Gk9DbFjoJtT97zSnFGFPKu9WLRtvDXfU0W354Qj+lfLSbz7jxWdrYREHMB+KrcudRxHQRmUYlUtlltcHAf/AKY2OQeVLS7/YVNeIwmiEAprqEDrmhifJNq5d0F1xFhckLOj9FeSJhJ1BtCqzG6ur2hMMwqA2JdWEVg1YGAy4WmIQLKjwNAPJLI8PGt8mEoDfF3BdJbqNiPuCCyepZYrr0xUsE83pkve9uDKCIqQBjjsucJU5ezFkAqCXRJkyz4nGBSKiJUIZ/AkoPg6Hcrfqr8TKTOewsVubNS8dYGDKKDFotKSQP4yluCBqFyZcgCcZ89Ae7AGUV05MUuM6g8TLFCrQPkje2/WoQaMo1Edsif9/TLj4UvyVSWtXz084CCYOyjPIyAO8NZMRIF4RmNwxZ8b4HLQ3ALm5q5f8dmLiL4CpgPQviA5aICodr7fY11f1T9EXw8XSupNoRyvMJZ8ETD1INMY0MQHsDmVEuBNpUJtvnYUwNWjUYuhVXdC1IULFgeXugkTO5M4AIjaSURPd/7AFmtsWaPaE8LzkMUibmqS3QFGZMOecUJOQRIaBshYfNFMUPUkJirs88684IQINM8yzyUnkFqVw7l1ZoDQhQtXMlIWdYXugrlq2cw6E1XbJ3wE+XLTolOYmwtaqDp4XuSmHgqGQ6AGyw2u5j3vUzeo0Cybt9t7USK9T8HzbvMJCSmydBhaqMtduARs83BLkMZc9jR2pG2efoHV628aG7bCpB0loAoUPijHUptIDUGk8CW0HNj4VXKujV4xnPSYoPg7ech0EuaoitWZ0FSqxI3U2Qyia1tcnPZvssG/A0Y+6mVyAEYWPzZvThEvWnSBrLQsbK1QZho2DqPI/b6MZLTba7LtoDWhewml27KI9VY9mWbK3lQhXmdRpPRLcS7auJLhxE/NNdEXqA6jX1F57n+YSTUCUmkHqZgEU1Y0vM4yGPkRhT6Fy8pRhnEprAgqYkGdcNZEMwUcO60073/datZP2qB5t8ElVoDfEjsFvgZaLwMKJ2xOmI0ovAReKAWHvePE86SWBiRWoTFKKKBfmByiRQgOapG9FCu6vHoiploZZQEYGx78S6v5QBOVtcZPU1hxqkJ5FFvl+6deAD6mKg/DasbIoNzBbPJ5wkS5GYeGorCIqqcpySszOQKCkHqHKzBnKil8Oqnk5UNVkuRBBsQpxY5JMGfEHAn6RBojhWoa3XE8L0OiytEmtXcGb2fMLJA67lIuYT75utGEielcOuPBw0bUETfJl/6GclVOEcQYqgQB8hCgmFQ63BqQwlepjyJHJGps7tgtoRe1B5HOSaP7Xw5HjzuuggWWJi6owNIyQ5t5BCSJbUvjRUUBMCeuwz+RLkVl9LmefmMEaQmx0J7yCaRgtPoukpgM0GBiQUzsgdXqhErq6jNw/jJIiaIMIwtfV0QYOGhTSACaSE1FI27iJAhrLNYUUexwupG2A8jFU1bYCqQcnBxidXIjVtaK0dQuiRr5g7g15N+B9UCfxuXhadIfJMQEhtBcFeCRC1UInrippOE1iesCqVypNcZE2CMHocOK3jDQVYUKa3U0+QohiwQpQCVxb/DFY9OqWqfk84BF4/uAx4ajsmknMLScMDCwk9s0/D5JOEAUzVh5qxfNC4Gtt7QzRpBVRI5ET05Z5f41MciD+Jekv4i43TcnPHS04CvudDE6Q+BpFfBZqBVIIrylABxtKvYtqRuFduQH2XOhGAt98UyG5+0XpkhRdDOC/an/MAaKcgJsapzxIINA83HIAcSPsysjXSRRCWTt+DnFD8VJqTYNtwI38D8T1o4XDeye3madBBUAfivjLn6G8RzBHRkFxPy6SbvPqAmoNnhSAGKG+vIUEX0l/BTMbY/V19Wx6OYrDEE6Z+BwlpOp/mXM9WouDk1u1JwtnT2XVMrPid8tOnKfPLlGEtXxi9VnsNHW+4eRx04ECzVtJYHjywEu+rvMg0mKa6xjj3vAmUUIki1dhyI4/TB62HWbnIto4T9PYKKYc+d7wX4g3WKKp+T/CH3HWWlYE138/uGicZTyss+Ao+xRVMlDyCaGobIbb+ehB7taYs0yBbZdQLa6CYBWZm0p7WVc758N51HauXMeodNw/9BEShTT3u1lIXQNO/kTjY2eGalLpDLTdv4uCkWTBwJfp13TWlsCrW2bCrg5z9ppDwbeFZSzQD1isghV4K8RKH0ZndnuAOuWJD5Py4oAeQXcNpjK4tbotBYRHqlJvWxiTwQ6dIh8IvHdEQi1bbFQhrzMJ4YLa7gqntO5DpnRBetvzX3LydxEgC/z6YCcwIxTMCgQKqdM0DXfJjVTN0hyMqlY8p2O6NqHoUtRhIrmFiIkPbFsrESKBqpoiI/PFSx2t/zSvJRD16XXIOVFXsO/idIo9RLKtTA4trM1UoPXMSaUHlUpk78cBvIJb5o7wer1OJsaNY1JkQZacTWJNqIskl32hY0vm9r6ZyDb082gZnS76XG385cFq3034hL8wEbPeTNl635fLcSIuR+KcDNlcNSPmjvvlLKbrNQnCCmwdgelbcks2n49gGFNKrBFUpOQEwDQcYxb460OFrb9l7gRqJ4s0Hxs/DQE/uqsYBxi9AfZW3vc8n3KqKN2DIWN9xgKjVpzYettZ8tuBACAKQjS9WzmbGZmPqz0t3k0vbLFiprQqmW4ZdjIGgF1e2vrAP0qsONpNsQ/1wHl0KA7auK/f5FEq/p9J2gtlNd2Gy4h7ttldU8if6Soh3Ods73bwcI0LNLhcorCIxl1rK9l6zRLQdRWBsol5iw9aWatvey6zpwjarmaU85ptpsctVgipkt2RpuNRMvdS9eka+7UEMm9ozo1Cim0UsJeNpXpHwTe7+vE268XeAvOKqOE3y33bzRufITIh1DxiK1oY1i3EQow5FT56/0sgmg7NMhCmDqWZk05VBoW3JKELUVPPuoiVaYULD8iFUw9dDqDPuenOnJ7hCuwLkilmCL0j9KTd7G0zzA4If2XHFSKgI6JJcJmD7tJq8w2WFpteqhnUrHFBrPwrKL1z5nhy8Cl+wCKYtUH8o1q5oOQHsxeQDcdsx1T5cerDtINlcJ2r4as+XTMS+USLSdNdqxKHm1hfJrTZUu9+prWtJ3n7E70CzxyeXGcwNzhFJ1ZBD1yEyZMW+eTREP7zUpgqYzyR9VweYMo8SJeFKlSnOasYevmjZFoLYXn16UsxyQDO6mBO5Q6LUXA1EDNtugLI7uP/O9883zPQep0JBTMNLLpl1C21JkZYXzE2rW+iSpLeSYrhD3LfFpUdCGb+sL1HwmRifpQ8o2Puut1ImRLYVmRQaQN2DYrToN7M7r1JJzMqCRQ5atQcgxaNmnrtBYi0Rz6KuR+4VFXZpYyttZxI/TUM/Ia6yTmHVtyz/6zeOV1WIwKB+++y57Yq0bwOuypgDnzhfaw6RKYmzBZn2LM85lLx6/Jh5cgi41ibPHWbZIYtSYZ/50Yot9HGIevgXCyDjzf/2D+XchOs1bHr9wgZHCuavFP/RiqNj0mifxxuKW/zOmzf6v/4biNqzFypxH/rf5QGQBv1P/+2bpDz5198hfvfnX7ePYiE9uDm6LcyzetHoDqf+cndFccixnCun0zUnL/8pp4MWGvW/8TlaLTlKaa0+gz4fk7xkGk93jN4U1zot/3v77duOtUlcjXj6am3aj+EJl+/9bpgD3CdtCrZrv4VLKI0wKD8SOmuva822M5eVk6tWfW8CBfdxaziV9v/+L8Cul2+9vs9egefa5NVZO//EWjfXWT6Xm931CtTifu0H8QRKPb73+jlHO3/th7D8bx2OrWK0+7sn1Frqe8O/boaiPY5NZYJEb5bd4PQR+llXv7P0Ef2Py8Qv5qMHjahTmpCeT+MP8JSCRQgUpzRfVx/HX4+oBY7b4Ky+Gl6vgnF7TvPB9zH8L6GAs7KvJ9QQjdrfOEFjpysunRSZ0oxufiT/gS0RgnA303GAzP6HH6egySDYrlOal8gP5T9ISgsK659MIFgjU1RkhjO3Co/lP03Iqx6ao0gpsCvhNI2rwBRRmtTs1yJiDldh6TBOavKq8bA0rbjUeXgKgRPhLmOFSp0XZqJeCwHOIzQLGzqnUD1Oan0e4LPq0YmQqAS9K5lQXbNjbJb47vr5IM4DGvMDlOT1FUiCGE2IhcN62uOSpaydLF8fuqgLFlnUSwEavbmaPpCi3pYtGlKEzEJJelwkUVxRR+4p4CjX3+lankYUaVGJPS+ELK7WT3KmPbDguQ2+BD5hiZMMsA7c4FEb5KbUwA2kURaDOzGhpr9ARropShBDWUe75VmQIwWkER0+h7w9SnDCULaB780XoFjBkqHSWo3NICTI6AwTMjQmctcxAUJSucnctVFo8J3jFQdH9ds7A2Iq6ocABfoyqzuCrBWQ+++ejmvJlMybey/M/7f2x+QEdjSRr8PQgSV9ezgxrSMMi7k4WbX+apWc7EIy0aaqmnIhJpdGYcJUdaPJVduMVRvTXEo5vpduxLVuMcrVVm8fruceRc2ReAvR3VeDHz8A;" parent="1" vertex="1">
          <mxGeometry x="-160" y="140" width="65.24" height="40" as="geometry" />
        </mxCell>
        <mxCell id="4rz4LA_L3pTO9ttwV80M-36" value="" style="shape=image;verticalLabelPosition=bottom;labelBackgroundColor=default;verticalAlign=top;aspect=fixed;imageAspect=0;image=data:image/png,UklGRgovAABXRUJQVlA4WAoAAAAYAAAA8wEAGAEAQUxQSMciAAABHLJJm+T/s0PXzhExATxolz9s2143jbbvutZScy+4V8BUm17TK53Qe01jhhJa+kASSGjpiUlgCD1DCemhDgnpzQQIvRgwvRo3wLYsyZLW+cctydKyvCy97/t9ExETAEe27UaKh/Hvfdz+k54YviK8N08fDzuS1IFWEBFJ//P///z//zpk2RgaGZuQnN4kq2FyUlxUWIiOg1esj0jMum/4lHmrtvy6+8Cx/IKLF86ePHF4z+/frXvr2fE9clKjjFJwSY7NGfjs+t+OXy63w8vOqsLTf215bXynVCMHg1gX3/Wp/+wptEKVjpKT38zt1dDEQR0pquP41QduOqFqperM9uceStEHaTjmvjm/FjtQQ4e56MLJfT9+/Z8VHy1dumz52s++zTt67urtak9cVh5dMThdF3Th0I6z/rgFj23FR3/46LkxD7fJTI4JN8pMoqQPjUpIb3b34Clvbtl7ucrpDoD15LKe8VIwRZc1eUeRE+6ri/b8Z2q/9omhMvmQjdEtuj363vcXLG4AVO57o2soB0lC7ni3wA63StnfK8a1i9EzqVMObdJnwfdX7a4ApfjrQQ04+MERPTYVw63j+q5Zd8bJpHIObzl+3WmrCwBVf0xKkYIbHD3y29tw7bzy1ZNtw5lqJRsaDlh6zOoCqD40t4kUvODIYbvMcF35+/OtTEy1mHVpw7+4pgiAM/+FhlKQIqzHN2a4dF5Y1zeWqdZzSLtXD1oEwHF0ciIHIXTtN9yCy+rDs5sbmfyjnDjq23IBsOaNjuAgA6fOvqhAtB+cliaTH+XIvl/eFoDKjR3loELIwD/sEO17JqdJ5Gc5rM+mmwJwYU4yBw04a9ltiM7jM1KY/HFon10WAY6fu+mDBMY++5wQC99tIpGf5gaPHnBAvDGrAQcBOPmdEojmT+80kB/njLmXBdh2dpUDflL7XQ4AUE48Hk5+XnfHNivEc4+bAnwhY09CLF/RQiK/z7EzChQAuPVGEgfyoueUA4CSPyaU6kSp7ZZqAHDsyOaAHaeutQJA9detJaojOe6VYgBQ9t0rBei49fcOACh+KZ6p7jT0PaAAwPkx+oCcdMc+BQDyBxmoTuXszXYAKJloDMBJD+cDgPP3Lkx1LCfkVgHAzedDAm5S9wIAsH3ciKnujXimGAAqFoQH2KTe5wDAsiSWqS7Wj7gMAFVzQgNq0sNnAaD8tUiqo+UBZwHAPCcsgMb3nwKA2zNCqM6W7zsKAOZZxoAZdzoCABUvmKgO53tOAkDZBF2AjFvsBoBbz4ZQnS49cAwACkfIgbHEbxQA5ueMVMfzvacA4NJDHAgLX2IHYH0jjOp8qc81ANjdlANf+heqANiXRJEG1I0rAaBsTgh4cfdCAMrmBNKEhmfNAKrfNAW6mu4BgH3ZrA0o7AMHgFvDpMBW1AYFwMX7mLRi0g4AyG/NgSx5mgVA+WMyace2JwAon0cHsLjtWQCOZaGkIaVhJQAsM3WBq8gvAeDPdNKUhkUOAJc6BKykf1YBKOrB2oJSfwegbAgPVOWcBFD9ioE0Jne7DsA8XgpM6RcrAPKSSXPq59oBHGwYkOK7rgO4OYC1B6XsAeCYJweiIr4EoCw1kQblkZUAzuUEoHhQBYAz2aRJw78AoLyvDzzFfA/A/qKsTeiu6wCudg448QgLgCMZpFEN7ysAVhgDTeGbAVTPlLQKtbkM4HrnABP3vA1gXwppVsMHAJT35cCSaR0A+zRJu1Cn6wBONgwstb8G4FgGaVjjWgD2yRxIkl5XACyQtAzdXwbg99hAUsoRAEVdSNOGbwNQ0SuQ1NcM4IsQbcOP2gH8Wx840i0HYBnO2oaanAFQ0ChwlJ4P4GgqaVz9CgC2wQEjHmIF8K6sdegRM4CPdIEi3QoAFT1I8yYfBXAsJVCUeAjAoUTtI/8bQGX3QNGDFQCWydqHBlkAZQEHhvgVBXA8Thq48VkA34UHhkxbANxop4VMWwFcahIYSi8A8GeMFuIXAFgHBIY6lgFYKWshGmADMJsDQqOqAccE0sStCwF8YwwE8RsAyu/RRjF7AeyN9oR1pvDoxIbZbTt27NixTfOM+Kgwo8yBEMMXAAoytZHhSwAXGhKRZIzOaNtv4isrdvy25+jZa8VlZWVlRVcKDu/5Zeuyf03o3SotwsABjbgDAH4L10b8MoCbd8a1Gv7yN3vOFVsUeFmpulHw5+cvDGwZLQUsMi8A+I9OG9E4J+D49e/rdqjSdvXP5U+0i5ICEp3LAMxijdTdDLXbb/zxer/GBg449LcBypOkkVtc80yxFl08uXvrJ2uWvP/ee++9l7tkzSdb/zp5qcTmiWg9s35kpq7+x5IhNCI6Nj4+NiosZCIAa3+tlHbGlWIp3Lvl9Qn92zVKjjHpZCaXLOlMMclZHQdOfG/7wWKbOwC2U8t6xXK9TQpN6dxnxttrN/+Ut2//kSP79/z+41EAt+7USnGHAHvx3jWTe7aKNUpMXmfZFN+238wNB286XAGoyJvTxlgP46ic0W/sOl5mVVDzwmytFPrF0bUTOsTqmVTJhoSuT31+xuoKcF5d9UBY/cqQ2fOt367b4e2LDbUSZyXrSN1szBy09FC5CwA3v+4bzfUlOWXIxwVm+PJculaqpbqEHu8ft7kAKnYNi+L6kKnD/CMWeFx988rpA79u/3Ld+q//+8ehs1fL7SeT6zVEJKeP3VziAjBv7hla3+GYgZ8WKnCr3Dq19YNnhnZtktIgwmSQZWNIZFxas3tHjgqt7xBx2N1vn7ALwK11XfX1GY4c+kMl3FoKvphyT2oIU71dznzmsF0Arr6ewfUW08ObK+Hamr98QKaRqZ4vpU8/4hDg2DPQVD+R268ug0vnxf8MT9dRQFDKfP6QA+KtFS25/sFxL1yAS/uxudkGChxKmQuvCVCODjPVN3Sdt9sgVh96OkOmwKK+62dmiLfeSuJ6RdTMixCdx6alSxR4jBx10AkA9h/vkOsPnLHGCrHo3SyJApLc+MNyiOfHGesL0p0/OQHAtuNBIwUsQ8ccVgDg5isx9QN5wFmIV1+IYQpgctONVgCwrU+vD+jHXAMAZfeDOgpwRr9UAgDOHU1Y85meLgEAy+pGTAFPQ/98AFB+78IazzD5NgDcnBVJgVCp0y9OADh2N2s6w5OlAHB9gpECo9xwUzUAHLpb0nDyuBIAuDBARwHTuA+tAJB/n6TZ+N7zAHC5n0wB1Kg3zABwvBNrNG6xDwCuDpUpoBr+ehUA/NGCtVncVgVA0QiZAqwR88wAlJ8aaTL9S9UAKp/SU8A1fKEVgPPTWA3GvQsB2BeHUQA2MrcaQPXrodorfTcA/DeBArIN1jsAVPxDp7UMrzsBFHTiwAyl7lQAXHmAtRXfVwzA8qREAVrOPgQAf6Rrq7BNAPB5FAVspb43ADg/DNFSPOA2gPMdOHBD+mfNAMrHSRoq5nsA9lkyBXLDlzsBnGqtnXioGcCBVArsNjoIQFkTopnCtwOoniYFeKQhZQBuDWGtdGcJgMNpFOg15ToB7EnTSLp3ADhnSwEfangAgGO2rI0yTgA404wCv9LYKgDn22ijEVYAy3QBIIraDEB5R6+F9OsAVPSgQDA/UAzgSgctlHEawL64gBAZlyqAssyogfpWAVghB4ao3SUA1zpqH2k+ANtIChDr31QAJVeveUJ3AbjcMlBEHQsBFDTSPInHAfwWGTAyrgFgn8Jap+0NAB/IASN64CaA32I1BUuyTiczezTIBmAKBY7DdwCo6KkBJENko44PDn18+qwF7y5btXrJW3NemDSu792tkkJ1zJMAmHsGkPhRK4BlujqNjSldxsz/Ou9cWZVdgcdOW8WNYz9+PH3AKgA3cgJIlHYcwOmGdRYbUh6a/WV+qQM+tVoAnM/UCKyTuR6gWw3ANpzrJA5v+/i6Y5UK1Hk4wWdSRPYDQ8d6dXi3NtGyZ9I9Y304pm/7KMkHunbPffzRE8nsA9bFd+o5aqx3R6YQNR8rPiCrQxffvufIsd4dlUEkNRn/zJhMri00yAJgrb4OMracurPQiRo6bbdvXL184ezZi5evlVQ5FI/+iPSRsd1LP18z251etVfdyHvzrhBP5A1OX9qKf52Ryt6Sx11UAPsPLbzG0X2WHyizOJxedfyQRPSUU9xiUgFHdVtyoMTicHo3L52461cfzlz4aSeuLanHARxNrGukuAEbLzngodN87e8dy2aOH3hvq6ZZDTMyGmc179RrxD9f2/RjfpnNxa4Qn8itPrqqwLfF6+7Qe7ARPrbn9dZ7h++4CFH5OsZLYYO/r4D3i7ox0VSI23zHpt7f3ob3b/ZnCl8z4ot3145ZHlJb9KsB3Lq7btE3n/OXGe6tl35678mHshsYZaYaS/rQ1I79Z6w/WObYbPABRz5ToMD3115twGoBbkw3eiX+v3BtnS55g5t9XA4f2ucYSD3cZEUZfOjMNRG1XNdox4ItDf/TuLbwqGpAeZ7rEH37d8864Vq5uff9wc3DZfItG+K7THhM9kHCcgtUafuyMasGZaMkL+ier3aD0224ZtJdexX48pckUg93zHPCl0ebEFHLT5tuXvxW7LrM2kLNLwPYYqoz9K3fuazApVL0x8t3N5BIpUzeb7DKDre20sLrNS+2uIHyXWPPyq9780alK5xuWzPufAkeboqsEd91Am4Vc9H1mp/pw+rhTgfgVjEXXa/5hdESEYWtfGxB9nvTlppqTcQPAPLT6gip8euXFbi07H+1U5REfjBscTVcmnfPGdIlJzsn221Odk52dnZ2u/6zf6pwAWVTtEdvZos52dk52W5zslt1n3fGhbLKWKPor+CpZapcA265H65vfD65R5ts1znZ2TnZOdnZ2dlN9KSepnvgunjr1B5tcrJd52Rn52TnZGdnNzUSEXHO+twnlmxsybWG3wJQcV/dEDPxmAMub24dliiRX5SerISo7B0VJ5GXpaiBv9gFWJ/VefIceVfuvE/A1TY1kSdXCcq3pwWcbVeDqM8UF5Uf3xHC5ENVhK5VXFg23RPG5ENOGjy9fwJT7R1iAxyT6gLDgzuscHnlowfDyV82PgbRtqYRkw856c1KAZe7evKsl4jvuSI4J7Jn3PEcxJMtx1cKWBfuEU+ognjtyTDyrRp40G2I16ZFkn/vVAZgmeT3OHFREVxe/7CDnvymPNsp2JdFk49D51sFrDF68Jy3SL9CwBqdZzGbIVZNksLWKYL5ScmTuN0QC4fpqNbF/ACxbIyO/HzmOQDfh/s73Z277BBvfXangfxo6iGIPyeRz6M/U4SrOSqgxx3CdqNH0hNWQfkiiqjteQH5OeyOB5oF6zM6qnXct1JwvGkkfx/5K4CTyX4u4plLEKt39QwjvzrUKtzqzb7jdhcF+z9ZBaPtwg6TR63zIRa0ZSL5aaugbIpwp18H8fd4qn26FRD3ppHfl9YCuNbCr3H6cgvEC8/FMflV6QOIO8JJhbplAtbrfSe/B3GdzpOIDYpgmyYTETXYIaByLLtJOSHYJ7EfiD8gOJ7Ryb6U2C/QQgDm7v5M6vKDEwAsX3WUyc9G/CQ4n2I10AibcCDe3bPe4uyTgjKDPZAnmCHujCeR774q4HAzN51LhcvNyQ+0L3Hx40ZfbhjiJyY4AccoPyb3OQ3x8swo8rspp4Rbd5MqW1wTLmW5e85L3HCbIhR3IQ+b5UO8eje7IN1rDkFZFeZqaLXwW6Q/6GYRfHw6h/xjDwuASf7LMO4KACh77pXJ/2ZeEK41V0faGeF6C4+i0tJS09JS09ympqW1GJ/nhPhVmAehK51C9cs6cpuxV0D5GMnFk4qwSecPBlX7zvwPyU/cVQFglt8yTSwBAMvGpkx1XGqBF1p9cyI/P/9EvqdXbXBZ+DC7k0bchvhLIrnnQWUCjmR59EndoGyIJD/ZvhTAO/7KOPMWANyaHUV+OeW0UNZVHc2uCpebeCR1+s0J71Y9pyf3zY5BLOnJHpDxfafgXBoiDLcLP0X4gx4WnxVks7/ILgSw3E8ZZ9wGgKLJRvLPUX8KjsdYFQOswtFEj4gbfurwiuX9CHIfslIRHG8byeNGhwTcGsxE1LVMON/IH3S+KTjz93l972SZ/GXWRf+ln3wLAM4O0ZOflpcL+NSkBvkdiJ8bPCNKeK+iZsqZyRHkngffgvhHGnnO480CDjQlovQCwTaG/UDyUcH+fIzXo/XkNxueAbBG8kfyuBIAON9TJr89tlooulsNWfmCcwbXhEJnltTAevqDNjJ5mLkPYmn/bpMmTZo8yeXEiZMmP3/OhXOpkcj4uYAdEX7AsF7Ab/Hk/1NPAFgn+yGp71UAONtXJv+ddUbA55G+C3nfKRS1pxqRfvwlN8dXLH3rmSENdeSpKdcpOD8yjbwF75b0ZuLxNqF8lFT7eIRVsM3U+b/MAgDbUtjvcNsTAHC+h0x+XPe6IlheCfGVfmoFxE9DvEDy/fsUF6VzYiUmz3nQTYiHm1LIB4p3sCeTKHm/gLP3ca2jxL8EXO0l+b2siwBs+2eksp9J2gkAJSNl8uutLgioeCXKNyETiiGWPkzeIM7+wSnAuiq5Jkm/QawcIxG1yPeS8x0TSc/bBRx/SK51/FiVgIJ+en/X8jpE+55xMexPwj90ALj1lIH8u+5fNgGWTfeY2GuGjstvQ3S8ZfIOccOPrQIcOztIHhlftwvOFWFEJI2r8A7KBjIlfe8Cl/+VKdcyivraBW7MayT7t8xfrAJQtaOnyX/IE80ArHON5O+jNzoFoPjzMZ0ykr2Y1mHo6qtw/V0SeYkoal6FAJx4ROcB9y6FeKo5iWEflZZ5WFpWVlZWLSAvhbjrGRdwHHuzR05KsncbSG52NUz2YaK+3QkXcOS/2zsnNdm78bI/kJLG/1IlAKUfNGY/we3PAVC+iCH/33Cn4gKoLjt93IsnS6xwrRxsz96j0OlFLnBtQqi7lN8gWp6SXFCD9h07dOjQUewgdsp1CPZ5epKGFLoAFPO1E8e9euxZ2U35ieM+XBUl9T3vAkDVtfzjXj32qsEfEHGD4T9UCXDu72f0D7FbAeDvFlQHcqNvHK587fypnUQ+IH2/ky5QsTiRXegXOFx8GkVezzgooKg3k27QGVfeP9ac3Pi08GEmudsJN14/3pL8JccM+8kGsfS9VPYD8nQrgKJeXBcQJ75Tqgbzmkwmn5B0xx5FgOOzJkxEfH8hxLPt2HvSY1UC/kghkrruqvZJ+RiJaIrPHG/riUjquMPmk8pHJb9BxHHPnFUAwPFDB6n2tTkDwP6agepIU++fKnxVlTcugtx6jbjFDocA5+57ZKKE7yDapsvkw8ivFMExW0/ECbNOV3vPuSqMiPpU+uqvTBK5wbRjNu8pG8LJr8pt1ldCzO9vqG3GFQDwSyLVmRzbc8Xx24q3FPOZT4bFM/mOKHmJVQDOjzHqX612sbMB+ZI7nhdw/UEmIrnxP7dftnrpQGMioogPzL4p7sUuiKSMx7desnipoA352/Dx+QoAFD0dUru4WwmA4h5cdxCRPuX+x55dsMibs5/skWlk8lQauWjRokWv3+sNivzHItcvNIp+epG4oAP7hOTBi1wOkknksGYDJr28yJvdWaCIfnMX+XKcgTzk0KZ9J85a5M0Bkt8hqdWXNgComBdRq6K2AXDmGqnOZcmrzFRjySV7hVhyyyy5ZvIxSy6ZXYjMkjeZ3LLkS6Yas+RNJj/MsQvLAMCSG1uLeLgZwLEsCqIaR54DgOrF0bUn9icA1dOkYArJD+cDgPX9iNrCI6oAHEyl4KrUOQ8ALG+G1ZLQLwFUz5CCLMSt/wSAyqf0tePOYgAH0yjoyu32AcCNgVJt0OUCcDwrBV+IOxwCgDOduRZkngRwtikFY/mBCwDwXYL6eLwNwFJdUIakcWUAqhcYVWf6CoC5HwVpjXNsAEr7s9qaXgRwKClYQ7FfKgD+SlXbYAugvCsHbahtAQDHXJ26pA8BVHan4K000QLgYntWVYO9AI4kBXEo+isAyqoQVbUvArBWH8zhTpcAlHVX1aMOwDmRgrq6+U4AX4aqSHoHQFnXukOOT67fR/knan4GQOl9Kgr9EUB+ct0Rv+1Y/X6un5JfcwJYolNP0nEA20Pqjpi31tXvn/RT1PI8gDNN1NOhFEAu1x2sq+fL/kr3HgDHdFZNTyuA5ynoe2cJgJ8jVTPWDjjHB3/CdgAovUM1rypAZffgD890AsocVom0AkBxu+APdbgBYFe4SvSfA7jWPAgU+ROAK81UYtoJ4EJmEIgXKkBVT5WE/gLgfEYQiHpZAMxRSdhvAM6lB4OyzgP43BBki/gdwOF4dYT8COB8RjBItxLA5Sx1GLcBuJwVDKLnAJTfpw7dBgCF2UGhMQ7APkId/D6Am12DQt3MAKaog2Y6AduQoFCHEgBzVDK4GlAmazI5+Z7xL86a1r9TvOxGCouIiIgwsjc4onWPKf96cWKv1hHsiTEiIiIiTPJACouIiIgwCeFxDeJcNogMM7BGan4NwDsqua8SwHwNJrV693C5HXBaS/cvvcvgInp9Xl5e3kQvSFmzfi60OAGnpfCXWU0kNzw+Ly8vb1OcB9Fr8/Ly8l4Unj544MCBgwcOHNyf98vXb/ROkLRQo0sAlqmk2SUAa2TNpRtZoMDDwtlRQvwRAFgo1cg05rgDHjpOjA9xMxsATiZ7ELcfAJYLb8FjpWrP5AasfTIvAliukpi9AHbHaC3dmCJ4bl0c5YPwV26jhuXzItQGwLq9LWuehsJHKjFsAnClmcbih64AgOPQO3M3nlMAwDJD9prhpSoAcJxcP3fu+nw7AFhm69XisDscigvgSCfWOk2vAnhPJfwsAGt/jRWzEwAc6zMkNmR/6gCAo6leu+8GANxc2EjPrM+cXw4AhfexOm5MGT5i9MufXVAE7ErQOm2LAcxTCfU0A5gnaavBVcLudBJTfhasg70V+hkAVL9iJJem12wA8Hm4Os6lExEbspdWCdXPSRrnwUoA09WScQbAzxGaSr8WAGxj2QU/5gCAtyQv3Vsm/BpPbhv8KNy8X0VEFL6oGgCOZ2icEXbAMVotpq8BFLbVVGknhYtNyfU9FcI2k3ekeQBg/we74yfsALBQUhUl/CFUj2JtMw2AuZtaaIYDcExjLfVAubA91E3c45OnTJrcX+ed8J+E663Iw5ZXhN8j1cWT7QCwXK9ppA8BXG+hmk6lAHaGa6mJivAuu/HQK03OC7ujPInKEy43Vxe1Kxb+jNA0YT8COJGkmga7ARR10lD8EgAoT5Eq7rgtbDN6YtwiVNylsoTDwvFETZN+CsC2ENXwHAVQXmHtJH8gWPup46EqYYPOE/nfgrWXysJ+Fc5naJoHKwG8waqhjjcA7I7XTrrlQtWDaloie8KvC7ZHVBbyg3AxU8vwvxTAOpDUG/o1gKqhrJ0+cvGQmlbpPHq7nhK6FcCN1iriIVUAdkZpJulNoXqoOh4wC5/pPdGtEizd3J1O8yD+sPci/hDOpmmZllcA/BmjIorfDaD8EdZK/JygzFRH55vCTpMnId8Jt7q4O5vpQfJJ72WcFg7HaZkJDgBvs5r4aQeAb6O1Eo22A8BHkhvJYDSajHr2TtoJ4XCiJ/EHhdMZRDxLuJ7jQfpZ791bLnwfqmGMmwBUdCNVNzwBoLI/a6UOxcJvUW6y1n+zecvmeUbvmLYIN+/0pEup8N8QIpoqVN7nQfNrwvvekOYrwiJJw7S6AmBvnLqkWQ4APzTQSnF7hRtt3TxUBQBfeImnOQEo8yR30ktOAM6nmYgG2gDYH2V3fasAOCd5gbNPA0BFT9Ku0mwnoMyV1EVpfwOwPS1rJOlNwTFHdiH/SxFeYu9Qy/MAcCrHDbfMB4BLOURETS8CwBehbozLAKCkc804a4ci/BCjYdIPA7jenlQuPW4BcLatRqK7iwHgXFcmIu5yGgBuPUBe0r3pBKBsSmSBk79SADjf1QvGNcLtsbILqXuRsCOiBhySPjpPAYDywaxd+KlqABtNaqOYHQCUTyI0kmmpEwD+7p3UIGvMEYg/Rrs7sGK5+9FE1OQoADh29WscF9e473d2ADiURS7vLQKAay+2SopNzJ54CgAqBrMH5RuXL1+947QVoj03lLRr8t8AqoaQ6rl7CYCqJyRtRA3/EHD72P6LVojXe7A7j5cQkdT7EkTzhQP7L5ghXunHrgyzqgDAXnh835Hr1QBQnRtGHnhuW5tA2lWaZgPwc6z6yPi2A0BBR9ZG3HG/4GHhk3ryGsn9Tyrw/NQAHbmNmH8bnlctbUBeujonljVM1nEAVaO5FlDGnwDwbao2Im6z4bYHlbt66skHJLVdVejJjVXtJPIwZPivFg9s+yZEkDeUWwfe6qInDWvKdQLYHk21kbsVAXAsCdFGRGE9Vx+4fvNm6fm//v1IDJMYsWBdTce7IDJ2mf9zQanZXHr6l1e7GMlzjhu85u9L5eaKqwc3jElmcjtyndu1S16dcG+CRFqW+5UBKH2YawUZFlUDKP+nXiMR6+NyOnXq0DhKx+SaZV1NZTdEUnhGh3vv7ZAeLlHNWR/b9M777moZZ2DyUNa5lSVm0rhpfwFQVpiolsZ9qQC4MVzWSAFD03sOAKdbUa1tvg8ALvTgYIo87jaAqklS7eH7LwLA0Ts4eMIPnAegrI+kWiyPKQWAY/dIwRJuuhcAjjSjWm2YWQ4Ax+/mIEnqNgVA6RCpdlHIK2YAOPywHAzhpI0OAOZZRqrt4fPMAHB5jD4IkrjeAcCeG061P3y+GQBKpoQGOzhpnR2AsjmB/GH4i7cBoGJ5Jgc1uMkWOwDntsbsF8g0tRgAnL90lYIYUodfFADKzoZMflI/4hzEsxOighaGgScAwPlDUya/Kd+dpwBA1aet5aAEN5hTAgD2zzOZ/Cg3+dQGAMqpydFBCLnjNzYAsK1OYPKvsbOvQbRu62EKMnDc9LMQy+bGkN/VPfibA2LZ6g66YILhoe9sEAtGGMgPc3puiQDl8putDMECfavFRRCrv+8qkX82PrSrGqJyadkdIcEAXc7bFxWIN15OYPLXnPBsgRMuizb2iuHAHhs75V5wQqz+qbue/LncYnGhIgAVv81oEcYBO13igA2FCkTlwosJTH7e2HlpoQvAeem/U1qFcgBOiu+We6gKrgvfb62jOtDQdcUVRQDguLbj+XsS9RxAk0IaD/jg73K4LVl/t57qSEO7tw5bXQBQbh/eMLV3dqyBA11siEi/d8S8b89Z4NZ5YcW9IVSHSqljdxQrLkTFcvXvL+f9o0/7RimxESE6nSzrZJ3sdmd7e2e73p9MppPx6WRkOmnmiy4rGgGQRiNAo5EAaDQCII1mx32SUlSZmq7KjEx1ZjVVZXbrNm3atmvbpk3bdu3adr7/kXHTXv/yz9MVdnhoOTCrpZ7qWA7r8uqe24or14ql5OKp/b9s2/TJxo2fbPxko9v1MKyH+tRTcvfkJbmn5H6WvKTk7snd/fymy0NESIqSpRxFUhRJUd5/frucOKXKgnOqPH9RnZevqvJ6kVhcXFRUXFxcVmF1oob2SxuGJklUF0tx9z//3ZVqDwLmivnE6pEtjUx1Nodlj/kor7A6cKaUn93xWrdUPVNdL8W0GvbKlj1nSmyBLKW64saZv3ctnnR/ZiiTVmRTdHqHAf98eek3v+49cvKU9/9/u3xGlqJkSVEkRclSlKy3x4ce9xfn7cX5+MX5yK7vNn+uyk/WqnL1h4sXL16cm7vYZW7uYte5i13n5i4W31i0YOHCBYsWLFy04PWFCxcuWLRwwaIFCxfMXzR/4cL5i+YvWLhg0YKFr87y+Jkpjw++v3VabKhMmlQyhkXHJ6d4/+S4y4ERoNFIADQaAZBGI0CjkVjNu8ymfYwGVep16mSRiF0SsWti10Tskv7n///5//+aBgBWUDggWgsAADBiAJ0BKvQBGQE+bTSWSKQiv6Eicepz8A2JZ27bbf1NS1STyA1gPQxkA/hP9l1BCQP6JnHW6/ij9AP4BigGtpkA/QD+ZxOllxq/jHI+0/kJ+WHyx15+4fiD8jOIdMl12fqfun99/+d/oH67/IDzAP0o/0X23dwfzC/rP+23vVf6L/R+wT+wftJ7gH8q/ov/u7AD0AP5f/jvTC/7/+P+DT9s/3L+Bj9ff+77AHoAf+HrH+uv9f/C79UPuXogfRcVDZdWx+4SimqxmgeNPUC6L/oYfsUP4Y0Ei/aekG1eaCRftPSDavNBIv2nobTlRWjMnR/a7PlHMSwpWXa80Ei/aekG1eaCP7XbY9XYRprjBRaLQ2iZu58leaCRftPSDavNA7kwp8yRItVk7YQOVV8JNbiRIv2npBtXmgkFPsG1eZ8bBmND4PPRiaekG1eaCRfr4Unn7ell20YQLGgkW3WP1IkOizGJXc7BwLYSGNBIv2ATwLFc9H+e5R0uX7T0gDgPtR2RmMcQvEZgnafOPxQkG1eYZfyxgyekC1ebV5oJF+0uP79fTHsPyh02vNqtTtUHF0kREeVMOk0Xb1VXUZOyuh2sUZz9v2mRAVjSflvTdF99WZKBaRoHmrAaThJnE/iImjsYqpkcUudgiy6Bj9hp188xkWK4iuSmUoZ8KMWu/H/d76kIgWI2OX+6aw15hmA/6zFstryXRv1tXaJavI6lynvR7Z53SJAJyT68vpFAfFLSwyDM5USm/XKEuEhImkdHYIsEB4ESoEyC4mfRm41d7xORw+STMfevH3UjaOy5/kyZ8EEfKLCyCWC7BtXmgkX1cWnHqbkwFn1moBX8Z9ZOJABCxoJF9/FOhTODqwZ0d0ns+oci/aeiTh8BsG30G7Z03aNtOouF5tXmT1eX1bTY1mDkO2sl67lQfKjkX7Tvdvg38G0dsmm5olJGVazd4Vn5/PJwjfGAkEg5sThuzD/5mAH7bYnL4U6cVRbShXkY0TJ0B3WCPwYn8pcLCrvLSpqyet8fhwubjWmL9p6QbV5oJF+09INq80Ei/XQAAP7MDwAACAsN5y5EGQ/WiYHSPXOUtbW+l9DHWJ35JHiu/YXsshXaujiplNfKod+QfD1ulRz8LDr1Yjf//0bz9pQ78Wjoa0wC4gk6LI6Xo76WBIjAnxy7BzRXZWXnv//0HnCP6dP1bJzLHDdcWa2XDCRnQ4Q5IIAWENDo54iq+cacrfXW/t883u+KN0FHggKPo7N+8463+l/++qP/3zY6U4LDsR2OnQz2AGTo3uek7S3+BP/xyMMHAN2o4vPuHKi9qsFAABWSzZmpMa1EoNxpzSovaqo3hQX+NvW0mwv9ybFkUPn8CoF2EeYsW9/E8hNW4U8ZyYnNLTF/CXa6MqrsiSmPPxjT0v9ErFBdH5eGkMgrJN2on3nWD1bFJlH9tEkTLpW9FQ8iO3UbfwFI3aERknZE4QLVYUExJvKtp7fBoPbmEnjpoBofXusSD6GwzMiXb2W4XN1IkAblS663T6e+PGe/C5akpu6PDZtvtccLmXge5jtkRARcjCimThwvfHJFwLbCkVCKNH7WRUn6mNPfbt2gh1Q+IZd5icIuC+NsZUZcDynogSxdYzl8FO0OctlY9/GIn/9UU/fqDca53QS2eK/crJkvT27BpAhSiIh17MHi+XkMXuODv8NLTZl+dWmd8qwZJgURyyEiu/qB/fsQ+faSe8jUksA5JATuEs4ei/uYDb7AjgzkfZIFAQR+tsgnoycH/cmcStnNEihDSDNNlk//ibudP6dUMYp8gE8oHdTg6u76zyVVhfhDWW7XQRqVO9t+TkwjnO+N0+WM7CYeu/cEw0hTVojqPLQ9YWNQ1RQ+Vxw5EyRYz397F6I7Wh7jB2qMlYVzTpP5XHaYOTPe8RoDWvX4S9HMGAQO62jNA3SHInqzeBiMFRXwGSySEb/94Azf8Z2LEkTHIbs5K8TaXgAd2AtVtH6vgXLPG4/EYArhQZ98/kCBLYD7s0MaoV1//bMETX4w3j0z3aFMXZEV2oufwv/TVgQq6P/TVfz5arH9ONtqDQCwpvClpvO07I2pd9lYMPAbWxfN6+mcyYQUnBBi1P0HOh0Lwv6mNU6EE3Gg9py8BB1AANP3Ai4+JAlQH9B5vSPWV/CWXO8ntbLnMjB04vCDnqQ3Ohew9mdAY086rPnDnXV0zXHjU0V3q2S5YgkL7SLO/A6WhILozP5fKOfGYLKzCD8tpyOZ2JOTRUkVWa49ybYJOzadTF1ZY/4QiinDCizAVH1tai1r3PtJ9ncs20b9bI1Cs447uTMOGy/J148tlsmfyg3guA6An3tJbwAnJgHi8FDbzF3i28bX+rdJAM4GKXeqMOjAKpfwvJzM9aUJ7vWx+NMMm6o+I3+km5FGnfs+B9Cvnq+8CYP7hM+gPiE3KYorNt4wK3G6djhn7c+DL+1+pQRj3nQyrs2CqfKIXX5gnagcDqUOx+hWb1NHb3qpJLvnIcwzwJhh4G9dErz9SkbEwKVJbpNRcqIyhppySPI8mc7WEonqjnxycuSG5OWmbbxUUCk75LPCcjdmtkW0PefQ/+Fbqk1bBnRCA+w81UH58cNAff5DiSbdo0dEECy7zUNDnBt2UXhriFu4w9ZLIGipW5RJPVtWWBVOb9b/WJ+4V3TCpXqOsTWb1hDgWWXLTjwpcNpIEmNl+ye7Glt/h+8qDPEqIHz/wc9eRPsbpJ1b57DCa2C2H6j8FseN2a0fE4HdJGqR/3D6lnYuyzp2mZ348XFu81E9pxZQP8RIl+BZLxcbQukUH7bA4oudaDCip+zdeIqTDTzQTJ19Q8lqtHvwwvbUrZDuZXAkVRZGH1jaY0zwRVJxMJV4fNB8nI8v4X8Q9xUSG3kiLNfIPW1hEP5O6uM5YN6/ErSVCv6eblt2Mi8OYOH7TTaW5dw8Kh5TD+HoO7I3iAkqoYpmCU8qlI/wWx43adMvib3mctyaileNpXuF5D9y1jVhKH63gcc3dlMsZr+f2fg3rS8h5qbZxpMzwaR3DYKBz5/5JsWLksNyHqlGiu9IMZv5uaGV1+JpjACLRGRzUmJzUAjo1CkE3bpTWGbTygWgzZeiVXmGDDdFgAyPhoWc8Df5Y3nHrdmvQT8ccF/oWIAAAAAAeEKphlvVIePYMbi2ae3Pso1JrhpEFDP//0gAEyBau4+Ll5Z7DeCVsEGU6jU20Qm+ZtSIhmAEXG5F0AKixb/TASAirmEz0vFTuToS4d1LxV1DAHSQkjyxXR+iMdLfFV5CWQsojyIcN2DpC6IMF6/WS9MqipapAMBPXCYlMlChDwAVGtpL2V6y++lpywkkfqnI6iTFJ6Yr8B/hnhsIxR37Nb59yd7ovJiw45dZozOH0Dte567q1nigorrckHAUhKxD6r9K//L/AADBunmLgA1GprX31d+Ie6Vzah7FvPzidvucMxAs5HT3UUqkkjf74CNdxOJwqGN+T33QXCGs1+eKZoElHJM3k4ngKWip1At/g99SuZNoEAX5V0djVJDj+N4UbHzcNHuW4Ifoh2i6OBzp1D0ev7V82Ql7jMEmw4ZKvvh5b2gz1h5mROvVVdgkV743nisxmaOAnMVmmxTmlx1z1gk2aoBKophxJOdrvhB1RscPNs+EjAQ4AHptwfMKnb8WXm6WBrSrUwqrvqVx49PQgg7F6ZCRHOaQTPMAAWkmJz+nIcEjWYfMgZgexi9nWKycXQo5gerjf3m6eHZ3MFrN8cwVB++vTEUdWfGEmNKrB99q7J4hlU9ZwTQnyWXHWvd0vm59KvWgZjnnrnqwjp2xUhljwqJ4BGRnDPgE9N+DbVlwzh33ulp/0BypcqTtaF7+a6mX05WyJySjEAAAAAAARVhJRroAAABFeGlmAABJSSoACAAAAAYAEgEDAAEAAAABAAAAGgEFAAEAAABWAAAAGwEFAAEAAABeAAAAKAEDAAEAAAACAAAAEwIDAAEAAAABAAAAaYcEAAEAAABmAAAAAAAAAEgAAAABAAAASAAAAAEAAAAGAACQBwAEAAAAMDIxMAGRBwAEAAAAAQIDAACgBwAEAAAAMDEwMAGgAwABAAAA//8AAAKgBAABAAAA9AEAAAOgBAABAAAAGQEAAAAAAAA=;" parent="1" vertex="1">
          <mxGeometry x="1180.3100000000002" y="120" width="142.35" height="80" as="geometry" />
        </mxCell>
        <mxCell id="4rz4LA_L3pTO9ttwV80M-37" value="" style="image;aspect=fixed;html=1;points=[];align=center;fontSize=12;image=img/lib/azure2/compute/Container_Instances.svg;" parent="1" vertex="1">
          <mxGeometry x="126.74000000000001" y="410" width="64" height="68" as="geometry" />
        </mxCell>
        <mxCell id="4rz4LA_L3pTO9ttwV80M-38" value="" style="image;aspect=fixed;html=1;points=[];align=center;fontSize=12;image=img/lib/azure2/compute/Container_Instances.svg;" parent="1" vertex="1">
          <mxGeometry x="485.2" y="403.5" width="60.24" height="64" as="geometry" />
        </mxCell>
        <mxCell id="4rz4LA_L3pTO9ttwV80M-42" value="" style="verticalLabelPosition=bottom;html=1;verticalAlign=top;align=center;strokeColor=none;fillColor=#00BEF2;shape=mxgraph.azure.mobile;pointerEvents=1;" parent="1" vertex="1">
          <mxGeometry width="35" height="50" as="geometry" />
        </mxCell>
        <mxCell id="4rz4LA_L3pTO9ttwV80M-43" value="&lt;font style=&quot;font-size: 16px;&quot;&gt;User&lt;/font&gt;" style="text;html=1;align=center;verticalAlign=middle;whiteSpace=wrap;rounded=0;" parent="1" vertex="1">
          <mxGeometry x="-55" y="-90" width="60" height="30" as="geometry" />
        </mxCell>
        <mxCell id="4rz4LA_L3pTO9ttwV80M-46" style="edgeStyle=orthogonalEdgeStyle;rounded=0;orthogonalLoop=1;jettySize=auto;html=1;" parent="1" source="4rz4LA_L3pTO9ttwV80M-45" target="4rz4LA_L3pTO9ttwV80M-38" edge="1">
          <mxGeometry relative="1" as="geometry" />
        </mxCell>
        <mxCell id="4rz4LA_L3pTO9ttwV80M-49" style="edgeStyle=orthogonalEdgeStyle;rounded=0;orthogonalLoop=1;jettySize=auto;html=1;" parent="1" source="4rz4LA_L3pTO9ttwV80M-45" target="4rz4LA_L3pTO9ttwV80M-48" edge="1">
          <mxGeometry relative="1" as="geometry" />
        </mxCell>
        <mxCell id="4rz4LA_L3pTO9ttwV80M-45" value="&lt;div style=&quot;text-align: left;&quot;&gt;&lt;div style=&quot;text-align: justify;&quot;&gt;VM-EnergyWise-WS-Devops&lt;/div&gt;&lt;div style=&quot;text-align: left;&quot;&gt;Imagem: &lt;font face=&quot;az_ea_font, Segoe UI, az_font, system-ui, -apple-system, BlinkMacSystemFont, Roboto, Oxygen, Ubuntu, Cantarell, Open Sans, Helvetica Neue, sans-serif&quot; color=&quot;#292827&quot;&gt;&lt;span style=&quot;font-size: 13px;&quot;&gt;DevBox&lt;/span&gt;&lt;/font&gt;&lt;/div&gt;&lt;div style=&quot;text-align: justify;&quot;&gt;&lt;span style=&quot;color: rgb(41, 40, 39); font-family: az_ea_font, &amp;quot;Segoe UI&amp;quot;, az_font, system-ui, -apple-system, BlinkMacSystemFont, Roboto, Oxygen, Ubuntu, Cantarell, &amp;quot;Open Sans&amp;quot;, &amp;quot;Helvetica Neue&amp;quot;, sans-serif; font-size: 13px; text-align: left;&quot;&gt;LTSC 2019&lt;/span&gt;&lt;/div&gt;&lt;/div&gt;&lt;div style=&quot;text-align: justify;&quot;&gt;Size: B2s 4Gb ram&lt;/div&gt;&lt;div style=&quot;text-align: justify;&quot;&gt;IP PÃºblico:&amp;nbsp;104.41.61.191&lt;/div&gt;" style="image;sketch=0;aspect=fixed;html=1;points=[];align=center;fontSize=12;image=img/lib/mscae/VirtualMachineWindows.svg;" parent="1" vertex="1">
          <mxGeometry x="478.36" y="540" width="73.91" height="68" as="geometry" />
        </mxCell>
        <mxCell id="4rz4LA_L3pTO9ttwV80M-47" value="" style="image;sketch=0;aspect=fixed;html=1;points=[];align=center;fontSize=12;image=img/lib/mscae/Docker.svg;" parent="1" vertex="1">
          <mxGeometry x="420" y="517.5" width="51.83" height="42.5" as="geometry" />
        </mxCell>
        <mxCell id="4rz4LA_L3pTO9ttwV80M-48" value="&lt;span style=&quot;color: rgb(41, 40, 39); font-family: az_ea_font, &amp;quot;Segoe UI&amp;quot;, az_font, system-ui, -apple-system, BlinkMacSystemFont, Roboto, Oxygen, Ubuntu, Cantarell, &amp;quot;Open Sans&amp;quot;, &amp;quot;Helvetica Neue&amp;quot;, sans-serif; font-size: 13px; text-align: start; text-wrap: wrap;&quot;&gt;VM-EnergyWise&lt;/span&gt;&lt;div&gt;&lt;span style=&quot;color: rgb(41, 40, 39); font-family: az_ea_font, &amp;quot;Segoe UI&amp;quot;, az_font, system-ui, -apple-system, BlinkMacSystemFont, Roboto, Oxygen, Ubuntu, Cantarell, &amp;quot;Open Sans&amp;quot;, &amp;quot;Helvetica Neue&amp;quot;, sans-serif; font-size: 13px; text-align: start; text-wrap: wrap;&quot;&gt;-Devops_OsDisk_1&lt;/span&gt;&lt;/div&gt;" style="image;aspect=fixed;html=1;points=[];align=center;fontSize=12;image=img/lib/azure2/compute/Disks.svg;" parent="1" vertex="1">
          <mxGeometry x="670" y="549.83" width="49.2" height="48.34" as="geometry" />
        </mxCell>
      </root>
    </mxGraphModel>
  </diagram>
</mxfile>
